<svg width="55" height="28" viewBox="0 0 55 28" fill="none" xmlns="http://www.w3.org/2000/svg">
<path d="M49.7702 1.12994C49.3088 2.12829 48.6246 3.00751 47.7702 3.69995C47.3599 4.00487 47.0686 4.44315 46.9463 4.93951C46.824 5.43587 46.8784 5.95931 47.1002 6.41992C47.1078 6.44263 47.1078 6.46721 47.1002 6.48992C46.5985 7.01207 45.9557 7.3769 45.2502 7.53991C44.6039 7.64928 43.94 7.58017 43.3302 7.33996C42.7122 7.08573 42.0569 6.93373 41.3902 6.88995C40.6034 6.86072 39.8337 7.12438 39.2302 7.62994C38.6955 8.10203 38.342 8.74554 38.2302 9.44995C38.1802 9.75995 38.1502 10.0699 38.1202 10.3799C38.0502 11.0399 37.8502 11.3099 37.1202 11.3799C36.3902 11.4499 35.5102 11.5599 34.7002 11.6099C33.8902 11.6599 32.9902 11.6099 32.1302 11.6699C32.1302 14.2499 31.1802 11.6699 30.7002 11.6699C29.2402 11.6699 27.7802 11.5899 26.3202 11.6099C24.5302 11.6099 22.7302 11.61 20.9402 11.78C18.9402 11.9 16.9402 12.0999 14.9402 12.2999C12.5502 12.5399 10.1602 12.81 7.77015 13.08C6.85015 13.18 5.93015 13.3199 5.01015 13.4399C4.78585 13.4968 4.5491 13.4788 4.33604 13.3885C4.12297 13.2982 3.94531 13.1407 3.83016 12.9399C3.61016 12.5999 0.440156 14.11 0.160156 14.22C0.440156 14.33 3.61016 15.8399 3.83016 15.4999C3.94652 15.3004 4.12433 15.1439 4.33702 15.0538C4.54971 14.9636 4.78585 14.9447 5.01015 14.9999C5.93015 15.1199 6.85015 15.2599 7.77015 15.3599C10.1602 15.6299 12.5502 15.8999 14.9402 16.1399C16.9402 16.3399 18.9402 16.5399 20.9402 16.6699C22.7302 16.7799 24.5302 16.82 26.3202 16.83C27.7802 16.83 29.2402 16.77 30.7002 16.77C31.1802 16.77 32.1302 14.22 32.1302 16.77C32.9902 16.77 33.8502 16.77 34.7002 16.83C35.5502 16.89 36.3202 16.9399 37.1202 17.0699C37.9202 17.1999 38.0002 17.4399 38.1202 18.0699C38.1202 18.3699 38.1802 18.6899 38.2302 18.9899C38.3445 19.6963 38.6974 20.3422 39.2302 20.8199C39.837 21.3186 40.6052 21.5782 41.3902 21.5499C42.0576 21.5109 42.7137 21.3588 43.3302 21.1C43.9689 20.8319 44.6753 20.7698 45.3511 20.9221C46.0268 21.0745 46.6382 21.4337 47.1002 21.9499C47.1048 21.961 47.1072 21.9729 47.1072 21.9849C47.1072 21.9969 47.1048 22.0089 47.1002 22.02C46.8784 22.4806 46.824 23.004 46.9463 23.5004C47.0686 23.9967 47.3599 24.435 47.7702 24.7399C48.6223 25.4346 49.3061 26.3132 49.7702 27.3099C49.8502 27.4699 49.9102 27.9299 50.0602 27.8899C50.2102 27.8499 50.2802 26.1299 50.4302 25.9799C50.5802 25.8299 51.7702 25.9799 52.0102 25.7399C52.2102 25.4999 52.1102 24.3 52.2502 24.15C52.3902 24 54.1202 23.9399 54.1602 23.7899C54.2002 23.6399 53.7402 23.5799 53.5802 23.4999C52.5863 23.0358 51.711 22.3519 51.0202 21.4999C50.7135 21.0888 50.2735 20.7972 49.7754 20.675C49.2773 20.5527 48.7523 20.6075 48.2902 20.83C48.2542 20.8402 48.2161 20.8402 48.1802 20.83C47.8648 20.5416 47.5307 20.2744 47.1802 20.03C46.2829 19.3977 45.1734 19.1427 44.0902 19.3199C43.4302 19.4199 42.7902 19.62 42.0902 19.77C41.6538 19.9264 41.1766 19.9264 40.7402 19.77C40.4939 19.648 40.285 19.4621 40.1354 19.2316C39.9859 19.0011 39.9011 18.7345 39.8902 18.46C39.8752 17.9508 39.7439 17.4518 39.5065 17.0012C39.269 16.5505 38.9317 16.1601 38.5202 15.8599C38.487 15.8432 38.4577 15.8199 38.4339 15.7913C38.4102 15.7627 38.3927 15.7296 38.3823 15.6939C38.372 15.6582 38.3692 15.6209 38.3739 15.584C38.3787 15.5472 38.3911 15.5118 38.4102 15.4799C38.4102 15.3999 38.6402 15.3599 38.7502 15.3699C39.1933 15.4087 39.634 15.4722 40.0702 15.5599C40.9235 15.7281 41.799 15.7517 42.6602 15.6299C43.9302 15.4199 45.2002 15.1699 46.4702 14.9199C47.2802 14.7599 48.0902 14.5699 48.9002 14.3799C49.0685 14.3262 49.2323 14.2593 49.3902 14.1799C49.234 14.0993 49.0698 14.0357 48.9002 13.9899C48.0902 13.7999 47.2802 13.5999 46.4702 13.4399C45.2002 13.1899 43.9302 12.9399 42.6602 12.7299C41.7987 12.6065 40.9224 12.6336 40.0702 12.8099C39.6302 12.8899 39.1902 12.9499 38.7502 12.9899C38.6402 12.9899 38.4402 12.9899 38.4102 12.8899C38.3911 12.8581 38.3787 12.8227 38.3739 12.7859C38.3692 12.7491 38.372 12.7116 38.3823 12.676C38.3927 12.6403 38.4102 12.6072 38.4339 12.5786C38.4577 12.55 38.487 12.5267 38.5202 12.5099C38.9303 12.2258 39.2722 11.8541 39.5212 11.4218C39.7702 10.9895 39.9202 10.5073 39.9602 10.0099C39.9711 9.73538 40.0559 9.46885 40.2054 9.23834C40.355 9.00783 40.5639 8.82185 40.8102 8.69995C41.2466 8.54348 41.7238 8.54348 42.1602 8.69995C42.8102 8.83995 43.4502 9.03996 44.1602 9.14996C45.2445 9.31784 46.3517 9.05981 47.2502 8.42993C47.6007 8.18551 47.9348 7.91828 48.2502 7.62994C48.2861 7.61966 48.3242 7.61966 48.3602 7.62994C48.8223 7.85237 49.3473 7.90714 49.8454 7.78491C50.3435 7.66267 50.7835 7.37105 51.0902 6.95996C51.7839 6.11093 52.6585 5.42762 53.6502 4.95996C53.8102 4.87996 54.2702 4.82992 54.2302 4.66992C54.1902 4.50992 52.4702 4.45993 52.3202 4.30993C52.1702 4.15993 52.3202 2.95997 52.0802 2.71997C51.8402 2.52997 50.6402 2.61991 50.5002 2.47991C50.3602 2.33991 50.2802 0.609941 50.1302 0.569941C49.9802 0.529941 49.8502 0.969938 49.7702 1.12994ZM49.6602 22.84C49.7475 22.9296 49.7964 23.0498 49.7964 23.1749C49.7964 23.3001 49.7475 23.4203 49.6602 23.5099C49.6156 23.5547 49.5626 23.5902 49.5042 23.6144C49.4459 23.6387 49.3833 23.6511 49.3202 23.6511C49.257 23.6511 49.1944 23.6387 49.1361 23.6144C49.0777 23.5902 49.0247 23.5547 48.9802 23.5099C48.9344 23.4669 48.898 23.415 48.8731 23.3574C48.8482 23.2998 48.8354 23.2377 48.8354 23.1749C48.8354 23.1122 48.8482 23.0501 48.8731 22.9925C48.898 22.9349 48.9344 22.883 48.9802 22.84C49.0247 22.7952 49.0777 22.7597 49.1361 22.7355C49.1944 22.7112 49.257 22.6988 49.3202 22.6988C49.3833 22.6988 49.4459 22.7112 49.5042 22.7355C49.5626 22.7597 49.6156 22.7952 49.6602 22.84V22.84ZM49.6602 5.06994C49.7475 5.15958 49.7964 5.27981 49.7964 5.40496C49.7964 5.53012 49.7475 5.65029 49.6602 5.73992C49.6156 5.78467 49.5626 5.82019 49.5042 5.84442C49.4459 5.86864 49.3833 5.8811 49.3202 5.8811C49.257 5.8811 49.1944 5.86864 49.1361 5.84442C49.0777 5.82019 49.0247 5.78467 48.9802 5.73992C48.9344 5.69691 48.898 5.64501 48.8731 5.5874C48.8482 5.52978 48.8354 5.46772 48.8354 5.40496C48.8354 5.3422 48.8482 5.28008 48.8731 5.22247C48.898 5.16486 48.9344 5.11295 48.9802 5.06994C49.0247 5.02519 49.0777 4.98967 49.1361 4.96545C49.1944 4.94122 49.257 4.92877 49.3202 4.92877C49.3833 4.92877 49.4459 4.94122 49.5042 4.96545C49.5626 4.98967 49.6156 5.02519 49.6602 5.06994V5.06994Z" fill="black"/>
</svg>
