<svg width="55" height="28" viewBox="0 0 55 28" fill="none" xmlns="http://www.w3.org/2000/svg">
<path d="M4.56968 27.3199C5.03433 26.3236 5.718 25.445 6.56968 24.7499C6.97998 24.445 7.27128 24.0067 7.39355 23.5103C7.51581 23.014 7.46141 22.4905 7.23968 22.0299V21.9499C7.74868 21.4474 8.39045 21.1005 9.08968 20.9499C9.73592 20.8395 10.4001 20.9087 11.0097 21.1499C11.6323 21.4005 12.2902 21.5523 12.9597 21.5999C13.7425 21.6229 14.5068 21.3598 15.1097 20.8599C15.6491 20.3916 16.0036 19.7462 16.1097 19.0399C16.1697 18.7299 16.1997 18.4199 16.2297 18.1099C16.2997 17.4399 16.4897 17.1799 17.1697 17.1099C17.8497 17.0399 18.7797 16.9199 19.5897 16.8799C20.3997 16.8399 21.2997 16.8299 22.1597 16.8199C22.1597 14.2399 23.1597 16.8199 23.5897 16.8199C25.0497 16.8199 26.5097 16.8899 27.9797 16.8799C29.7697 16.8799 31.5597 16.8199 33.3497 16.7099C35.3497 16.5899 37.3497 16.3899 39.3497 16.1899C41.7497 15.9499 44.1397 15.6799 46.5297 15.4099C47.4497 15.3099 48.3597 15.1699 49.2797 15.0499C49.5054 14.9923 49.7438 15.01 49.9586 15.1002C50.1733 15.1905 50.3528 15.3484 50.4697 15.5499C50.6797 15.8799 53.8497 14.3799 54.1297 14.2699C53.8497 14.1499 50.6797 12.6499 50.4697 12.9899C50.3504 13.1891 50.1707 13.3451 49.9566 13.435C49.7426 13.5249 49.5054 13.5441 49.2797 13.4899C48.3597 13.3599 47.4497 13.2299 46.5297 13.1199C44.1397 12.8599 41.7497 12.5899 39.3497 12.3499C37.3497 12.1499 35.3497 11.9499 33.3497 11.8199C31.5597 11.7099 29.7697 11.6699 27.9797 11.6499C26.5097 11.6499 25.0497 11.7199 23.5897 11.7199C23.1197 11.7199 22.1597 14.2699 22.1597 11.7199C21.2997 11.7199 20.4497 11.7199 19.5897 11.6599C18.7297 11.5999 17.9697 11.5499 17.1697 11.4199C16.3697 11.2899 16.2997 11.0499 16.2297 10.4199C16.2051 10.1114 16.165 9.80436 16.1097 9.49989C16.0059 8.78993 15.6511 8.14066 15.1097 7.66987C14.5059 7.17274 13.7413 6.91317 12.9597 6.93989C12.29 6.97923 11.6313 7.12786 11.0097 7.3799C10.3997 7.61912 9.73697 7.69163 9.08968 7.58992C8.35112 7.36782 7.69844 6.92454 7.21968 6.3199V6.24989C7.44211 5.78779 7.4969 5.26273 7.37466 4.76466C7.25243 4.26659 6.96077 3.82654 6.54968 3.51991C5.69845 2.82836 5.01471 1.95318 4.54968 0.959912C4.46968 0.799912 4.41968 0.339895 4.25968 0.379895C4.09968 0.419895 4.04968 2.13987 3.89968 2.28987C3.74968 2.43987 2.54968 2.28992 2.30968 2.52992C2.11968 2.76992 2.20968 3.96989 2.06968 4.11989C1.92968 4.26989 0.19968 4.32987 0.15968 4.47987C0.11968 4.62987 0.57968 4.68991 0.73968 4.76991C1.73803 5.23125 2.61725 5.91546 3.30968 6.76991C3.61461 7.18021 4.0529 7.4715 4.54926 7.59376C5.04562 7.71603 5.56907 7.66162 6.02968 7.43989H6.14968C6.46214 7.73469 6.79643 8.00546 7.14968 8.24989C8.05088 8.88177 9.1633 9.13657 10.2497 8.95991C10.8997 8.85991 11.5397 8.6599 12.2497 8.5099C12.6861 8.35343 13.1633 8.35343 13.5997 8.5099C13.8434 8.63399 14.0497 8.82074 14.1973 9.05098C14.345 9.28121 14.4286 9.54662 14.4397 9.8199C14.4551 10.3315 14.5874 10.8327 14.8266 11.2851C15.0659 11.7375 15.4056 12.1292 15.8197 12.4299C15.8846 12.4657 15.9327 12.5259 15.9533 12.5971C15.9739 12.6684 15.9654 12.7449 15.9297 12.8099C15.9297 12.8899 15.6997 12.9299 15.5797 12.9199C15.1397 12.9199 14.6997 12.8099 14.2697 12.7299C13.4135 12.5567 12.5339 12.5331 11.6697 12.6599C10.3997 12.8699 9.12968 13.1199 7.85968 13.3699C7.04968 13.5299 6.23968 13.7199 5.43968 13.9099C5.27077 13.962 5.1068 14.0289 4.94968 14.1099C5.10882 14.1835 5.27249 14.247 5.43968 14.2999C6.23968 14.4899 7.04968 14.6799 7.85968 14.8399C9.12968 15.0999 10.3997 15.3399 11.6697 15.5499C12.5336 15.6817 13.4141 15.658 14.2697 15.4799C14.6997 15.3999 15.1397 15.3399 15.5797 15.2899C15.6424 15.2832 15.7059 15.2896 15.7661 15.3085C15.8263 15.3274 15.882 15.3585 15.9297 15.3999C15.9654 15.4649 15.9739 15.5414 15.9533 15.6126C15.9327 15.6839 15.8846 15.7441 15.8197 15.7799C15.4077 16.0827 15.0696 16.4748 14.8306 16.9268C14.5916 17.3788 14.458 17.879 14.4397 18.3899C14.4307 18.6637 14.3479 18.9299 14.2 19.1605C14.0522 19.3911 13.8447 19.5775 13.5997 19.6999C13.1633 19.8564 12.6861 19.8564 12.2497 19.6999C11.5897 19.5599 10.9497 19.3499 10.2497 19.2499C9.16217 19.0815 8.05163 19.3394 7.14968 19.9699C6.79659 20.2109 6.4623 20.4783 6.14968 20.7699C6.11053 20.7816 6.06883 20.7816 6.02968 20.7699C5.56907 20.5482 5.04562 20.4938 4.54926 20.616C4.0529 20.7383 3.61461 21.0296 3.30968 21.4399C2.61502 22.2921 1.73638 22.9758 0.73968 23.4399C0.57968 23.5299 0.12968 23.5799 0.15968 23.7299C0.18968 23.8799 1.91968 23.9499 2.06968 24.0999C2.21968 24.2499 2.11968 25.4399 2.30968 25.6799C2.54968 25.8799 3.75968 25.7799 3.89968 25.9299C4.03968 26.0799 4.10968 27.7999 4.25968 27.8299C4.40968 27.8599 4.48968 27.4799 4.56968 27.3199ZM4.68968 5.60988C4.64493 5.56528 4.60942 5.51234 4.5852 5.45399C4.56097 5.39565 4.5485 5.33308 4.5485 5.26991C4.5485 5.20674 4.56097 5.14417 4.5852 5.08583C4.60942 5.02748 4.64493 4.97448 4.68968 4.92988C4.77931 4.84253 4.89952 4.79365 5.02468 4.79365C5.14984 4.79365 5.27004 4.84253 5.35968 4.92988C5.40443 4.97448 5.43993 5.02748 5.46416 5.08583C5.48839 5.14417 5.50086 5.20674 5.50086 5.26991C5.50086 5.33308 5.48839 5.39565 5.46416 5.45399C5.43993 5.51234 5.40443 5.56528 5.35968 5.60988C5.31667 5.65558 5.26476 5.69204 5.20715 5.71693C5.14954 5.74183 5.08744 5.75465 5.02468 5.75465C4.96192 5.75465 4.89982 5.74183 4.84221 5.71693C4.7846 5.69204 4.73269 5.65558 4.68968 5.60988V5.60988ZM4.68968 23.3799C4.64493 23.3353 4.60942 23.2823 4.5852 23.2239C4.56097 23.1656 4.5485 23.103 4.5485 23.0399C4.5485 22.9767 4.56097 22.9142 4.5852 22.8558C4.60942 22.7975 4.64493 22.7445 4.68968 22.6999C4.77931 22.6126 4.89952 22.5637 5.02468 22.5637C5.14984 22.5637 5.27004 22.6126 5.35968 22.6999C5.40443 22.7445 5.43993 22.7975 5.46416 22.8558C5.48839 22.9142 5.50086 22.9767 5.50086 23.0399C5.50086 23.103 5.48839 23.1656 5.46416 23.2239C5.43993 23.2823 5.40443 23.3353 5.35968 23.3799C5.31667 23.4256 5.26476 23.4621 5.20715 23.4869C5.14954 23.5118 5.08744 23.5247 5.02468 23.5247C4.96192 23.5247 4.89982 23.5118 4.84221 23.4869C4.7846 23.4621 4.73269 23.4256 4.68968 23.3799V23.3799Z" fill="black"/>
</svg>
