<?xml version="1.0" encoding="UTF-8"?><svg id="Layer_1" xmlns="http://www.w3.org/2000/svg" viewBox="0 0 9.98 9.99"><defs><style>.cls-1,.cls-2{fill:#fff;}.cls-2{fill-rule:evenodd;}</style></defs><path class="cls-2" d="M.32,5.77c1.63,.91,2.98,2.26,3.89,3.89,.21,.21,.49,.33,.78,.33s.58-.11,.78-.32c.45-.82,1.01-1.56,1.67-2.22,.66-.66,1.4-1.23,2.22-1.68,.21-.21,.32-.49,.32-.78s-.12-.57-.32-.78c-1.63-.91-2.98-2.26-3.89-3.89-.21-.21-.49-.32-.78-.32s-.57,.12-.78,.32C3.3,1.94,1.95,3.29,.32,4.2c-.21,.21-.32,.49-.32,.78s.12,.57,.32,.78H.32Zm8.01-.78c0,1.85-1.5,3.34-3.34,3.34s-3.34-1.5-3.34-3.34S3.15,1.64,4.99,1.64s3.34,1.5,3.34,3.34Z"/><path class="cls-1" d="M8.2,8.18s0-.96-3.21-.96-3.2,.96-3.2,.96c0,0,.96,0,.96-3.21S1.79,1.77,1.79,1.77c0,0,0,.97,3.2,.97s3.21-.97,3.21-.97c0,0-.97,0-.97,3.21s.97,3.21,.97,3.21h0Z"/><path class="cls-1" d="M6.6,3.37S9.07-.4,9.72,.25c.68,.68-3.12,3.12-3.12,3.12Z"/><path class="cls-1" d="M3.39,3.37S-.38,.9,.27,.25C.94-.42,3.39,3.37,3.39,3.37Z"/><path class="cls-1" d="M3.39,6.56S.91,10.33,.27,9.68c-.67-.67,3.12-3.12,3.12-3.12Z"/><path class="cls-1" d="M6.6,6.56s3.77,2.47,3.12,3.12-3.12-3.12-3.12-3.12Z"/></svg>