<?xml version="1.0" encoding="UTF-8"?><svg id="Layer_1" xmlns="http://www.w3.org/2000/svg" viewBox="0 0 9.99 9.99"><defs><style>.cls-1{fill-rule:evenodd;}</style></defs><path class="cls-1" d="M.32,5.78c1.63,.91,2.98,2.26,3.89,3.89,.21,.21,.49,.33,.78,.33,.29,0,.58-.11,.78-.32,.45-.82,1.01-1.56,1.67-2.22,.66-.66,1.4-1.23,2.22-1.68,.21-.21,.32-.49,.32-.78s-.12-.57-.32-.78c-1.63-.91-2.98-2.26-3.89-3.89-.21-.21-.49-.32-.78-.32s-.57,.12-.78,.32C3.3,1.95,1.95,3.3,.32,4.21c-.21,.21-.32,.49-.32,.78s.12,.57,.32,.78Zm8.01-.79c0,1.85-1.5,3.34-3.34,3.34s-3.34-1.5-3.34-3.34S3.15,1.65,4.99,1.65s3.34,1.5,3.34,3.34Z"/><path d="M8.2,8.19s0-.96-3.21-.96-3.2,.96-3.2,.96c0,0,.96,0,.96-3.21S1.79,1.78,1.79,1.78c0,0,0,.97,3.2,.97s3.21-.97,3.21-.97c0,0-.97,0-.97,3.21s.97,3.21,.97,3.21Z"/><path d="M6.6,3.38S9.07-.39,9.72,.26c.68,.68-3.12,3.12-3.12,3.12Z"/><path d="M3.39,3.38S-.38,.91,.27,.26C.94-.41,3.39,3.38,3.39,3.38Z"/><path d="M3.39,6.57S.91,10.34,.27,9.69c-.67-.67,3.12-3.12,3.12-3.12Z"/><path d="M6.6,6.57s3.77,2.47,3.12,3.12c-.68,.68-3.12-3.12-3.12-3.12Z"/></svg>