<?xml version="1.0" encoding="UTF-8"?><svg id="Layer_1" xmlns="http://www.w3.org/2000/svg" viewBox="0 0 54.04 54.03"><path d="M54.04,.47c-6.65,7.84-13.31,15.69-19.95,23.54-1.46,1.72-3.21,2.8-5.05,.99-1.81-1.83-.73-3.59,.99-5.05,7.85-6.65,15.69-13.3,23.54-19.95"/><path d="M.47,54.03c7.84-6.65,15.69-13.31,23.54-19.95,1.72-1.46,2.8-3.21,.99-5.05-1.83-1.81-3.59-.73-5.05,.99-6.65,7.85-13.3,15.69-19.95,23.54"/><path d="M24.32,20.44C16.8,13.73,8.32,6.54,.64,0c-.1,.12-.19,.23-.29,.34C.24,.45,.12,.54,0,.64c6.53,7.68,13.71,16.16,20.43,23.68,.79,.88,3.01,.48,4.57,.68-.2-1.55,.19-3.77-.69-4.56Z"/><path d="M29.71,33.59c7.52,6.71,16,13.9,23.68,20.43,.1-.12,.19-.23,.29-.34,.11-.1,.23-.19,.34-.29-6.53-7.68-13.71-16.16-20.43-23.68-.79-.88-3.01-.48-4.57-.68,.21,1.55-.19,3.78,.69,4.56Z"/></svg>