<svg width="10" height="11" viewBox="0 0 10 11" fill="none" xmlns="http://www.w3.org/2000/svg">
<g clip-path="url(#clip0_1111:4085)">
<path fill-rule="evenodd" clip-rule="evenodd" d="M0.328161 5.79122C1.9593 6.70331 3.30568 8.04969 4.21777 9.68083C4.42444 9.88873 4.70489 10.0066 4.99803 10.0086C5.29118 10.0107 5.57327 9.89689 5.78287 9.69194C6.22984 8.87545 6.79117 8.12701 7.44985 7.4693C8.10501 6.80464 8.8538 6.2393 9.67248 5.79122C9.87834 5.58315 9.99381 5.30228 9.99381 5.00959C9.99381 4.7169 9.87834 4.43603 9.67248 4.22796C8.04135 3.31587 6.69497 1.96949 5.78287 0.338354C5.57473 0.131933 5.29347 0.0161133 5.00032 0.0161133C4.70718 0.0161133 4.42591 0.131933 4.21777 0.338354C3.30568 1.96949 1.9593 3.31587 0.328161 4.22796C0.122302 4.43603 0.00683594 4.7169 0.00683594 5.00959C0.00683594 5.30228 0.122302 5.58315 0.328161 5.79122ZM8.34263 5.00584C8.34263 6.85122 6.84665 8.3472 5.00127 8.3472C3.15589 8.3472 1.65991 6.85122 1.65991 5.00584C1.65991 3.16046 3.15589 1.66448 5.00127 1.66448C6.84665 1.66448 8.34263 3.16046 8.34263 5.00584Z" fill="#FFFAFA"/>
<path d="M8.20928 8.21015C8.20928 8.21015 8.20928 7.24516 5.00313 7.24516C1.79698 7.24516 1.79883 8.21015 1.79883 8.21015C1.79883 8.21015 2.76382 8.21015 2.76382 5.004C2.76382 1.79785 1.79883 1.79785 1.79883 1.79785C1.79883 1.79785 1.79883 2.7647 5.00313 2.7647C8.20742 2.7647 8.20928 1.79785 8.20928 1.79785C8.20928 1.79785 7.24428 1.79785 7.24428 5.004C7.24428 8.21015 8.20928 8.21015 8.20928 8.21015Z" fill="#FFFAFA"/>
<path d="M6.60449 3.39623C6.60449 3.39623 9.07717 -0.371137 9.72544 0.275279C10.4015 0.95133 6.60449 3.39623 6.60449 3.39623Z" fill="#FFFAFA"/>
<path d="M3.39332 3.39801C3.39332 3.39801 -0.374049 0.925332 0.27422 0.278916C0.946566 -0.397135 3.39332 3.39801 3.39332 3.39801Z" fill="#FFFAFA"/>
<path d="M3.39275 6.58765C3.39275 6.58765 0.920066 10.355 0.27365 9.70674C-0.400548 9.0381 3.39275 6.58765 3.39275 6.58765Z" fill="#FFFAFA"/>
<path d="M6.61035 6.58398C6.61035 6.58398 10.3759 9.05667 9.72945 9.70493C9.0534 10.381 6.61035 6.58398 6.61035 6.58398Z" fill="#FFFAFA"/>
</g>
<defs>
<clipPath id="clip0_1111:4085">
<rect width="10" height="10" fill="white" transform="translate(0 0.00488281)"/>
</clipPath>
</defs>
</svg>
