<svg width="9" height="9" viewBox="0 0 9 9" fill="none" xmlns="http://www.w3.org/2000/svg">
<path d="M5.24098 4.51068C5.24098 4.51068 5.24098 4.24974 5.24098 3.74795C5.24098 3.24615 5.21804 2.47768 6.42809 2.47768C7.63814 2.47768 8.5213 2.28269 8.5213 1.48555C8.5213 0.688409 7.92775 0.527832 7.75284 0.527832C7.57792 0.527832 7.25104 0.705612 7.25104 1.07838C7.25104 1.45114 7.67828 1.57731 7.91341 1.25616C7.91341 1.25616 8.30912 1.7981 4.76212 1.7981C1.21512 1.7981 1.61083 1.25616 1.61083 1.25616C1.84596 1.57731 2.2732 1.45114 2.2732 1.07838C2.2732 0.705612 1.94632 0.527832 1.7714 0.527832C1.59649 0.527832 1.00293 0.688409 1.00293 1.48555C1.00293 2.28269 1.8861 2.47768 3.09615 2.47768C4.3062 2.47768 4.28326 3.24901 4.28326 3.74795C4.28326 4.24688 4.28326 4.51068 4.28326 4.51068V4.40172C4.28326 4.40172 4.28326 4.66265 4.28326 5.16445C4.28326 5.66338 4.3062 6.43472 3.09615 6.43472C1.8861 6.43472 1.00293 6.6297 1.00293 7.42684C1.00293 8.22399 1.59649 8.38456 1.7714 8.38456C1.94632 8.38456 2.2732 8.20678 2.2732 7.83402C2.2732 7.46125 1.84596 7.33509 1.61083 7.65624C1.61083 7.65624 1.21512 7.1143 4.76212 7.1143C8.30912 7.1143 7.91341 7.65624 7.91341 7.65624C7.67828 7.33509 7.25104 7.46125 7.25104 7.83402C7.25104 8.20678 7.57792 8.38456 7.75284 8.38456C7.92775 8.38456 8.5213 8.22399 8.5213 7.42684C8.5213 6.6297 7.63814 6.43472 6.42809 6.43472C5.21804 6.43472 5.24098 5.66338 5.24098 5.16445C5.24098 4.66552 5.24098 4.40172 5.24098 4.40172" fill="#4E534A"/>
<path d="M4.81683 3.97759C4.81683 3.97759 4.5559 3.97759 4.0541 3.97759C3.5523 3.97759 2.78383 4.00053 2.78383 2.79048C2.78383 1.58043 2.58884 0.697266 1.7917 0.697266C0.994559 0.697266 0.833984 1.29082 0.833984 1.46573C0.833984 1.64065 1.01177 1.96753 1.38453 1.96753C1.7573 1.96753 1.88346 1.54029 1.56231 1.30516C1.56231 1.30516 2.10426 0.909455 2.10426 4.45645C2.10426 8.00345 1.56231 7.60775 1.56231 7.60775C1.88346 7.37262 1.7573 6.94537 1.38453 6.94537C1.01177 6.94537 0.833984 7.27226 0.833984 7.44717C0.833984 7.62208 0.994559 8.21564 1.7917 8.21564C2.58884 8.21564 2.78383 7.33247 2.78383 6.12242C2.78383 4.91237 3.55517 4.93531 4.0541 4.93531C4.55303 4.93531 4.81683 4.93531 4.81683 4.93531H4.70787C4.70787 4.93531 4.96881 4.93531 5.4706 4.93531C5.9724 4.93531 6.74087 4.91237 6.74087 6.12242C6.74087 7.33247 6.93585 8.21564 7.73299 8.21564C8.53014 8.21564 8.69071 7.62208 8.69071 7.44717C8.69071 7.27226 8.51294 6.94537 8.14017 6.94537C7.76741 6.94537 7.64124 7.37262 7.96239 7.60775C7.96239 7.60775 7.42045 8.00345 7.42045 4.45645C7.42045 0.909455 7.96239 1.30516 7.96239 1.30516C7.64124 1.54029 7.76741 1.96753 8.14017 1.96753C8.51294 1.96753 8.69071 1.64065 8.69071 1.46573C8.69071 1.29082 8.53014 0.697266 7.73299 0.697266C6.93585 0.697266 6.74087 1.58043 6.74087 2.79048C6.74087 4.00053 5.96954 3.97759 5.4706 3.97759C4.97167 3.97759 4.70787 3.97759 4.70787 3.97759" fill="#4E534A"/>
</svg>
