<svg width="55" height="55" viewBox="0 0 55 55" fill="none" xmlns="http://www.w3.org/2000/svg">
<path d="M54.0398 0.470001C47.3898 8.31 40.7298 16.16 34.0898 24.01C32.6298 25.73 30.8798 26.81 29.0398 25C27.2298 23.17 28.3098 21.41 30.0298 19.95C37.8798 13.3 45.7198 6.65 53.5698 0" fill="#FFFAFA"/>
<path d="M0.47 54.03C8.31 47.38 16.16 40.7201 24.01 34.0801C25.73 32.6201 26.81 30.87 25 29.03C23.17 27.22 21.41 28.3001 19.95 30.0201C13.3 37.8701 6.65 45.71 0 53.56" fill="#FFFAFA"/>
<path d="M24.3198 20.44C16.7998 13.73 8.31977 6.54001 0.639766 0.0100098C0.539766 0.13001 0.449766 0.240021 0.349766 0.350021C0.239766 0.450021 0.119766 0.540015 0.00976562 0.640015C6.53977 8.32001 13.7198 16.8 20.4398 24.32C21.2298 25.2 23.4498 24.8 25.0098 25C24.8098 23.45 25.1998 21.23 24.3198 20.44Z" fill="#FFFAFA"/>
<path d="M29.7095 33.59C37.2295 40.3 45.7095 47.49 53.3895 54.02C53.4895 53.9 53.5795 53.79 53.6795 53.68C53.7895 53.58 53.9095 53.49 54.0195 53.39C47.4895 45.71 40.3095 37.23 33.5895 29.71C32.7995 28.83 30.5795 29.23 29.0195 29.03C29.2295 30.58 28.8295 32.81 29.7095 33.59Z" fill="#FFFAFA"/>
</svg>
