<?xml version="1.0" encoding="UTF-8"?><svg id="Layer_1" xmlns="http://www.w3.org/2000/svg" viewBox="0 0 65 59.01"><path d="M40.2,41.57c.23,3.28,.78,5.85,1.89,6.59-1.61-.08-2.75-2.57-3.48-5.99-.08,3.79-.15,6.95-.07,8.1-.5-1.27-1.07-4.6-1.48-8.52-.02,3.45,.1,7.27,.86,9.72-1.16-2.15-2.24-5.81-2.79-9.23,.23,3.94,.81,8.07,2.29,10.72-2.04-2.23-3.55-6.78-4.31-11.14,.73,4.1,1.44,8.09,2,10.86-.66-1.03-2.01-4.78-3.34-9.22,.08,4.76,.56,8.92,2.03,9.89-1.81-.1-3.05-3.24-3.74-7.34-.3,3.87-.16,7.08,1.07,7.76,.15,.07,.3,.12,.46,.15-.17-.01-.32-.06-.46-.15-1.75-.82-2.55-4.73-2.64-9.15-.45,4.11-.5,7.78,.69,8.46-1.43-.69-2.07-3.97-2.17-7.75-1.47,1.92-2.5,5.39,.1,8.54,2.91,3.54,1.89,1.52,5.12,3.86,3.23,2.34,8.73,1.65,11.26-3.54,2.54-5.19,3.17-8.03,4.11-9.05,.92-.96-5.01-.93-7.4-3.57Z"/><path d="M48.58,32.87c.55,0-.15-.49-.25-.56-.42-.29-1.07-.49-1.59-.49s.15,.49,.25,.56c.42,.28,1.07,.49,1.59,.49Z"/><path d="M41.8,19.64s1.95-4.53,7.21-5.24c5.24-.72,7.35,3.6,8.64,5.24,1.29,1.64,6.79,4.22,7.3,7.41,.51,3.19-2.83,.3-9.57,10.13-6.73,9.83-15.32-.21-15.32-.21,0,0,.51-1.13,2.06-.62,1.54,.51,4.84,2.32,7.21,2.21,0,0-5.4-2.62-6.79-4.57,0,0,3.91,2.83,10.01,1.75,0,0-6.15-1.38-9.49-3.7,0,0,4.57,1.59,10.13,.98,0,0-5.03-.57-8.95-3.19,0,0,7,1.75,11.83,1.24,0,0-8.7-1.75-9.67-2.57,0,0,5.97,.01,8.18-.58,0,0-6.64-.86-8.8-2.91,0,0,5.98,.78,10.45-1.07,0,0-4.68-2.06-9.92-.73,0,0,1.9-1.9,9.05-3.03,0,0-5.71-.67-9.97,.78,0,0,3.08-2.83,6.84-3.55-.01-.02-5.01-1.98-10.41,2.24Z"/><path d="M42.61,21.99s-5.2-6.24-13.35-4.77c-8.14,1.47-7.89,6.79-9.18,6.73-1.3-.06-7.11,.7-6.24,4.57,.86,3.86,5.11,4.94,7.01,5.96,1.9,1.02,2.17,7.1,13.26,6.58,0,0-2.07-.02-4.29-1.54,0,0,4.19-.19,5.58-1.14,0,0-6.28,.57-8.82-.32,0,0,9.64-.83,12.87-3.3,0,0-7.8,1.84-10.79,1.4,0,0,8.37-2.85,9.64-2.85,0,0-8.25-.51-9.71,.06,0,0,9.2-2.79,11.54-2.85,0,0-11.22,.51-13.7-.38,0,0,12.18-.57,15.03-2.22,0,0-10.4,0-12.87-.89,0,0,4.38-1.61,11.16-1.29,0,0-5.84-1.64-11.1-2.07,0,0,3.11-1.2,10.59-1.27,0,0-8.67-2.47-11.09-2.28,0-.01,5.08-2.41,14.44,1.87Z"/><path d="M34.3,14.62s.49-11.89,2.04-12.3c1.56-.42,7.39-.59,8.76-1.69,1.38-1.08,2.04-.78,3.24,.84,1.2,1.63,6.66,5.4,6.54,6.72-.12,1.32-.06,4.62-2.46,4.38,0,0,1.73-1.44,.84-2.28,0,0-4.2,2.58-5.34,2.71,0,0,3.79-3.79,3.48-4.68,0,0-6.25,5.07-7.17,5.3,0,0,3.83-4.16,3.81-6.32,0,0-6.19,5.53-7.01,6.98,0,0,2.88-6.71,4.6-8.43,0,0-5.48,4.67-6.33,6.88,0,0,2.46-6.37,2.8-7.52,0,0-4.21,3.19-4.63,7.05,0,0-.05-4.33,.34-5.31,.4-.95-3.53,3.92-3.49,7.69Z"/><path d="M9.58,27.06s-2.79-1.02-3.81-.51c-1.02,.51-1.31,3.05-2.2,3.59-.89,.55-3.09,1.82-2.07,3.59,1.02,1.77,.42,4.43,2.03,4.53,1.75,.11,5.03-3.18,6.05-3.09,0,0-2.62,.04-4.17,.17,0,0,2.26-1.5,6.5-3.01,0,0-5.24,.79-6.26,.79,0,0,4.31-2.23,5.33-2.23,0,0-2.92-.63-5.41,.17,0,0,3.76-2.24,5.24-2.16,0,0-2.2-.56-4.44-.29,0,.02,.21-1.42,3.21-1.54Z"/><path d="M15.99,20.97s-4.48-4.66-5.6-5.86c-1.12-1.2-3.8,.25-5.17,0-1.38-.25-3.8,1.38-3.7,3.7,.08,2.33-.95,3.46-1.47,4.23-.52,.78,3.7,2.75,7.97,2.49,0,0-3.43-.93-4.67-2.49,0,0,2.91,.92,4.65,.84,0,0-3.52-1.58-4.05-3.43,0,0,4.74,2.74,6.92,2.74,0,0-4.83-2.35-5.52-4.02,0,0,5.98,3.24,7.68,2.55,0,0-4.61-2.2-5.84-4.4,0,0,7,3.7,8.81,3.65Z"/><path d="M17.36,35.36s-2.05-1.21-4.5,0c-2.45,1.21-6.89,3.85-6.2,4.83,.68,.98,0,5.33,.62,6.7,.62,1.37,5.54,.72,7.05,1.93,1.5,1.21,7.61,4.17,11.85-4.38,0,0-3.13,3.69-5.81,3.26,0,0,2.09-3.4,1.7-4.5,0,0-3.11,4.15-4.4,4.17,0,0,.72-3.63,2.58-5.06,0,0-5.13,1.95-6.33,3.92,0,0,3.3-4.48,5.25-5.68,0,0-7.28,3.11-7.67,3.85,0,0,.23-2.12,6.56-4.73,0,0-4.96,0-6.2,1.04,0,0,2.18-2.28,7.96-3.17,0,0-5.91-.68-8.13,.46-.02,0,1.46-2.51,5.67-2.64Z"/><path d="M32.18,14.96s2.24-7.55-1.77-8.2c-4.02-.66-2.18-2.83-7.19-1.71-5.01,1.12-7.55-.18-9.44,3.01-1.89,3.19-.95,3.3-1.77,4.31-.82,1.01,1.71,5.22,5.96,6.42,0,0-4.6-3.17-4.19-6.05,0,0,3.01,3.65,4.89,4.19,0,0-3.19-4.25-3.54-6.14,0,0,4.25,5.01,5.54,5.36,0,0-4.06-6.6-3.01-6.66,0,0,4.6,5.31,5.48,5.36,0,0-2.77-7.25-1.94-7.25,0,0,4.25,5.19,4.6,6.49,0,0-.95-5.48-1.77-6.72,0,0,2.89,3.71,3.6,6.66,0,0-.12-5.48-.7-6.49,0,0,2.31,2.83,2.72,6.43,0,0,.89-2.95,.76-4.19l1.77,5.19Z"/></svg>