<?xml version="1.0" encoding="UTF-8"?><svg id="Layer_1" xmlns="http://www.w3.org/2000/svg" viewBox="0 0 45.04 65"><path d="M37.1,15.07C34.07,10.68,25.29-.51,24.76,.02c-.53,.53,0,7.69,0,7.69,0,0,8.65,7.36,11.55,15.49,2.9,8.13-2.71,7.94-10.26,4.46,0,0-1.94,2.18-1.94,4.84s1.94,4.84,1.94,4.84c7.55-3.48,13.17-3.67,10.26,4.46-2.9,8.13-11.55,15.49-11.55,15.49,0,0-.54,7.14,0,7.69,.54,.54,9.3-10.65,12.34-15.05,3.02-4.39,7.94-13.11,7.94-17.43s-4.9-13.05-7.94-17.43Zm-10.29,13.14c2.37,1.08,5.18,2.24,7.86,2.01,5.33-.46,1.92-8.26,.58-10.77-2.41-4.51-5.84-8.48-9.57-11.96-.12-.12,.66-.45,.83-.3,2.16,2.01,4.17,4.19,5.98,6.52,2.12,2.72,4.02,5.7,5.17,8.98,.65,1.88,1.4,4.59,.01,6.35-.98,1.25-2.76,1.58-4.26,1.55-2.58-.05-5.12-1.02-7.43-2.08-.07-.02,.61-.39,.84-.29Zm10.24,15.31c-2.33,5.36-6.34,10.01-10.57,13.98-.16,.14-.96,.24-.8,.07,1.9-1.78,3.69-3.69,5.34-5.71,1.86-2.29,3.55-4.76,4.82-7.43,1-2.11,2.12-4.81,1.58-7.18-1.07-4.75-8.1-1.9-10.78-.69-.2,.1-1.02,.13-.51-.11,2.49-1.13,5.26-2.2,8.04-2.18,1.59,.01,3.25,.51,3.93,2.08,.94,2.24-.16,5.12-1.05,7.17Z"/><path d="M0,32.5c0,4.33,4.9,13.04,7.94,17.43,3.02,4.39,11.79,15.59,12.34,15.05,.54-.54,0-7.69,0-7.69,0,0-8.65-7.36-11.55-15.49-2.9-8.13,2.71-7.94,10.26-4.46,0,0,1.94-2.18,1.94-4.84s-1.94-4.84-1.94-4.84c-7.55,3.48-13.17,3.67-10.26-4.46,2.9-8.13,11.55-15.49,11.55-15.49,0,0,.53-7.14,0-7.69-.53-.53-9.3,10.65-12.34,15.05C4.9,19.45,0,28.17,0,32.5Zm19.06-3.99c-2.31,1.06-4.86,2.04-7.43,2.08-1.49,.02-3.28-.3-4.26-1.55-1.39-1.76-.65-4.47,.01-6.35,1.14-3.28,3.05-6.25,5.17-8.98,1.82-2.33,3.83-4.51,5.98-6.52,.17-.16,.95,.18,.83,.3-3.71,3.48-7.16,7.46-9.57,11.96-1.34,2.51-4.75,10.31,.58,10.77,2.67,.23,5.48-.93,7.86-2.01,.24-.11,.93,.25,.84,.29Zm-12.12,7.87c.66-1.58,2.34-2.07,3.93-2.08,2.78-.02,5.55,1.05,8.04,2.18,.52,.24-.3,.19-.51,.11-2.7-1.23-9.71-4.07-10.78,.69-.54,2.39,.58,5.07,1.58,7.18,1.27,2.67,2.96,5.13,4.82,7.43,1.64,2.02,3.43,3.93,5.34,5.71,.17,.16-.64,.07-.8-.07-4.23-3.96-8.24-8.63-10.57-13.98-.89-2.07-1.99-4.95-1.05-7.17Z"/></svg>