<svg width="54" height="45" viewBox="0 0 54 45" fill="none" xmlns="http://www.w3.org/2000/svg">
<g clip-path="url(#clip0_923_4859)">
<path d="M21.3098 17.17C21.2288 16.5549 20.9679 15.9774 20.5598 15.51C20.2329 15.1355 19.8258 14.8394 19.3688 14.6438C18.9117 14.4481 18.4165 14.358 17.9199 14.38C17.298 14.3836 16.6874 14.5452 16.1451 14.8496C15.6029 15.1539 15.1468 15.5911 14.8199 16.12C13.7499 17.74 12.7398 19.4 11.7098 21.04C11.5998 21.2 11.4699 21.35 11.2899 21.59C11.2899 21.64 11.2899 7.30998 11.2899 6.41998C11.3425 6.31912 11.4268 6.23831 11.5298 6.18997C12.5898 6.00997 13.0499 4.65997 12.9499 3.84997C12.8375 2.78068 12.9709 1.69986 13.3398 0.689965C13.3898 0.519965 13.6699 0.169959 13.5399 0.0899593C13.4099 0.00995934 12.1698 1.14996 11.9698 1.14996C11.7698 1.14996 10.9699 0.249974 10.6999 0.229974C10.3999 0.229974 9.62984 1.14996 9.42984 1.14996C9.22984 1.14996 7.99984 0.00995934 7.86984 0.0899593C7.73984 0.169959 8.00984 0.519965 8.05984 0.689965C8.42877 1.69986 8.56217 2.78068 8.44986 3.84997C8.34986 4.65997 8.80984 6.00997 9.86984 6.18997C9.92404 6.21159 9.97326 6.24404 10.0145 6.2853C10.0558 6.32656 10.0882 6.37579 10.1098 6.42999C10.1098 7.42999 10.1098 21.64 10.1098 21.59C9.93983 21.35 9.80986 21.2 9.69986 21.04C8.69986 19.4 7.64983 17.74 6.57983 16.12C6.25373 15.5925 5.79929 15.1563 5.25894 14.852C4.71859 14.5477 4.10995 14.3853 3.48984 14.38C2.99318 14.358 2.49796 14.4481 2.04092 14.6438C1.58389 14.8394 1.17679 15.1355 0.849851 15.51C0.441826 15.9774 0.180915 16.5549 0.0998514 17.17C-0.0401486 18.74 0.749832 19.51 2.32983 19.93C2.528 19.9653 2.7286 19.9854 2.92984 19.99L2.99985 19.8C2.72745 19.6649 2.46658 19.5077 2.21985 19.33C1.77864 19.0285 1.39293 18.653 1.07983 18.22C0.975902 17.9862 0.924498 17.7325 0.929228 17.4767C0.933957 17.2209 0.994705 16.9693 1.10721 16.7395C1.21971 16.5097 1.38124 16.3074 1.58038 16.1468C1.77953 15.9862 2.01147 15.8712 2.25986 15.81L2.77984 15.64C3.29864 15.5201 3.84162 15.5612 4.33648 15.7577C4.83135 15.9542 5.25459 16.2969 5.54983 16.74C6.03983 17.5 6.46984 18.3 6.89984 19.09C7.32984 19.88 7.56984 20.49 7.95984 21.16C8.34984 21.83 9.48984 22.54 9.48984 23.32C9.48984 25.25 7.68983 22.32 7.38983 23.64C7.26983 24.14 7.12984 24.64 7.05984 25.14C6.94984 25.99 7.49984 26.39 8.27984 26.03C8.55112 25.8718 8.80868 25.6911 9.04983 25.49C9.21659 25.3579 9.41321 25.2688 9.62243 25.2305C9.83165 25.1921 10.0471 25.2057 10.2498 25.27C10.1007 26.3511 10.0072 27.4392 9.96985 28.53C9.96985 29.67 10.4898 35.53 10.7698 35.53C11.0498 35.53 11.5598 29.66 11.5598 28.53C11.5598 27.59 11.3599 25.85 11.2899 25.27C11.4927 25.2066 11.708 25.1934 11.917 25.2317C12.1261 25.2701 12.3227 25.3587 12.4898 25.49C12.731 25.6911 12.9886 25.8718 13.2599 26.03C14.0399 26.39 14.5898 26.03 14.4698 25.14C14.393 24.6341 14.2861 24.1332 14.1498 23.64C13.8398 22.28 12.0298 25.25 12.0498 23.32C12.0498 22.54 13.1798 21.83 13.5798 21.16C13.9798 20.49 14.2698 19.77 14.6398 19.09C15.0098 18.41 15.4998 17.5 15.9898 16.74C16.2851 16.2969 16.7083 15.9542 17.2032 15.7577C17.698 15.5612 18.2411 15.5201 18.7599 15.64V15.64L19.2798 15.81C19.5273 15.8728 19.7581 15.9887 19.9563 16.1496C20.1544 16.3105 20.3153 16.5126 20.4275 16.7419C20.5398 16.9712 20.6008 17.2222 20.6064 17.4774C20.612 17.7326 20.562 17.986 20.4598 18.22C20.1441 18.6507 19.7588 19.0258 19.3199 19.33C19.0731 19.5077 18.8122 19.6649 18.5399 19.8L18.6098 19.99C18.8111 19.9854 19.0117 19.9653 19.2098 19.93C20.6598 19.51 21.4498 18.79 21.3098 17.17Z" fill="black"/>
<path d="M53.6104 17.0801C53.5393 16.4671 53.2809 15.8909 52.8704 15.4301C52.5449 15.0532 52.1383 14.7548 51.6811 14.5574C51.2239 14.36 50.728 14.2686 50.2304 14.2901C49.6079 14.2957 48.9969 14.4592 48.4547 14.7653C47.9126 15.0714 47.4569 15.51 47.1304 16.0401C46.0604 17.6601 45.0504 19.3201 44.0104 20.9601C43.9104 21.1201 43.7804 21.2701 43.6004 21.5001C43.6004 21.5601 43.6004 7.2201 43.6004 6.3301C43.6238 6.2793 43.657 6.23366 43.6982 6.19588C43.7394 6.15811 43.7878 6.12895 43.8404 6.1101C44.9004 5.9201 45.3604 4.57009 45.2604 3.76009C45.1488 2.69081 45.2822 1.61015 45.6504 0.600088C45.7004 0.430088 45.9704 0.0800821 45.8404 8.21445e-05C45.7104 -0.0799179 44.4804 1.07009 44.2704 1.07009C44.0604 1.07009 43.2704 0.170097 43.0104 0.140097C42.7004 0.140097 41.9404 1.07009 41.7404 1.07009C41.5404 1.07009 40.3004 -0.0799179 40.1704 8.21445e-05C40.0404 0.0800821 40.3204 0.430088 40.3704 0.600088C40.7387 1.61015 40.872 2.69081 40.7604 3.76009C40.6604 4.57009 41.1204 5.9201 42.1804 6.1101C42.2604 6.1101 42.3604 6.23008 42.4204 6.34008C42.4204 7.34008 42.4204 21.5601 42.4204 21.5001C42.2404 21.2701 42.1104 21.1201 42.0104 20.9601C41.0104 19.3201 39.9604 17.6601 38.8904 16.0401C38.5639 15.51 38.1083 15.0714 37.5661 14.7653C37.0239 14.4592 36.413 14.2957 35.7904 14.2901C35.2944 14.2686 34.7999 14.3601 34.3443 14.5576C33.8887 14.7551 33.4839 15.0534 33.1604 15.4301C32.7463 15.8896 32.4843 16.4659 32.4104 17.0801C32.2604 18.6501 33.0604 19.4301 34.6404 19.8401C34.8352 19.8754 35.0325 19.8955 35.2304 19.9001L35.3104 19.7101C35.037 19.5807 34.776 19.4267 34.5304 19.2501C34.0886 18.9459 33.7 18.5709 33.3804 18.1401C33.2783 17.9054 33.2283 17.6514 33.2338 17.3955C33.2393 17.1397 33.3003 16.888 33.4124 16.658C33.5246 16.428 33.6853 16.225 33.8835 16.0631C34.0817 15.9011 34.3126 15.7841 34.5604 15.7201L35.0804 15.5601C35.5982 15.4378 36.141 15.4767 36.636 15.6715C37.1311 15.8663 37.5548 16.2077 37.8504 16.6501C38.3304 17.4101 38.7604 18.2101 39.1904 19.0001C39.6204 19.7901 39.8704 20.4001 40.2604 21.0701C40.6504 21.7401 41.7804 22.4601 41.7904 23.2301C41.7904 25.1701 39.9904 22.2301 39.6804 23.5601C39.5704 24.0501 39.4304 24.5601 39.3604 25.0501C39.2504 25.9001 39.8004 26.3001 40.5804 25.9401C40.8515 25.7854 41.1091 25.6081 41.3504 25.4101C41.5148 25.2772 41.7092 25.1867 41.9167 25.1466C42.1242 25.1065 42.3384 25.118 42.5404 25.1801C42.4704 25.7501 42.2604 27.5101 42.2604 28.4501C42.2604 29.5901 42.7904 35.4501 43.0604 35.4501C43.3304 35.4501 43.8604 29.5901 43.8604 28.4501C43.8604 27.5101 43.6504 25.7601 43.5804 25.1801C43.7854 25.1154 44.0032 25.1026 44.2144 25.1427C44.4255 25.1828 44.6235 25.2747 44.7904 25.4101C45.0283 25.6079 45.2825 25.7852 45.5504 25.9401C46.3304 26.3001 46.8804 25.9401 46.7704 25.0501C46.6887 24.5484 46.582 24.0511 46.4504 23.5601C46.1404 22.1901 44.3304 25.1701 44.3404 23.2301C44.3404 22.4601 45.4804 21.7501 45.8804 21.0701C46.2804 20.3901 46.5704 19.6901 46.9404 19.0001C47.3104 18.3101 47.8004 17.4101 48.2904 16.6501C48.586 16.2077 49.0097 15.8663 49.5048 15.6715C49.9999 15.4767 50.5426 15.4378 51.0604 15.5601V15.5601L51.5804 15.7201C51.8282 15.7841 52.0592 15.9011 52.2574 16.0631C52.4555 16.225 52.6163 16.428 52.7284 16.658C52.8406 16.888 52.9015 17.1397 52.907 17.3955C52.9126 17.6514 52.8626 17.9054 52.7604 18.1401C52.2493 18.8038 51.5924 19.341 50.8404 19.7101L50.9104 19.9001C51.1117 19.8955 51.3123 19.8754 51.5104 19.8401C52.9604 19.4301 53.7804 18.6501 53.6104 17.0801Z" fill="black"/>
<path d="M37.4597 25.79C37.3828 25.1737 37.1214 24.5951 36.7097 24.13C36.3843 23.7563 35.9789 23.4606 35.5237 23.265C35.0684 23.0694 34.5748 22.9788 34.0797 23C33.4579 23.0036 32.8473 23.1652 32.305 23.4696C31.7628 23.7739 31.3068 24.2111 30.9798 24.74C29.9098 26.36 28.8997 28.02 27.8597 29.66C27.7597 29.83 27.6298 29.97 27.4498 30.21C27.4498 30.27 27.4498 15.93 27.4498 15.04C27.4959 14.9379 27.5776 14.8561 27.6797 14.81C28.7497 14.63 29.2098 13.28 29.0998 12.47C28.9874 11.4007 29.1208 10.3199 29.4897 9.30999C29.5497 9.13999 29.8198 8.79001 29.6898 8.71001C29.5598 8.63001 28.2797 9.79 28.0797 9.79C27.8797 9.79 27.0798 8.88998 26.8198 8.86998C26.5198 8.86998 25.7598 9.79 25.5598 9.79C25.3598 9.79 24.1197 8.65 23.9897 8.73C23.8597 8.81 24.1298 9.16001 24.1898 9.33001C24.5506 10.3418 24.6804 11.4215 24.5698 12.49C24.4698 13.3 24.9297 14.65 25.9897 14.83C26.1001 14.8761 26.1892 14.9617 26.2397 15.07C26.2397 16.07 26.2397 30.29 26.2397 30.23C26.0597 29.99 25.9297 29.85 25.8297 29.68C24.8297 28.04 23.7797 26.38 22.7097 24.76C22.3828 24.2311 21.9267 23.794 21.3845 23.4896C20.8422 23.1853 20.2316 23.0237 19.6097 23.02C19.1132 22.9987 18.6182 23.0892 18.1613 23.2848C17.7043 23.4804 17.2972 23.776 16.9698 24.15C16.5607 24.6156 16.3026 25.1945 16.2298 25.81C16.0798 27.38 16.8798 28.15 18.4498 28.57C18.6479 28.6053 18.8485 28.6254 19.0497 28.63L19.1198 28.44C18.8472 28.3109 18.5892 28.1533 18.3498 27.97C17.9082 27.6694 17.5196 27.2977 17.1998 26.87C17.0976 26.6353 17.0476 26.3813 17.0531 26.1254C17.0587 25.8696 17.1196 25.618 17.2318 25.3879C17.3439 25.1579 17.5047 24.9549 17.7029 24.793C17.901 24.6311 18.132 24.514 18.3798 24.45L18.8997 24.28C19.4185 24.1601 19.9615 24.2012 20.4564 24.3978C20.9513 24.5943 21.3745 24.9369 21.6698 25.38C22.1598 26.14 22.5897 26.94 23.0197 27.73C23.4497 28.52 23.6897 29.13 24.0797 29.8C24.4697 30.47 25.6098 31.19 25.6198 31.96C25.6198 33.89 23.8198 30.96 23.5098 32.28C23.3998 32.78 23.2498 33.28 23.1898 33.78C23.0798 34.63 23.6298 35.03 24.4098 34.67C24.6778 34.5117 24.9321 34.331 25.1698 34.13C25.3365 33.9979 25.5331 33.9088 25.7423 33.8705C25.9516 33.8321 26.167 33.8457 26.3698 33.91C26.2998 34.48 26.0898 36.23 26.0898 37.17C26.0898 38.31 26.6097 44.17 26.8897 44.17C27.1697 44.17 27.6898 38.3 27.6898 37.17C27.6898 36.23 27.4798 34.49 27.4098 33.91C27.6125 33.8457 27.828 33.8321 28.0372 33.8705C28.2464 33.9088 28.443 33.9979 28.6097 34.13C28.8509 34.3312 29.1085 34.5118 29.3798 34.67C30.1598 35.03 30.7098 34.67 30.5998 33.78C30.5298 33.28 30.3898 32.78 30.2798 32.28C29.9698 30.92 28.1498 33.89 28.1698 31.96C28.1698 31.19 29.3098 30.47 29.6998 29.8C30.0898 29.13 30.3997 28.41 30.7697 27.73C31.1397 27.05 31.6297 26.14 32.1097 25.38C32.405 24.9369 32.8282 24.5943 33.3231 24.3978C33.818 24.2012 34.361 24.1601 34.8798 24.28V24.28L35.3997 24.45C35.6475 24.514 35.8785 24.6311 36.0767 24.793C36.2748 24.9549 36.4356 25.1579 36.5477 25.3879C36.6599 25.618 36.7209 25.8696 36.7264 26.1254C36.7319 26.3813 36.6819 26.6353 36.5797 26.87C36.2599 27.2977 35.8713 27.6694 35.4297 27.97C35.1868 28.1534 34.9254 28.3109 34.6497 28.44L34.7298 28.63C34.9277 28.6254 35.125 28.6053 35.3198 28.57C36.7798 28.11 37.6097 27.34 37.4597 25.79Z" fill="black"/>
</g>
<defs>
<clipPath id="clip0_923_4859">
<rect width="53.63" height="44.15" fill="white"/>
</clipPath>
</defs>
</svg>
