<?xml version="1.0" encoding="UTF-8"?><svg id="Layer_1" xmlns="http://www.w3.org/2000/svg" viewBox="0 0 65 65"><path d="M9.94,19.81c4.84,9.22,6.72,21.8,6,28.5-.57,5.33-6.12,17.73-12.15,16.63-6.03-1.11-3.25-11.76-2.48-14.62,2.83-10.45,9.93-15.44,8.63-30.51Z"/><path d="M14.87,14.87L52.17,52.16c12.22-12.21-26.8-31.62-37.3-37.29Z"/><path d="M52.17,52.17L14.88,14.87c5.66,10.5,25.07,49.52,37.29,37.3Z"/><path d="M19.81,9.94c9.22,4.84,21.8,6.72,28.5,6,5.33-.57,17.73-6.12,16.63-12.15-1.11-6.03-11.76-3.25-14.62-2.48-10.45,2.83-15.44,9.92-30.51,8.63Z"/></svg>