<?xml version="1.0" encoding="UTF-8"?><svg id="Layer_1" xmlns="http://www.w3.org/2000/svg" viewBox="0 0 62.59 65"><path d="M31.28,65c-3.72,0-13.31-11.71-15.19-14.06C9.06,42.18-2.32,25.66,.42,13.37,1.91,6.63,6.87-.9,15.88,.09c7.13,.78,12.51,6.75,12.51,13.89,0,4.17-1.32,7.55-3.94,10.05-2.32,2.23-5.25,3.29-7.63,3.79,.63,.98,1.38,1.84,2.18,2.24,.49,.24,.94,.25,1.49,.05,1.72-.63,2.85-1.11,3.77-1.49,2.46-1.05,3.49-1.4,7.03-1.4s4.57,.36,7.03,1.4c.91,.39,2.05,.87,3.77,1.49,.55,.2,1,.19,1.49-.05,.79-.39,1.55-1.26,2.18-2.24-2.4-.51-5.31-1.56-7.63-3.79-2.61-2.5-3.94-5.89-3.94-10.05C34.19,6.84,39.58,.86,46.7,.09c9.02-1,13.98,6.54,15.47,13.27,2.73,12.29-8.64,28.82-15.67,37.57-1.9,2.36-11.5,14.07-15.22,14.07ZM14.4,5.78c-4.02,0-7.11,3.24-8.35,8.84-1.36,6.15,2.29,15.77,10.28,27.06,5.98,8.45,12.38,14.99,14.95,17.08,2.58-2.09,8.98-8.64,14.95-17.08,7.99-11.3,11.64-20.91,10.28-27.06-1.32-5.98-4.78-9.27-9.21-8.79-3.56,.39-7.36,3.38-7.36,8.16,0,2.55,.7,4.47,2.14,5.86,2.89,2.79,7.86,2.66,7.92,2.65l4.12-.14-1.25,3.91c-.22,.69-2.3,6.8-6.75,8.97-1.9,.93-3.97,1.04-6.01,.29-1.87-.67-3.13-1.22-4.06-1.6-1.97-.83-2.23-.94-4.78-.94s-2.8,.11-4.78,.94c-.93,.39-2.18,.93-4.04,1.6-2.03,.73-4.11,.64-6.01-.29-4.45-2.18-6.54-8.28-6.75-8.97l-1.28-3.95,4.15,.18s5.02,.14,7.91-2.65c1.44-1.4,2.14-3.31,2.14-5.86,0-4.78-3.79-7.76-7.36-8.16-.31-.04-.59-.05-.87-.05Z"/></svg>