<?xml version="1.0" encoding="UTF-8"?><svg id="Layer_1" xmlns="http://www.w3.org/2000/svg" viewBox="0 0 64.7 65"><defs><style>.cls-1{fill:#fff;}</style></defs><path class="cls-1" d="M32.35,46.71c7.93,0,14.37-6.43,14.37-14.37s-6.43-14.37-14.37-14.37-14.37,6.43-14.37,14.37,6.43,14.37,14.37,14.37Z"/><g><path d="M38.26,34.5c-.46-.24-.84-.06-1.17,.55-1.59,2.98-5.37,3.84-8.03,1.76-.59-.46-1.01-1.16-1.46-1.79-.3-.42-.55-.8-1.13-.57-.38,.15-.54,.46-.47,.87,.02,.14,.07,.29,.14,.46,.06,.16,.14,.31,.23,.46,1.34,2.23,3.41,3.2,5.69,3.34h0c2.19,0,4.16-.86,5.45-2.25,.43-.46,.78-.98,1.04-1.55,.07-.16,.12-.3,.14-.43,.07-.39-.06-.67-.43-.86Z"/><path d="M28.56,30.24c.93,.01,1.7-.72,1.72-1.66,.02-.92-.75-1.71-1.66-1.72-.95-.01-1.69,.71-1.7,1.66-.01,.96,.7,1.71,1.64,1.72Z"/><path d="M36.35,30.23c.27,0,.51-.07,.73-.17,.55-.26,.93-.83,.93-1.53,0-.95-.74-1.69-1.68-1.69-.58,0-1.11,.32-1.42,.78-.19,.27-.3,.6-.3,.94,.01,.9,.81,1.68,1.72,1.68Z"/><path d="M64.7,32.54c0-2.04-6.61-2.24-13.85-1.85,7.19-1.04,13.62-2.52,13.22-4.52-.37-1.87-6.08-1.04-12.54,.55,6.27-2.26,11.48-4.7,10.76-6.47-.77-1.87-6.86,.39-13.35,3.45,6.19-3.64,11.49-7.41,10.37-9.09-1.16-1.75-7.03,1.95-13.01,6.44,5.58-4.97,10.39-9.99,8.9-11.47-1.44-1.44-6.19,3.02-10.99,8.37,4.31-5.77,7.74-11.3,6.05-12.42-1.59-1.06-5.03,3.57-8.49,9.28,2.85-6.03,4.8-11.45,3.04-12.18-1.87-.78-4.58,5.13-7.01,11.89,1.81-6.96,2.89-13.36,.9-13.77-2.05-.41-3.58,6.34-4.64,13.74,.42-7.24,.28-13.96-1.63-14.36v-.12c-2.04,0-2.24,6.61-1.85,13.86C29.55,6.67,28.07,.23,26.07,.64c-1.86,.37-1.04,6.03,.54,12.48-2.24-6.25-4.69-11.43-6.45-10.72-1.88,.77,.4,6.9,3.49,13.42-3.65-6.22-7.44-11.56-9.13-10.43-1.74,1.16,1.94,7.01,6.42,12.97-4.96-5.57-9.96-10.35-11.43-8.87-1.44,1.44,3.04,6.2,8.41,11.02-5.78-4.32-11.33-7.77-12.46-6.08-1.06,1.59,3.62,5.07,9.36,8.54-6.08-2.88-11.57-4.86-12.31-3.1-.8,1.88,5.23,4.63,12.09,7.07-7.02-1.82-13.52-2.94-13.92-.94-.41,2.05,6.3,3.57,13.67,4.63-7.43-.43-14.32-.27-14.32,1.82s6.61,2.24,13.85,1.85c-7.19,1.04-13.62,2.52-13.22,4.52,.37,1.87,6.08,1.04,12.54-.55-6.27,2.26-11.48,4.7-10.76,6.47,.77,1.87,6.86-.39,13.35-3.45-6.19,3.64-11.49,7.41-10.37,9.09,1.16,1.75,7.03-1.95,13.01-6.44-5.58,4.97-10.39,9.99-8.9,11.47,1.44,1.44,6.19-3.02,10.99-8.37-4.31,5.77-7.74,11.3-6.05,12.42,1.59,1.06,5.03-3.57,8.49-9.28-2.85,6.03-4.8,11.45-3.04,12.18,1.87,.78,4.58-5.13,7.01-11.89-1.81,6.96-2.89,13.36-.9,13.77,2.05,.41,3.58-6.34,4.64-13.74-.42,7.24-.28,13.96,1.63,14.36v.12c2.04,0,2.24-6.61,1.85-13.86,1.04,7.19,2.52,13.63,4.52,13.22,1.86-.37,1.04-6.03-.54-12.48,2.24,6.25,4.69,11.43,6.45,10.72,1.88-.77-.4-6.9-3.49-13.42,3.65,6.22,7.44,11.56,9.13,10.43,1.74-1.16-1.94-7.01-6.42-12.97,4.96,5.57,9.96,10.35,11.43,8.87,1.44-1.44-3.04-6.2-8.41-11.02,5.78,4.32,11.33,7.77,12.46,6.08,1.06-1.59-3.62-5.07-9.36-8.54,6.08,2.88,11.57,4.86,12.31,3.1,.8-1.88-5.23-4.63-12.09-7.07,7.02,1.82,13.52,2.94,13.92,.94,.41-2.05-6.3-3.57-13.67-4.63,7.43,.43,14.32,.27,14.32-1.82Zm-32.34,12.36c-6.8,.02-12.4-5.55-12.42-12.38-.02-6.8,5.55-12.4,12.38-12.42,6.8-.02,12.4,5.55,12.42,12.38,.02,6.8-5.55,12.4-12.38,12.42Z"/></g></svg>