<?xml version="1.0" encoding="UTF-8"?><svg id="Layer_1" xmlns="http://www.w3.org/2000/svg" viewBox="0 0 53.3 65"><path d="M7.05,25.37c.71-.85,1.35-1.64,2.03-2.39,.8-.89,1.78-1.23,2.89-.88,1.12,.35,1.84,1.17,2.1,2.43,.22,1.04,.02,2.02-.63,2.8-1.53,1.84-3.08,3.64-4.63,5.46-.48,.57-.95,1.14-1.45,1.73-.91-.94-1.79-1.86-2.66-2.78-1.29-1.34-2.61-2.66-3.86-4.05-1.3-1.44-1.05-3.82,.47-4.94,1.09-.8,2.51-.7,3.5,.25,.39,.36,.75,.76,1.11,1.15,.37,.39,.72,.79,1.12,1.22Z"/><path d="M9.69,.04c-2.68,.57-5.36,2.09-5.6,3.99-.48,3.78,2.34,16.81,1.43,20.76-.23,.98-.16,2.36,.05,3.76-.22,.97-.33,1.84-.17,2.39,.88,3.24,3.72,19.69,3.79,22.17,.14,4.67-5.4-.18-7.54-.56-1.92-.34,.27,5.21,2.95,4.64,2.68-.57,5.36-2.09,5.6-3.99,.48-3.78-2.19-16.81-1.27-20.76,.25-1.06,.13-2.58-.13-4.11,.16-.82,.23-1.55,.1-2.04-.88-3.24-3.72-19.69-3.79-22.17-.14-4.67,5.4,.18,7.54,.56,1.92,.34-.27-5.21-2.95-4.64Z"/><path d="M19.88,39.63c.71,.85,1.35,1.64,2.03,2.39,.8,.89,1.78,1.23,2.89,.88,1.12-.35,1.84-1.17,2.1-2.43,.22-1.04,.02-2.02-.63-2.8-1.53-1.84-3.08-3.64-4.63-5.46-.48-.57-.95-1.14-1.45-1.73-.91,.94-1.79,1.86-2.66,2.78-1.29,1.34-2.61,2.66-3.86,4.05-1.3,1.44-1.05,3.82,.47,4.94,1.09,.8,2.51,.7,3.5-.25,.39-.36,.75-.76,1.11-1.15,.37-.39,.74-.78,1.12-1.22Z"/><path d="M22.52,64.96c-2.68-.57-5.36-2.09-5.6-3.99-.48-3.78,2.34-16.81,1.43-20.76-.23-.98-.16-2.36,.05-3.76-.22-.97-.33-1.84-.17-2.39,.88-3.24,3.72-19.69,3.79-22.17,.14-4.67-5.4,.18-7.54,.56-1.92,.34,.27-5.21,2.95-4.64,2.68,.57,5.36,2.09,5.6,3.99,.48,3.78-2.19,16.81-1.27,20.76,.25,1.06,.13,2.58-.13,4.11,.16,.82,.23,1.55,.1,2.04-.88,3.24-3.72,19.69-3.79,22.17-.14,4.67,5.4-.18,7.54-.56,1.92-.34-.27,5.21-2.95,4.64Z"/><path d="M32.81,25.37c.71-.85,1.35-1.64,2.03-2.39,.8-.89,1.78-1.23,2.89-.88,1.12,.35,1.84,1.17,2.1,2.43,.22,1.04,.02,2.02-.63,2.8-1.53,1.84-3.08,3.64-4.63,5.46-.48,.57-.95,1.14-1.45,1.73-.91-.94-1.79-1.86-2.66-2.78-1.29-1.34-2.61-2.66-3.86-4.05-1.3-1.44-1.05-3.82,.47-4.94,1.09-.8,2.51-.7,3.5,.25,.39,.36,.75,.76,1.11,1.15,.37,.39,.72,.79,1.12,1.22Z"/><path d="M35.46,.04c-2.68,.57-5.36,2.09-5.6,3.99-.48,3.78,2.34,16.81,1.43,20.76-.23,.98-.16,2.36,.05,3.76-.22,.97-.33,1.84-.17,2.39,.88,3.24,3.72,19.69,3.79,22.17,.14,4.67-5.4-.18-7.54-.56-1.92-.34,.27,5.21,2.95,4.64,2.68-.57,5.36-2.09,5.6-3.99,.48-3.78-2.19-16.81-1.27-20.76,.25-1.06,.13-2.58-.13-4.11,.16-.82,.23-1.55,.1-2.04-.88-3.24-3.72-19.69-3.79-22.17-.14-4.67,5.4,.18,7.54,.56,1.92,.34-.28-5.21-2.95-4.64Z"/><path d="M46.19,39.63c.71,.85,1.35,1.64,2.03,2.39,.8,.89,1.78,1.23,2.89,.88,1.12-.35,1.84-1.17,2.1-2.43,.22-1.04,.02-2.02-.63-2.8-1.53-1.84-3.08-3.64-4.63-5.46-.48-.57-.95-1.14-1.45-1.73-.91,.94-1.79,1.86-2.66,2.78-1.29,1.34-2.61,2.66-3.86,4.05-1.3,1.44-1.05,3.82,.47,4.94,1.09,.8,2.51,.7,3.5-.25,.39-.36,.75-.76,1.11-1.15,.36-.39,.72-.78,1.12-1.22Z"/><path d="M48.83,64.96c-2.68-.57-5.36-2.09-5.6-3.99-.48-3.78,2.34-16.81,1.43-20.76-.23-.98-.16-2.36,.05-3.76-.22-.97-.33-1.84-.17-2.39,.88-3.24,3.72-19.69,3.79-22.17,.14-4.67-5.4,.18-7.54,.56-1.92,.34,.27-5.21,2.95-4.64,2.68,.57,5.36,2.09,5.6,3.99,.48,3.78-2.19,16.81-1.27,20.76,.25,1.06,.13,2.58-.13,4.11,.16,.82,.23,1.55,.1,2.04-.88,3.24-3.72,19.69-3.79,22.17-.14,4.67,5.4-.18,7.54-.56,1.92-.34-.27,5.21-2.95,4.64Z"/></svg>