<?xml version="1.0" encoding="UTF-8"?><svg id="Layer_1" xmlns="http://www.w3.org/2000/svg" viewBox="0 0 65 26.77"><path d="M13.18,16.92c2.12-4.78,15.4-8.64,15.4-8.64l-.77-2.91C15.14,8.79,10.66,12.49,7.85,15.67c-1.65-.54-2.85-1.14-3.91-1.97C13.84,4.74,26.42,2.84,26.42,2.84l-1-2.84C9.65,2.46,3.64,8,1.96,9.75c-1.16,1.22-1.96,2.7-1.96,4.04,0,7.21,11.39,12.65,23.85,12.98l4.41-9.15s-2.12,.12-3.21,.12c-3.72,.01-7.99-.19-11.86-.82Z"/><path d="M51.82,16.92c-2.12-4.78-15.4-8.64-15.4-8.64l.77-2.91c12.66,3.42,17.14,7.13,19.96,10.3,1.65-.54,2.85-1.14,3.91-1.97C51.16,4.74,38.58,2.84,38.58,2.84l1-2.84c15.77,2.46,21.79,8,23.46,9.75,1.16,1.22,1.96,2.7,1.96,4.04,0,7.21-11.39,12.65-23.85,12.98l-4.41-9.15s2.12,.12,3.21,.12c3.72,.01,8-.19,11.86-.82Z"/></svg>