<svg width="35" height="54" viewBox="0 0 35 54" fill="none" xmlns="http://www.w3.org/2000/svg">
<g clip-path="url(#clip0_923_4942)">
<path d="M5.07007 27.2298C5.30275 25.6209 5.37979 23.9934 5.30008 22.3698C5.30008 19.2698 5.47009 4.77982 6.00009 2.53982C7.00009 -1.67018 10.8201 4.01981 12.6501 4.87981C14.3001 5.64981 13.6501 0.159817 11.1201 0.00981745C8.59009 -0.140183 5.79009 0.569789 5.12009 2.19979C3.77009 5.45979 2.18008 14.1398 0.390076 17.4498C-1.15992 20.3098 4.52007 29.1698 5.07007 27.2298Z" fill="black"/>
<path d="M8.49014 5.91982C8.26661 7.52281 8.19295 9.14318 8.27013 10.7598C8.27013 13.8698 8.09014 28.3498 7.56014 30.5898C6.56014 34.7998 2.75012 29.1098 0.910119 28.2598C-0.739881 27.4898 -0.0898519 32.9798 2.44015 33.1198C4.97015 33.2598 7.77015 32.5698 8.44015 30.9398C9.79015 27.6698 11.3901 18.9898 13.1801 15.6898C14.7201 12.8298 9.04014 3.97982 8.49014 5.91982Z" fill="black"/>
<path d="M15.4597 37.4498C15.6915 35.8442 15.7685 34.2201 15.6897 32.5998C15.6897 29.4898 15.8597 15.0098 16.3897 12.7698C17.3897 8.5598 21.2097 14.2498 23.0397 15.1098C24.6897 15.8798 24.0397 10.3898 21.5097 10.2398C18.9797 10.0898 16.1797 10.7998 15.5097 12.4298C14.1597 15.6898 12.5697 24.3698 10.7797 27.6798C9.22972 30.5298 14.9097 39.3698 15.4597 37.4498Z" fill="black"/>
<path d="M18.8798 16.13C18.6516 17.7359 18.5779 19.36 18.6598 20.98C18.6598 24.09 18.4798 38.57 17.9498 40.81C16.9498 45.02 13.1398 39.33 11.2998 38.47C9.64978 37.7 10.2998 43.19 12.8298 43.34C15.3598 43.49 18.1598 42.78 18.8298 41.15C20.1798 37.89 21.8298 29.21 23.5698 25.9C25.1098 23.05 19.4298 14.19 18.8798 16.13Z" fill="black"/>
<path d="M25.8503 47.66C26.0824 46.0578 26.1594 44.437 26.0804 42.82C26.0804 39.71 26.2504 25.23 26.7804 22.99C27.7804 18.78 31.6004 24.47 33.4304 25.33C35.0804 26.09 34.4304 20.6 31.9004 20.46C29.3704 20.32 26.5704 21.01 25.9004 22.65C24.5504 25.91 22.9003 34.59 21.1703 37.9C19.6203 40.75 25.3003 49.61 25.8503 47.66Z" fill="black"/>
<path d="M29.2997 26.37C29.0712 27.9759 28.9976 29.6 29.0797 31.22C29.0797 34.32 28.8997 48.81 28.3697 51.05C27.3697 55.26 23.5597 49.57 21.7197 48.71C20.0697 47.94 20.7197 53.43 23.2497 53.58C25.7797 53.73 28.5797 53.02 29.2497 51.39C30.5997 48.13 32.1997 39.45 33.9897 36.14C35.4997 33.27 29.8197 24.37 29.2997 26.37Z" fill="black"/>
</g>
<defs>
<clipPath id="clip0_923_4942">
<rect width="34.34" height="53.57" fill="white"/>
</clipPath>
</defs>
</svg>
