<?xml version="1.0" encoding="UTF-8"?><svg id="Layer_1" xmlns="http://www.w3.org/2000/svg" viewBox="0 0 64.99 48.57"><defs><style>.cls-1{fill-rule:evenodd;}</style></defs><path class="cls-1" d="M32.74,43.94c-6.37,6.77-11.33,5.04-14.32,1.64-1.87-2.13-2.52-4.74-1.38-7.23,.69-1.52,1.75-2.88,2.83-4.27,.49-.63,.98-1.26,1.45-1.92-1.57-1.55-3.24-3.19-4.96-4.87-.16-.16-.33-.32-.49-.48-.33,.31-.65,.62-.97,.94-.79,.77-1.58,1.54-2.44,2.22-3.36,2.65-7.98,2.17-10.7-1.03-2.54-2.99-2.3-7.66,.53-10.36,2.98-2.85,7.43-2.9,10.55-.01,.67,.61,1.24,1.35,1.89,2.18,.32,.42,.67,.86,1.06,1.33,1.79-1.96,3.2-3.5,4.59-5.04,.16-.18,.26-.28,.42-.46,.18-.19,.43-.47,.94-1.03,0,0-1.77-1.48-2.54-2.27-3.27-3.28-3.5-7.71-.65-10.94,2.79-3.17,7.89-3.7,13.95,2.48l.04,5.89h0c-1.68,1.67-3.5,3.47-5.33,5.29h0l.3,.32c1.61,1.6,3.31,3.28,4.65,4.6m.44-.42h0c-.15,.14-.29,.28-.44,.43h0m.45-.43l.04,6.88c1.37,1.41,3.04,3.15,4.63,4.8l.21,.21c-.36,.34-.73,.7-1.11,1.08-1.14,1.1-2.39,2.32-3.67,3.54l.04,6.7-.04-6.7c-.11,.1-.22,.21-.32,.31l-.25,.24h0c-.18-.18-.37-.36-.56-.55-.94-.93-2-1.99-3.05-3.05-.45-.45-.89-.9-1.33-1.34,.43-.41,.85-.82,1.27-1.23,1.35-1.3,2.67-2.58,3.94-3.81l.23-.22h.01l-.04-6.86h0Zm0,0h0Zm0,0h0l.22-.21c.23-.22,.46-.44,.69-.66l.27-.26h.01v-.02c.73-.7,1.46-1.39,2.15-2.06,.56-.53,1.09-1.05,1.61-1.54h0c-1.7-1.7-3.5-3.5-5.01-5.02l-.04-5.9c.22-.17,.44-.35,.67-.53C35.69,2.28,39.02-.36,41.74,.04c1.61,.23,3.63,1.28,4.82,2.59,3.2,3.51,2.29,7.04-2.88,12.96,.87,.83,1.73,1.66,2.59,2.48,1.02,.98,2.02,1.93,2.96,2.84,.53-.37,1.07-.79,1.62-1.22,1.3-1.01,2.68-2.08,4.23-2.76,3.23-1.41,6.99,.17,8.75,3.1,1.9,3.19,1.44,6.95-1.18,9.5-2.52,2.45-6.63,2.88-9.52,.82-1.02-.72-1.95-1.59-2.82-2.41-.37-.34-.72-.68-1.07-.99-1.94,1.82-3.8,3.57-6.24,5.88,.34,.25,.69,.48,1.02,.7,.67,.44,1.3,.86,1.81,1.38,3.21,3.23,3.45,7.62,.69,10.7-2.85,3.17-7.1,3.47-10.7,.76-.13-.1-.53-.42-1-.8-.74-.59-1.66-1.33-2.09-1.65h0m13.52-19.65h.01l-.15,.16c-1.76,1.65-3.52,3.31-5.27,4.92h-.01c-1.66-1.75-3.45-3.64-5.28-5.56,.58-.57,1.2-1.16,1.84-1.78,1.11-1.08,2.28-2.21,3.45-3.34h.01c.52,.53,1.05,1.09,1.6,1.65,1.2,1.24,2.46,2.55,3.8,3.95ZM27.63,5.28c.62,.58,1.3,1.29,2.04,2.14-1.9,1.99-3.67,3.84-5.44,5.69h0c-4.09-3.59-5.02-6.09-3.08-8.24,.09-.1,.18-.19,.28-.29,1.84-1.76,3.5-1.72,5.96,.48,.08,.07,.16,.14,.24,.22Zm8.36,2.86c-.23-.24-.47-.47-.7-.71h0c.19-.23,.38-.46,.57-.67,3.4-3.92,5.23-4.12,7.29-2.48,.14,.11,.29,.23,.43,.36l.06,.05c.07,.06,.13,.12,.19,.18,2.07,2.1,1.05,4.73-3.01,8.18h0l-.09-.09h0c-1.55-1.58-3.1-3.16-4.73-4.82Zm-6.4,32.77l.02,.02c-.37,.35-.71,.75-1.06,1.16-1.27,1.47-2.6,3-5.02,2.39-.69-.17-1.48-.64-2.1-1.23-.45-.43-.81-.91-.98-1.39-.9-2.61,.72-4.06,2.39-5.56,.46-.41,.92-.83,1.33-1.27h0v.02c1.79,1.92,3.5,3.77,5.42,5.87Zm14.36,2.3c1.81-2.11,.83-4.64-2.78-7.76-.85,.81-1.68,1.6-2.48,2.36h-.01c-1.1,1.05-2.16,2.07-3.22,3.08,.42,.5,.83,.96,1.23,1.36,.15,.15,.3,.3,.44,.43,2.59,2.43,4.71,2.68,6.57,.78,.09-.09,.17-.18,.24-.26ZM13.57,24.32h0c-.34,.3-.67,.58-.98,.85-.8,.69-1.52,1.32-2.27,1.9l-.09,.07c-1.74,1.41-4.16,1.25-5.6-.33-1.37-1.5-1.38-3.91-.04-5.43,.13-.15,.27-.29,.42-.41,1.47-1.31,3.45-1.38,5.13-.02,.63,.51,1.2,1.09,1.87,1.78,.1,.1,.2,.21,.31,.31,.38,.39,.78,.81,1.25,1.27Zm39.17,1.03c-.4-.38-.82-.77-1.26-1.17h0c.46-.44,.87-.85,1.27-1.25h0c.83-.83,1.56-1.57,2.38-2.19,1.72-1.3,3.96-.96,5.32,.71,.63,.78,.95,1.58,1,2.38,.06,.96-.28,1.92-.99,2.84-1.22,1.6-3.68,1.95-5.34,.73-.82-.6-1.57-1.31-2.37-2.06Zm-22.88-1c-1.85,1.67-3.72,3.34-5.56,4.99-.82-.83-1.67-1.69-2.54-2.57h0c-.94-.96-1.9-1.94-2.88-2.92,.59-.55,1.22-1.14,1.87-1.74h0c1.14-1.06,2.34-2.19,3.55-3.31h0c1.71,1.71,3.54,3.54,5.56,5.55Z"/></svg>