<?xml version="1.0" encoding="UTF-8"?><svg id="Layer_1" xmlns="http://www.w3.org/2000/svg" viewBox="0 0 40.34 65"><path d="M17.91,.08c-.24,.12-.38,.67-.36,1.02,.08,4.99,.21,9.98,.3,14.96,.1,4.77,.18,9.56,.28,14.38-2.16-1.2-4.13-2.48-6.25-3.45-2.91-1.33-5.9-1.8-8.83,.06-2.4,1.54-3.6,4.54-2.8,7.19,.85,2.83,3.23,4.66,6.06,4.61,1.77-.04,3.22-.76,4.2-2.25,.63-.94,1.15-1.96,1.77-2.91,1.17-1.79,2.74-1.77,3.79,.07,1.38,2.4,2.3,4.91,2.3,7.74-.01,3.96,.11,7.91,.18,11.87,0,.12,.01,.24,.01,.46-1.53-.92-2.92-1.84-4.4-2.64-2.01-1.1-4.09-2.07-6.48-1.96-3.71,.17-6.56,2.13-7.17,6.41-.3,2.14,1.22,4.72,3.38,5.87,3.04,1.61,5.87,.79,7.68-2.25,.42-.7,.8-1.45,1.25-2.13,1.21-1.82,2.83-1.79,3.82,.17,.78,1.54,1.28,3.2,1.91,4.81,.12,.33,.13,.79,.36,.94,.16,.12,.34,.21,.52,.3,.13,.25,.3,1.66,.36,1.65,.13-.02,.25-.08,.38-.13,.13,.04,.25,.1,.38,.13,.07,.01,.23-1.39,.36-1.65,.18-.1,.36-.19,.52-.3,.23-.17,.23-.63,.36-.94,.63-1.61,1.14-3.27,1.91-4.81,.98-1.96,2.62-1.99,3.82-.17,.46,.69,.82,1.43,1.25,2.13,1.8,3.03,4.64,3.86,7.68,2.25,2.17-1.14,3.68-3.73,3.38-5.87-.61-4.26-3.46-6.24-7.17-6.41-2.37-.11-4.46,.87-6.48,1.96-1.47,.8-2.87,1.72-4.4,2.64,.01-.22,.01-.34,.01-.46,.06-3.96,.19-7.91,.18-11.87-.01-2.83,.92-5.35,2.3-7.74,1.05-1.84,2.62-1.87,3.79-.07,.62,.94,1.14,1.96,1.77,2.91,.98,1.49,2.43,2.22,4.2,2.25,2.82,.05,5.21-1.78,6.06-4.61,.8-2.64-.39-5.66-2.8-7.19-2.93-1.87-5.92-1.4-8.83-.06-2.12,.98-4.09,2.25-6.25,3.45,.1-4.83,.18-9.6,.28-14.38,.1-4.99,.22-9.97,.3-14.96,0-.35-.12-.88-.36-1.02-.74-.39-1.55,.8-2.28,1.04-.69-.25-1.5-1.44-2.25-1.04Z"/></svg>