<?xml version="1.0" encoding="UTF-8"?><svg id="Layer_1" xmlns="http://www.w3.org/2000/svg" viewBox="0 0 65 61.73"><path d="M43.49,1.81c-1.42,.06-2.82,.25-4.17,.59-3.27,.82-6.25,2.23-8.81,4.07-.39,.28-.73,.58-1.08,.88-.02,0-.04,0-.05,.01,.27-.27,.51-.49,.75-.72,1.01-.99,2.02-1.95,2.77-2.96,.35-.48,.64-.94,.77-1.41,.19-.61,0-1.11-.37-1.57-.28-.34-.76-.54-1.41-.63-.69-.08-1.43-.1-2.2-.04-.42,.04-.84,.08-1.28,.16-1.02,.19-2.05,.59-3.04,1.13-1.43,.78-2.8,1.67-4.05,2.7-3.01,2.48-5.52,5.48-7.36,8.78-.51,.92-.96,1.84-1.33,2.78-.04,.1-.06,.18-.11,.3,.07-.05,.1-.07,.13-.11,1.52-1.27,3.07-2.36,4.66-3.3,1.87-1.1,3.76-1.99,5.66-2.67,1.94-.7,3.89-1.19,5.8-1.49,2.41-1.8,18.31,1.36,18.1,2.83,.3,.17,.6,.34,.89,.51,1.36,.81,2.6,1.73,3.72,2.73,.54,.49,1.07,1,1.57,1.53,.72,.78,1.37,1.59,1.96,2.43,.22,.31,.42,.64,.63,.95l.18,.29c.39-.17,.76-.33,1.14-.47-.05-.08-.1-.17-.14-.24-.61-.95-1.3-1.87-2.06-2.76-.49-.57-1.01-1.11-1.55-1.63-.71-.69-1.48-1.33-2.29-1.94-1.05-.77-2.17-1.48-3.36-2.11-.19-.1-1.41-.8-3.2-1.51,.27-.11,.52-.19,.76-.29,1.14-.45,2.29-.89,3.27-1.48,.46-.28,.87-.58,1.17-.95,.4-.47,.46-1,.35-1.58-.08-.42-.37-.81-.84-1.17-.49-.37-1.08-.69-1.71-.98-.34-.14-.69-.29-1.06-.4-.86-.24-1.82-.34-2.8-.29ZM16.59,11.97c1.23-1.92,2.82-3.66,4.64-5.16,1.12-.92,2.33-1.71,3.61-2.31,1.12-.53,2.24-.87,3.29-.93,.3-.02,.6-.02,.86,.01,.99,.13,1.31,.65,1.1,1.42-.11,.39-.37,.77-.69,1.17-.37,.46-.81,.89-1.3,1.33-.11,.1-.2,.14-.34,.17-1.1,.22-2.19,.51-3.3,.86-1.51,.48-3.02,1.07-4.53,1.81-1.08,.52-2.14,1.11-3.2,1.77-.1,.06-.2,.12-.35,.22,.1-.14,.16-.24,.22-.35Zm28.18-6.93c.24,.12,.47,.24,.66,.39,.72,.55,.76,1.16,.3,1.76-.23,.3-.58,.54-.98,.75-.46,.24-.95,.43-1.47,.61-3.67-1.42-9.18-1.69-10.24-1.54h-.12c1.59-1,3.4-1.75,5.31-2.2,1.19-.29,2.42-.43,3.64-.4,1.06,.04,2.06,.24,2.89,.64Z"/><path d="M56.35,57.24c.59-1.29,1.06-2.63,1.36-3.98,.75-3.28,.86-6.59,.36-9.69-.07-.47-.18-.92-.29-1.36,.01-.02,.01-.04,.01-.05,.11,.35,.2,.67,.3,.99,.42,1.36,.82,2.69,1.39,3.82,.26,.53,.55,.99,.9,1.33,.46,.45,.99,.51,1.57,.37,.43-.1,.83-.43,1.2-.96,.39-.57,.74-1.23,1.04-1.95,.16-.39,.31-.78,.43-1.2,.29-1,.4-2.1,.37-3.22-.05-1.63-.23-3.25-.58-4.83-.84-3.82-2.39-7.4-4.49-10.54-.58-.87-1.2-1.7-1.88-2.45-.06-.07-.13-.14-.22-.23,.01,.08,.02,.12,.04,.17,.45,1.93,.71,3.81,.82,5.65,.13,2.16,.06,4.25-.19,6.27-.27,2.05-.7,4-1.3,5.84,.51,2.96-9.52,15.71-10.74,14.84-.28,.19-.57,.39-.86,.57-1.34,.84-2.72,1.53-4.12,2.07-.69,.26-1.39,.49-2.07,.7-1.02,.29-2.05,.51-3.06,.64-.37,.05-.76,.1-1.13,.12-.11,.01-.23,.02-.34,.04-.02,.42-.06,.82-.1,1.24,.1-.01,.19-.01,.28-.02,1.13-.11,2.25-.31,3.39-.59,.72-.18,1.45-.4,2.16-.65,.93-.33,1.86-.71,2.77-1.17,1.17-.58,2.3-1.27,3.41-2.04,.18-.12,1.35-.89,2.8-2.18-.02,.28-.06,.55-.08,.81-.12,1.23-.25,2.45-.17,3.59,.04,.54,.13,1.04,.31,1.47,.24,.57,.69,.87,1.24,1.02,.42,.12,.89,.04,1.42-.23,.55-.28,1.11-.65,1.65-1.08,.29-.23,.57-.48,.84-.76,.64-.66,1.16-1.48,1.55-2.36Zm3.14-28.59c1.16,1.98,1.99,4.17,2.49,6.48,.3,1.41,.47,2.84,.42,4.27-.04,1.24-.25,2.39-.67,3.35-.12,.28-.25,.54-.41,.76-.58,.82-1.17,.87-1.76,.34-.3-.26-.53-.67-.74-1.14-.24-.54-.42-1.13-.59-1.76-.04-.13-.04-.24,0-.39,.3-1.07,.55-2.18,.73-3.33,.25-1.57,.41-3.18,.45-4.86,.02-1.19-.02-2.42-.13-3.66-.01-.12-.02-.24-.04-.41,.12,.16,.18,.25,.24,.35Zm-6.6,28.25c-.22,.16-.43,.3-.65,.41-.82,.39-1.37,.16-1.7-.53-.17-.34-.22-.76-.23-1.2-.01-.52,.04-1.05,.12-1.59,2.94-2.63,5.66-7.42,6.02-8.42,.01-.04,.04-.07,.05-.11,.17,1.87,.01,3.82-.45,5.74-.29,1.19-.71,2.35-1.29,3.42-.52,.94-1.14,1.72-1.88,2.29Z"/><path d="M1.37,39.79c.77,1.19,1.64,2.31,2.6,3.3,2.35,2.41,5.07,4.29,7.95,5.55,.43,.19,.87,.34,1.3,.49l.04,.04c-.36-.1-.67-.19-1-.28-1.37-.37-2.7-.76-3.95-.9-.59-.06-1.13-.07-1.61,.04-.63,.14-.96,.55-1.17,1.11-.14,.41-.08,.93,.17,1.53,.27,.64,.64,1.28,1.08,1.93,.24,.34,.49,.69,.78,1.01,.69,.78,1.54,1.47,2.51,2.06,1.4,.84,2.86,1.58,4.37,2.13,3.66,1.35,7.52,2,11.3,1.94,1.05-.01,2.08-.1,3.07-.25,.1-.01,.19-.04,.31-.06-.08-.04-.12-.05-.16-.06-1.86-.67-3.59-1.47-5.19-2.37-1.89-1.06-3.61-2.25-5.16-3.55-1.58-1.33-2.99-2.76-4.2-4.27-2.77-1.18-8.05-16.51-6.66-17.06-.01-.34-.01-.69-.01-1.02,.02-1.58,.19-3.12,.49-4.59,.16-.72,.33-1.43,.53-2.12,.31-1.01,.69-1.99,1.12-2.92,.16-.35,.34-.69,.51-1.02,.05-.1,.1-.2,.16-.3-.34-.24-.66-.49-.99-.76-.05,.08-.1,.17-.13,.24-.52,1.01-.96,2.06-1.34,3.17-.24,.71-.45,1.42-.63,2.17-.23,.96-.41,1.95-.52,2.95-.14,1.29-.19,2.61-.13,3.96,.01,.22,.01,1.61,.31,3.53-.23-.17-.43-.35-.64-.52-.96-.77-1.92-1.53-2.93-2.08-.47-.25-.94-.46-1.41-.53-.6-.1-1.1,.11-1.53,.49-.33,.29-.52,.72-.58,1.31-.07,.61-.05,1.29,.02,1.98,.04,.36,.1,.74,.18,1.12,.18,.93,.59,1.81,1.12,2.61Zm22.33,18.13c-2.28-.1-4.59-.59-6.8-1.41-1.35-.51-2.65-1.14-3.82-1.95-1.02-.7-1.87-1.51-2.46-2.37-.17-.25-.31-.51-.42-.75-.39-.93-.1-1.46,.67-1.66,.39-.11,.86-.07,1.36,.01,.58,.1,1.18,.25,1.8,.46,.13,.04,.23,.1,.31,.2,.75,.84,1.54,1.65,2.4,2.42,1.17,1.06,2.46,2.07,3.83,3,.99,.67,2.05,1.29,3.14,1.88,.11,.06,.22,.11,.36,.19-.16-.02-.26-.02-.39-.02ZM3.51,37.06c-.02-.27-.02-.53,.01-.76,.12-.9,.61-1.24,1.36-1.14,.37,.05,.76,.23,1.14,.46,.43,.26,.86,.6,1.27,.96,.61,3.89,3.17,8.78,3.82,9.63,.02,.02,.05,.06,.06,.1-1.66-.87-3.22-2.06-4.58-3.48-.84-.88-1.59-1.87-2.18-2.94-.49-.94-.82-1.9-.9-2.82Z"/></svg>