<?xml version="1.0" encoding="UTF-8"?><svg id="Layer_1" xmlns="http://www.w3.org/2000/svg" viewBox="0 0 62.48 65"><path d="M46.23,51.05c-13.65-6.59-15.67-13.06-15.6-14.51,.07-1.49-3.38-2.98-2.44,5.46,.93,8.44,11.71,15.45,15.19,16.78,5.32,2.03,10.83-3.89,2.86-7.73Zm1.39,4.91c-.41,.71-1.92,.6-3.37-.24-1.46-.84-2.31-2.09-1.9-2.8,.41-.71,1.92-.6,3.37,.24,1.46,.84,2.31,2.09,1.9,2.8Z"/><path d="M55.74,40.95c-15.77,1.33-21.43-3.78-22.25-5.22-.84-1.48-4.72-.98,1.2,6.64,5.92,7.61,19.46,8.32,23.26,7.65,5.81-1.03,6.99-9.84-2.21-9.06Zm.85,6.07c-1.68,0-3.04-.66-3.04-1.48s1.36-1.48,3.04-1.48,3.04,.66,3.04,1.48-1.36,1.48-3.04,1.48Z"/><path d="M34.76,33.67c-1.31-.84-4.16,1.11,3.84,4.8,8.02,3.7,19.04-1.16,21.76-3.22,4.15-3.14,1.23-10.62-5.71-6.32-11.9,7.36-18.61,5.56-19.89,4.74Zm24.66-2.28c.3,.76-.74,1.87-2.3,2.48-1.57,.61-3.08,.49-3.37-.27-.3-.76,.74-1.87,2.3-2.48,1.57-.61,3.08-.49,3.37,.27Z"/><path d="M13.88,12.07c13.67,5.59,16.23,12.31,16.31,13.87,.08,1.6,3.53,2.81,1.8-6.11C30.26,10.9,19.29,4.54,15.85,3.49c-5.26-1.6-9.94,5.32-1.96,8.58Zm-1.74-5.45c.33-.74,1.85-.79,3.38-.11s2.51,1.85,2.18,2.59-1.85,.79-3.38,.11-2.51-1.85-2.18-2.59Z"/><path d="M32.74,26.46c-.75,1.28,1.28,4,4.49-3.79,3.21-7.8-2.1-18.31-4.24-20.9-3.28-3.93-10.43-.98-5.88,5.63,7.8,11.31,6.38,17.82,5.64,19.06ZM29.41,2.69c.74-.34,1.91,.61,2.62,2.14,.71,1.52,.68,3.04-.05,3.38-.74,.34-1.91-.61-2.62-2.14-.71-1.52-.68-3.04,.05-3.38Z"/><path d="M34.39,28.99c-1.3,.75-.82,4.2,5.86-1.11,6.69-5.31,7.15-17.37,6.52-20.76-.98-5.17-8.8-6.18-8,2.02,1.36,14.05-3.1,19.11-4.37,19.85ZM42.8,6.06c.82,0,1.48,1.36,1.48,3.04s-.66,3.04-1.48,3.04-1.48-1.36-1.48-3.04,.66-3.04,1.48-3.04Z"/><path d="M35.32,31.57c-1.49,.05-2.69,3.22,5.62,1.78,8.29-1.44,14.37-11.53,15.41-14.73,1.58-4.88-4.74-9.35-7.9-1.98-5.42,12.63-11.68,14.89-13.12,14.94Zm15.57-14.57c.76-1.5,1.97-2.41,2.7-2.05,.73,.37,.7,1.88-.06,3.38-.76,1.5-1.97,2.41-2.7,2.05-.73-.37-.7-1.88,.06-3.38Z"/><path d="M8.11,23.78c13.54-2.42,18.87,1.56,19.7,2.74,.85,1.22,4.16,.47-1.6-5.66-5.77-6.14-17.54-5.65-20.78-4.76C.48,17.45,.21,25.19,8.11,23.78Zm-.49-5.44c1.68-.1,3.08,.49,3.12,1.3,.05,.81-1.28,1.55-2.96,1.65-1.68,.1-3.08-.49-3.12-1.3-.05-.81,1.28-1.55,2.96-1.65Z"/><path d="M25.05,31.27c1.42-.01,2.64-3.16-5.31-1.93-7.95,1.23-14.01,11.18-15.09,14.35-1.64,4.83,4.26,9.48,7.47,2.19,5.51-12.5,11.53-14.6,12.92-14.61Zm-14.74,12.77c-.84,1.46-2.09,2.31-2.8,1.9-.71-.41-.6-1.92,.24-3.37,.84-1.46,2.09-2.31,2.8-1.9,.71,.41,.6,1.92-.24,3.37Z"/><path d="M26.03,28.4c1.33,.67,3.85-1.52-4.12-4.2-7.98-2.66-18.03,3.21-20.42,5.48-3.66,3.47-.16,10.33,6.04,5.44,10.64-8.36,17.21-7.37,18.5-6.72ZM2.87,33.1c-.38-.72,.52-1.94,2-2.73,1.49-.78,3-.84,3.38-.11,.38,.72-.52,1.94-2,2.73-1.49,.78-3,.84-3.38,.11Z"/><path d="M25.77,34.41c1.3-.72,.8-4.32-5.86,.81-6.67,5.14-7.1,17.66-6.46,21.21,.99,5.43,8.8,6.91,7.99-1.65-1.38-14.66,3.06-19.68,4.32-20.37Zm-8.07,23.32c-.82,0-1.48-1.36-1.48-3.04s.66-3.04,1.48-3.04,1.48,1.36,1.48,3.04-.66,3.04-1.48,3.04Z"/><path d="M27.67,35.94c.77-1.49-1.55-4.3-4.71,4.65-3.16,8.95,2.93,20.12,5.34,22.78,3.68,4.06,11.28,.09,6.14-6.8-8.81-11.82-7.52-19.17-6.77-20.62Zm4.97,25.89c-.71,.41-1.96-.44-2.8-1.9-.84-1.46-.95-2.97-.24-3.37,.71-.41,1.96,.44,2.8,1.9,.84,1.46,.95,2.97,.24,3.37Z"/></svg>