<?xml version="1.0" encoding="UTF-8"?><svg id="Layer_1" xmlns="http://www.w3.org/2000/svg" viewBox="0 0 64.46 66"><path d="M32.29,37.06c-10.22,0-18.53-8.31-18.53-18.53S22.07,0,32.29,0s18.53,8.31,18.53,18.53-8.31,18.53-18.53,18.53Zm0-35.06c-9.12,0-16.53,7.42-16.53,16.53s7.42,16.53,16.53,16.53,16.53-7.42,16.53-16.53S41.4,2,32.29,2Z"/><path d="M32.29,32.88c-7.91,0-14.35-6.44-14.35-14.35s6.44-14.35,14.35-14.35,14.35,6.44,14.35,14.35-6.44,14.35-14.35,14.35Zm0-26.71c-6.81,0-12.35,5.54-12.35,12.35s5.54,12.35,12.35,12.35,12.35-5.54,12.35-12.35-5.54-12.35-12.35-12.35Z"/><path d="M32.34,6.33c-6.74,0-12.19,5.46-12.19,12.19s5.46,12.19,12.19,12.19,12.19-5.46,12.19-12.19-5.46-12.19-12.19-12.19Zm10.84,14.39c-.15,.74-2.72,.23-5.33-.48,2.58,.88,5.04,1.94,4.74,2.63-.25,.58-1.96-.01-3.93-.93,1.83,1.13,3.26,2.23,2.92,2.74-.42,.64-2.65-.83-4.81-2.5,2.05,1.79,3.92,3.69,3.38,4.23-.51,.51-2.27-1.18-3.98-3.11,1.54,2.05,2.82,4.07,2.22,4.46-.56,.37-1.78-1.31-2.99-3.34,1.02,2.17,1.74,4.17,1.11,4.42-.6,.25-1.45-1.53-2.21-3.68,.53,2.18,.81,4.1,.17,4.23-.74,.15-1.27-2.43-1.63-5.12h-.06c.18,2.72,.17,5.38-.59,5.38-.67,0-.76-2.12-.65-4.51-.36,2.34-.86,4.37-1.52,4.24-.74-.15-.23-2.73,.48-5.33-.88,2.58-1.94,5.04-2.63,4.74-.58-.25,.02-1.96,.93-3.93-1.13,1.83-2.23,3.26-2.74,2.92-.64-.42,.83-2.63,2.49-4.8-1.79,2.05-3.68,3.9-4.2,3.37-.51-.51,1.18-2.27,3.11-3.98-2.05,1.54-4.07,2.82-4.46,2.22-.37-.56,1.31-1.78,3.34-2.99-2.17,1.02-4.17,1.74-4.42,1.11-.25-.6,1.53-1.43,3.68-2.21-2.18,.53-4.1,.81-4.23,.17-.15-.74,2.43-1.27,5.11-1.63h0c-2.73,.17-5.43,.16-5.43-.6,0-.67,2.12-.76,4.51-.65-2.34-.36-4.37-.86-4.24-1.52,.15-.74,2.72-.23,5.33,.48-2.58-.88-5.04-1.94-4.74-2.63,.25-.58,1.96,.02,3.93,.93-1.83-1.13-3.26-2.23-2.92-2.74,.42-.64,2.65,.83,4.81,2.5-2.05-1.79-3.92-3.69-3.38-4.23,.51-.51,2.27,1.18,3.98,3.11-1.54-2.05-2.82-4.07-2.22-4.46,.56-.37,1.78,1.31,2.99,3.34-1.02-2.17-1.74-4.17-1.11-4.42,.6-.25,1.45,1.53,2.21,3.68-.53-2.18-.81-4.1-.17-4.23,.75-.15,1.29,2.46,1.64,5.17h.05c-.18-2.72-.16-5.38,.59-5.38,.67,0,.76,2.12,.65,4.51,.36-2.34,.86-4.37,1.52-4.24,.74,.15,.23,2.72-.48,5.33,.88-2.58,1.94-5.04,2.63-4.74,.58,.25-.02,1.96-.93,3.93,1.13-1.83,2.23-3.26,2.74-2.92,.64,.42-.83,2.65-2.5,4.81,1.79-2.05,3.69-3.92,4.23-3.38,.51,.51-1.18,2.27-3.11,3.98,2.05-1.54,4.07-2.82,4.46-2.22,.37,.56-1.31,1.78-3.34,2.99,2.17-1.02,4.17-1.74,4.42-1.11,.24,.6-1.53,1.45-3.68,2.21,2.18-.53,4.1-.81,4.23-.17,.13,.69-2.09,1.2-4.58,1.56,2.52-.15,4.85-.09,4.85,.62,0,.67-2.08,.76-4.45,.65,2.33,.36,4.35,.86,4.21,1.52Z"/><path d="M39.08,59.01c-.99-4.63-2.49-12.73,4.32-17.73,8.28-6.08,23.82-18.62,20.63-31.53-1.42-5.75-6.21-6.8-8.31-6.36-3.14,.66-5.42,2.6-6.06,4.52-1.41,4.13,.83,7.08,.78,10.25-.11,7.11-8.74,17.71-18.22,18.74-9.48-1.03-18.11-11.64-18.22-18.74-.05-3.16,2.19-6.13,.78-10.25-.65-1.92-2.93-3.86-6.06-4.52-2.09-.44-6.9,.61-8.31,6.36-3.19,12.9,12.36,25.46,20.63,31.53,7.07,5.18,5.18,13.73,4.2,18.25-4.17,3.7-9.85,5.27-16.37-2.41,6.64,15.84,21.05,5.99,23.26,4.34h.6c2.22,1.64,16.62,11.49,23.26-4.34-6.82,8.05-12.74,5.95-16.94,1.89Z"/></svg>