<svg width="54" height="54" viewBox="0 0 54 54" fill="none" xmlns="http://www.w3.org/2000/svg">
<g clip-path="url(#clip0_923_4957)">
<path d="M46.5805 11.3198C47.0405 12.4298 47.4605 13.5498 47.9505 14.6498C48.3161 15.3834 48.4853 16.1993 48.4415 17.0178C48.3977 17.8363 48.1424 18.6295 47.7005 19.3198C47.532 19.5544 47.4413 19.836 47.4413 20.1248C47.4413 20.4137 47.532 20.6952 47.7005 20.9298C47.8868 19.8868 48.3495 18.913 49.0405 18.1098C49.1199 17.956 49.1479 17.7807 49.1205 17.6098C49.0305 16.6098 48.9205 15.6699 48.9005 14.6699C48.9643 14.85 49.0177 15.0336 49.0605 15.2198C49.2605 16.3198 49.4405 17.4298 49.6305 18.5298C49.6305 18.6898 49.6305 18.8598 49.7105 19.0098C49.8802 19.7194 49.8883 20.458 49.7343 21.1711C49.5802 21.8842 49.2679 22.5536 48.8205 23.1298C48.3005 23.8398 48.3005 23.8398 48.5805 24.8298C48.9358 23.8988 49.5124 23.0682 50.2605 22.4099C50.3505 22.3299 50.3505 22.1398 50.3705 21.9998C50.4414 21.0427 50.5717 20.0909 50.7605 19.1498C50.7605 19.8498 50.8105 20.5498 50.8205 21.2598C50.8305 21.9698 50.8205 22.8798 50.8205 23.6898C50.8466 24.3777 50.7214 25.063 50.4536 25.6972C50.1857 26.3314 49.7818 26.8989 49.2705 27.3598C49.1053 27.4877 48.9799 27.6601 48.9091 27.8567C48.8382 28.0533 48.8248 28.2659 48.8705 28.4698C49.4505 27.9498 50.0705 27.4098 50.6605 26.8398C50.8108 26.6527 50.9168 26.4338 50.9705 26.1998C51.2605 25.2998 51.5205 24.3898 51.8805 23.4998C51.8805 23.7698 51.8305 24.0398 51.7805 24.2998C51.5605 25.6298 51.3305 26.9598 51.1205 28.2998C51.0255 28.9143 50.8095 29.5038 50.4851 30.0342C50.1607 30.5647 49.7342 31.0254 49.2305 31.3898C49.061 31.4981 48.9199 31.6454 48.819 31.8194C48.7181 31.9934 48.6603 32.189 48.6505 32.3898C48.6505 32.6698 48.5405 32.9598 48.5405 33.2698C49.1854 32.5964 49.9623 32.0632 50.8226 31.7036C51.6829 31.3439 52.6081 31.1656 53.5405 31.1798C51.1805 31.6998 49.1605 32.6998 48.1005 34.9998L48.2105 35.1599C48.6958 34.7708 49.2034 34.4101 49.7305 34.0798C50.2765 33.8089 50.8544 33.6074 51.4505 33.4799C50.7105 33.9499 49.9505 34.3798 49.2505 34.8998C48.3776 35.5156 47.7367 36.4065 47.4305 37.4298C47.2505 38.0598 46.0605 43.7798 45.8105 44.4298L45.3305 44.7798L44.9905 44.2998C45.2905 43.2998 46.4705 37.2998 46.7805 36.2998C48.2154 31.8378 48.3953 27.0672 47.3005 22.5098C46.8905 20.6998 46.3005 18.9498 45.7105 17.1798C45.6191 16.9252 45.447 16.7075 45.2205 16.5598C44.4944 16.1162 43.8914 15.4973 43.4669 14.7599C43.0423 14.0226 42.8097 13.1905 42.7905 12.3398C42.7773 12.1181 42.7047 11.904 42.5805 11.7198C41.9205 10.8298 41.2405 9.94982 40.5805 9.06982C40.547 9.03441 40.5238 8.99065 40.5133 8.94312C40.5027 8.89558 40.5052 8.84604 40.5205 8.7998C40.9805 9.2798 41.4505 9.72985 41.8905 10.2198C42.3305 10.7098 42.6205 11.1398 43.0205 11.5698C43.2809 11.8107 43.5619 12.0282 43.8605 12.2198C44.4925 12.6793 45.0081 13.2804 45.3658 13.975C45.7236 14.6697 45.9135 15.4385 45.9205 16.2198C45.9812 16.6387 46.1203 17.0425 46.3305 17.4099C46.3319 16.2944 46.6324 15.1997 47.2005 14.2398C47.2556 14.0914 47.2556 13.9282 47.2005 13.7798C46.9405 12.9698 46.6705 12.1698 46.4105 11.3698C46.4105 11.2198 46.3305 11.0598 46.2905 10.8998L46.5805 11.3198Z" fill="black"/>
<path d="M48.1096 27.4901C47.3517 27.3173 46.6425 26.9758 46.0348 26.491C45.4271 26.0063 44.9365 25.3906 44.5996 24.6901L42.8296 20.9501C42.7007 20.6835 42.6227 20.3953 42.5996 20.1001C42.8796 20.5601 43.1596 21.0201 43.4296 21.4901C43.6314 21.8791 43.8551 22.2564 44.0996 22.6201C44.2599 22.8163 44.4709 22.965 44.7096 23.05C45.6486 23.3763 46.4712 23.9709 47.0756 24.7601C47.6799 25.5493 48.0394 26.4985 48.1096 27.4901V27.4901Z" fill="black"/>
<path d="M41.46 16.5C41.98 17.21 42.46 17.84 42.91 18.5C43.2438 19.0704 43.7732 19.5003 44.4 19.71C45.2745 20.0152 46.0472 20.5574 46.6316 21.2761C47.2161 21.9947 47.5894 22.8616 47.71 23.78C46.9749 23.6674 46.2734 23.395 45.6549 22.9821C45.0364 22.5691 44.5159 22.0257 44.13 21.39C43.32 19.98 42.54 18.56 41.75 17.14C41.65 16.96 41.58 16.77 41.46 16.5Z" fill="black"/>
<path d="M40.4198 12.6201C40.9598 13.4701 41.5198 14.3102 42.0498 15.1702C42.1452 15.3291 42.2713 15.4675 42.4206 15.5774C42.57 15.6873 42.7396 15.7664 42.9198 15.8101C43.7946 16.0321 44.5931 16.4868 45.2304 17.1259C45.8678 17.765 46.3202 18.5647 46.5398 19.4401C46.549 19.5332 46.549 19.627 46.5398 19.7202C45.7291 19.6428 44.9489 19.3716 44.2649 18.9296C43.581 18.4875 43.0133 17.8875 42.6098 17.1801C41.9498 16.0001 41.3398 14.8002 40.7198 13.6002C40.5598 13.3002 40.4398 12.9802 40.2998 12.6702L40.4198 12.6201Z" fill="black"/>
<path d="M43.2399 23.4399L44.4499 25.5499C44.7341 26.0773 45.1469 26.5245 45.6499 26.85C46.4156 27.3373 47.0341 28.0238 47.4393 28.8359C47.8445 29.6481 48.021 30.5552 47.9499 31.46L47.3599 31.1799C46.6078 30.781 45.967 30.2009 45.4956 29.492C45.0241 28.7831 44.7369 27.9678 44.6599 27.1199C44.5274 26.5892 44.3257 26.0782 44.0599 25.6C43.7599 24.91 43.4399 24.21 43.1299 23.52L43.2399 23.4399Z" fill="black"/>
<path d="M42.5799 33.5499C42.4744 33.152 42.5177 32.7292 42.7019 32.3609C42.886 31.9927 43.1982 31.7043 43.5799 31.5499C44.167 31.271 44.8392 31.2298 45.456 31.4348C46.0728 31.6397 46.5865 32.0751 46.8899 32.65C46.9449 32.9842 46.921 33.3267 46.8199 33.65C46.2099 32.24 45.3699 31.59 44.2699 31.65C43.1699 31.71 42.8099 32.3199 42.5799 33.5499Z" fill="black"/>
<path d="M45.2402 32.5601C45.7673 32.7738 46.1894 33.1858 46.4157 33.7076C46.642 34.2294 46.6544 34.8193 46.4502 35.3501C46.4145 34.3005 45.9821 33.3035 45.2402 32.5601V32.5601Z" fill="black"/>
<path d="M6.97954 42.25C6.52954 41.14 6.09953 40.02 5.60953 38.92C5.24673 38.1857 5.07915 37.3702 5.12294 36.5522C5.16673 35.7343 5.4204 34.9414 5.85953 34.25C6.02802 34.0154 6.11865 33.7338 6.11865 33.445C6.11865 33.1562 6.02802 32.8746 5.85953 32.64C5.67325 33.683 5.21049 34.6569 4.51953 35.46C4.43147 35.6108 4.39959 35.788 4.42953 35.96C4.51953 36.96 4.62953 37.9 4.65953 38.9C4.59235 38.7201 4.53559 38.5365 4.48953 38.35L3.91953 35.04C3.91953 34.88 3.91953 34.71 3.84953 34.56C3.67548 33.8514 3.66424 33.1126 3.81665 32.399C3.96906 31.6854 4.28118 31.0157 4.72954 30.44C5.25954 29.73 5.25953 29.73 4.96953 28.74C4.61934 29.6737 4.04195 30.5055 3.28954 31.16C3.19954 31.24 3.19953 31.43 3.17953 31.57C3.10856 32.5272 2.97831 33.479 2.78954 34.42C2.78954 33.72 2.78953 33.02 2.73953 32.32C2.68953 31.62 2.73953 30.69 2.73953 29.88C2.7154 29.1924 2.84159 28.5077 3.1093 27.8738C3.37701 27.24 3.77979 26.6722 4.28954 26.21C4.45974 26.0864 4.58886 25.9144 4.66019 25.7165C4.73151 25.5186 4.74173 25.3038 4.68953 25.1C4.11953 25.62 3.48953 26.16 2.90953 26.73C2.75621 26.9167 2.64685 27.1354 2.58954 27.37C2.30954 28.27 2.03953 29.18 1.67953 30.07C1.67953 29.8 1.73953 29.53 1.77953 29.27C1.99953 27.94 2.22954 26.61 2.44954 25.27C2.54237 24.6549 2.75741 24.0646 3.08202 23.5339C3.40662 23.0032 3.8342 22.5428 4.33954 22.18C4.50772 22.0712 4.64729 21.9235 4.74649 21.7495C4.84569 21.5755 4.9016 21.3802 4.90953 21.18C4.90953 20.9 5.01953 20.61 5.01953 20.3C4.37611 20.9754 3.59951 21.5099 2.73885 21.8697C1.87818 22.2294 0.952208 22.4066 0.0195312 22.39C2.37953 21.87 4.38954 20.87 5.44954 18.57L5.33954 18.41C4.86259 18.8056 4.35796 19.1664 3.82953 19.49C3.28282 19.7594 2.70519 19.9609 2.10953 20.09C2.83953 19.62 3.60954 19.19 4.30954 18.67C5.18143 18.0555 5.81943 17.1636 6.11954 16.14C6.29954 15.51 7.49953 9.79001 7.74953 9.14001L8.21953 8.79004L8.56953 9.27002C8.26953 10.27 7.07953 16.27 6.76953 17.27C5.33972 21.7329 5.15988 26.5021 6.24953 31.06C6.66953 32.87 7.24954 34.62 7.83954 36.39C7.93458 36.6425 8.10582 36.8592 8.32953 37.01C9.05557 37.4536 9.65855 38.0725 10.0831 38.8099C10.5077 39.5472 10.7403 40.3794 10.7595 41.23C10.7715 41.4536 10.8479 41.6689 10.9795 41.85C11.6395 42.74 12.3195 43.62 12.9795 44.5C13.0139 44.5348 13.0378 44.5786 13.0484 44.6264C13.059 44.6742 13.056 44.7239 13.0395 44.77C12.5795 44.3 12.1095 43.84 11.6695 43.35C11.2295 42.86 10.9395 42.43 10.5395 42C10.2791 41.7591 9.99805 41.5417 9.69954 41.35C9.07506 40.8876 8.56849 40.2843 8.22098 39.5893C7.87346 38.8943 7.69481 38.1271 7.69954 37.35C7.62079 36.9222 7.46492 36.5121 7.23953 36.14C7.23456 37.2563 6.93069 38.3509 6.35953 39.31C6.30995 39.4593 6.30995 39.6207 6.35953 39.77C6.61953 40.58 6.89953 41.38 7.15953 42.18C7.20953 42.34 7.22953 42.49 7.26953 42.65L6.97954 42.25Z" fill="black"/>
<path d="M5.4502 26.0801C6.20812 26.2529 6.91732 26.5944 7.52502 27.0792C8.13273 27.5639 8.62328 28.1795 8.96019 28.8801L10.7302 32.6301C10.8636 32.8913 10.9419 33.1773 10.9602 33.4701L10.1302 32.0801C9.92842 31.691 9.70473 31.3138 9.46019 30.9501C9.29917 30.7546 9.08845 30.606 8.85019 30.5201C7.91122 30.1938 7.08859 29.5993 6.48424 28.8101C5.87988 28.0208 5.52036 27.0716 5.4502 26.0801V26.0801Z" fill="black"/>
<path d="M12.1004 37.0698C11.5804 36.3598 11.1004 35.7298 10.6604 35.0698C10.3238 34.4955 9.7911 34.0623 9.16035 33.8498C8.28335 33.5502 7.50857 33.0094 6.92488 32.2895C6.34119 31.5696 5.97225 30.6998 5.86035 29.7798C6.59302 29.8958 7.29175 30.1695 7.90816 30.5822C8.52457 30.9949 9.04395 31.5366 9.43036 32.1698C10.2504 33.5798 11.0204 34.9998 11.8104 36.4198C11.9104 36.6098 11.9804 36.8098 12.1004 37.0698Z" fill="black"/>
<path d="M13.1499 40.9501C12.5999 40.1001 12.0499 39.2601 11.5099 38.4001C11.4165 38.2414 11.2923 38.1031 11.1446 37.9932C10.9969 37.8833 10.8287 37.804 10.6499 37.7601C9.7732 37.5397 8.97266 37.0857 8.33345 36.4465C7.69425 35.8073 7.24029 35.0068 7.01989 34.1301C7.0116 34.0369 7.0116 33.9432 7.01989 33.8501C7.83012 33.9291 8.60968 34.2009 9.29339 34.6428C9.97709 35.0846 10.5451 35.6838 10.9499 36.3901C11.5999 37.5701 12.2199 38.7701 12.8399 39.9701C12.9899 40.2701 13.1199 40.5901 13.2499 40.9001L13.1499 40.9501Z" fill="black"/>
<path d="M10.3504 30.1401L9.14038 28.0302C8.85905 27.5007 8.44569 27.0529 7.94038 26.7302C7.17471 26.2429 6.55612 25.5563 6.15094 24.7441C5.74575 23.932 5.56925 23.0249 5.64038 22.1201C5.88038 22.2401 6.06039 22.3102 6.23039 22.4102C6.9814 22.7949 7.62283 23.3634 8.09492 24.0628C8.56702 24.7622 8.85444 25.5698 8.93039 26.4102C9.06119 26.9415 9.263 27.4527 9.53038 27.9301C9.83038 28.6301 10.1504 29.3201 10.4604 30.0101L10.3504 30.1401Z" fill="black"/>
<path d="M10.9898 20.0199C11.0878 20.4239 11.0353 20.8498 10.842 21.218C10.6487 21.5861 10.328 21.8712 9.93975 22.0199C9.35453 22.3009 8.68295 22.3432 8.06707 22.1379C7.4512 21.9326 6.93933 21.4959 6.63975 20.9199C6.57459 20.5869 6.59525 20.2428 6.69976 19.9199C7.30976 21.3299 8.15976 21.9799 9.25976 21.8699C10.3598 21.7599 10.7598 21.2499 10.9898 20.0199Z" fill="black"/>
<path d="M8.34973 21.0102C7.82095 20.7986 7.39714 20.3867 7.17053 19.8642C6.94392 19.3417 6.93284 18.7509 7.13972 18.2202C7.16946 19.2712 7.60279 20.2703 8.34973 21.0102Z" fill="black"/>
<path d="M11.31 6.98999C12.42 6.52999 13.55 6.1 14.64 5.62C15.3754 5.25441 16.1929 5.08534 17.0129 5.12915C17.833 5.17296 18.6278 5.42815 19.32 5.87C19.5558 6.03567 19.8369 6.12457 20.125 6.12457C20.4132 6.12457 20.6943 6.03567 20.93 5.87C19.8865 5.68561 18.9121 5.22266 18.11 4.53003C17.9577 4.44621 17.7809 4.41791 17.61 4.45001C16.61 4.54001 15.67 4.64004 14.67 4.67004C14.8502 4.60624 15.0338 4.55279 15.22 4.51001L18.53 3.92999L19.01 3.85999C19.7172 3.68826 20.454 3.67821 21.1655 3.83057C21.8771 3.98292 22.5452 4.29377 23.12 4.73999C23.83 5.26999 23.83 5.27004 24.83 4.98004C23.8973 4.6327 23.0657 4.05876 22.41 3.31C22.33 3.22 22.14 3.21001 22 3.20001C21.0407 3.11852 20.0861 2.98834 19.14 2.81L21.25 2.75C22.06 2.75 22.88 2.75 23.69 2.75C24.3784 2.7278 25.0633 2.85589 25.6971 3.12531C26.3309 3.39472 26.8984 3.79897 27.36 4.31C27.4871 4.47617 27.6594 4.60223 27.8562 4.67316C28.0531 4.74409 28.2661 4.75691 28.47 4.71002C27.95 4.13002 27.41 3.51004 26.84 2.92004C26.6486 2.76844 26.427 2.65934 26.19 2.60004C25.29 2.32004 24.39 2.06 23.5 1.69L24.3 1.79004C25.63 2.01004 26.96 2.25002 28.3 2.46002C28.9143 2.55554 29.5036 2.77169 30.034 3.09607C30.5643 3.42045 31.0252 3.84667 31.39 4.35004C31.4977 4.52008 31.6449 4.66159 31.819 4.76257C31.9931 4.86355 32.189 4.92096 32.39 4.92999C32.67 4.92999 32.95 5.03004 33.26 5.04004C32.5889 4.3939 32.0578 3.61653 31.7 2.75635C31.3422 1.89616 31.1652 0.971568 31.18 0.0400391C31.7 2.40004 32.7 4.41003 35 5.47003L35.16 5.35999C34.7645 4.88303 34.4036 4.37846 34.08 3.85004C33.8091 3.30396 33.6075 2.72611 33.48 2.13C33.95 2.87 34.37 3.63002 34.89 4.33002C35.5035 5.20304 36.3957 5.84135 37.42 6.14001C38.06 6.33001 43.77 7.52002 44.42 7.77002L44.76 8.25L44.29 8.59003C43.29 8.29003 37.29 7.10999 36.29 6.79999C31.8246 5.36527 27.0508 5.18542 22.49 6.28003C20.69 6.69003 18.93 7.28 17.17 7.87C16.9155 7.96134 16.6977 8.13341 16.55 8.35999C16.1055 9.08743 15.485 9.69131 14.7458 10.116C14.0066 10.5406 13.1724 10.7725 12.32 10.79C12.1011 10.802 11.8899 10.8747 11.71 11C10.81 11.66 9.94004 12.34 9.06004 13C9.02276 13.0302 8.97895 13.0514 8.9321 13.0618C8.88524 13.0722 8.83662 13.0716 8.79004 13.06C9.26004 12.6 9.72004 12.12 10.21 11.68C10.7 11.24 11.13 10.96 11.56 10.56C11.7986 10.2976 12.0159 10.0168 12.21 9.72003C12.6694 9.088 13.2706 8.57241 13.9652 8.21466C14.6599 7.85692 15.4287 7.66698 16.21 7.66003C16.6285 7.59772 17.032 7.45869 17.4 7.25C16.2816 7.24741 15.184 6.94714 14.22 6.38C14.0726 6.31998 13.9075 6.31998 13.76 6.38C12.96 6.63 12.16 6.91004 11.35 7.17004C11.2 7.22004 11.04 7.25004 10.89 7.29004L11.31 6.98999Z" fill="black"/>
<path d="M27.4898 5.45996C27.3164 6.21636 26.9745 6.92387 26.4897 7.52985C26.0049 8.13583 25.3897 8.62467 24.6898 8.95996L20.9398 10.73C20.6771 10.8688 20.3867 10.9474 20.0898 10.96L21.4798 10.14C21.8598 9.90995 22.2698 9.72997 22.6198 9.46997C22.8135 9.30528 22.9587 9.09095 23.0398 8.84998C23.3695 7.91209 23.9666 7.09126 24.7574 6.48883C25.5482 5.8864 26.4981 5.52871 27.4898 5.45996V5.45996Z" fill="black"/>
<path d="M16.5 12.1399C17.21 11.6199 17.84 11.1399 18.5 10.6999C19.0689 10.3618 19.5008 9.83434 19.72 9.2099C20.0173 8.33242 20.5559 7.5565 21.274 6.97107C21.9921 6.38564 22.8606 6.01439 23.78 5.8999C23.6667 6.63478 23.3941 7.33599 22.9812 7.95441C22.5683 8.57282 22.0253 9.0935 21.39 9.47992C19.99 10.2899 18.57 11.0699 17.15 11.8499C16.9385 11.9578 16.7216 12.0546 16.5 12.1399V12.1399Z" fill="black"/>
<path d="M12.6201 13.1402L15.1601 11.5002C15.3213 11.4087 15.4622 11.2852 15.574 11.1373C15.6857 10.9895 15.7661 10.8203 15.8101 10.6402C16.0305 9.76352 16.4845 8.96301 17.1237 8.32381C17.7629 7.6846 18.5634 7.23062 19.4401 7.01021C19.5299 7.00246 19.6203 7.00246 19.7101 7.01021C19.6344 7.82137 19.3639 8.60224 18.9217 9.28645C18.4795 9.97067 17.8786 10.538 17.1701 10.9402C16.0001 11.6002 14.7901 12.2102 13.6001 12.8302C13.3001 12.9902 12.9801 13.1102 12.6701 13.2502L12.6201 13.1402Z" fill="black"/>
<path d="M23.4404 10.3502L25.5504 9.15023C26.0775 8.86472 26.5218 8.44791 26.8404 7.94021C27.3317 7.17838 28.0189 6.56286 28.8301 6.15817C29.6412 5.75348 30.5463 5.57455 31.4504 5.64022C31.3404 5.88022 31.2704 6.0702 31.1704 6.2402C30.7739 6.99212 30.1956 7.63303 29.4883 8.10458C28.781 8.57612 27.967 8.86336 27.1204 8.94021C26.5895 9.06739 26.0782 9.26588 25.6004 9.53024L23.5204 10.4602L23.4404 10.3502Z" fill="black"/>
<path d="M33.5504 10.99C33.1455 11.1025 32.7135 11.0629 32.3358 10.8786C31.9581 10.6944 31.661 10.3783 31.5004 9.98997C31.2248 9.40129 31.1863 8.72911 31.393 8.11283C31.5997 7.49656 32.0356 6.98347 32.6104 6.67997C32.9441 6.61529 33.289 6.63944 33.6104 6.74998C32.2004 7.35998 31.5404 8.19997 31.6104 9.29997C31.6804 10.4 32.3104 10.76 33.5504 10.99Z" fill="black"/>
<path d="M32.5498 8.34977C32.7656 7.82196 33.1795 7.39969 33.7029 7.1735C34.2264 6.9473 34.8176 6.93518 35.3498 7.13974C34.2963 7.17101 33.2945 7.60392 32.5498 8.34977Z" fill="black"/>
<path d="M42.2396 46.5801C41.1296 47.0401 40.0096 47.4701 38.9096 47.9601C38.1752 48.3229 37.3598 48.4905 36.5419 48.4467C35.7239 48.4029 34.9311 48.1492 34.2396 47.7101C34.005 47.5416 33.7235 47.4509 33.4346 47.4509C33.1458 47.4509 32.8642 47.5416 32.6296 47.7101C33.6695 47.8967 34.6401 48.3595 35.4396 49.0501C35.5956 49.1338 35.7755 49.1621 35.9496 49.1301C36.9496 49.0401 37.8896 48.9401 38.8796 48.9101C38.704 48.9772 38.5234 49.0306 38.3396 49.0701L35.0196 49.6501L34.5396 49.7201C33.8325 49.8918 33.0957 49.9019 32.3841 49.7495C31.6725 49.5972 31.0045 49.2863 30.4296 48.8401C29.7196 48.3101 29.7196 48.3101 28.7296 48.6001C29.6587 48.9489 30.4867 49.5227 31.1396 50.2701C31.2196 50.3601 31.4096 50.3701 31.5596 50.3801C32.5157 50.4609 33.467 50.5911 34.4096 50.7701L32.2996 50.8301C31.4896 50.8301 30.6796 50.8301 29.8596 50.8301C29.1734 50.8541 28.4903 50.7278 27.8581 50.4601C27.2259 50.1924 26.6598 49.7896 26.1996 49.2801C26.0737 49.1121 25.902 48.9841 25.7051 48.9113C25.5082 48.8386 25.2945 48.8243 25.0896 48.8701C25.6096 49.4501 26.0896 50.0701 26.7196 50.6601C26.9075 50.8115 27.1258 50.9206 27.3596 50.9801C28.2596 51.2601 29.1596 51.5201 30.0596 51.8901L29.2496 51.7901C27.9196 51.5701 26.5996 51.3301 25.2496 51.1201C24.038 50.9139 22.9565 50.2384 22.2396 49.2401C22.1313 49.0706 21.984 48.9295 21.81 48.8286C21.6361 48.7277 21.4405 48.67 21.2396 48.6601C20.9496 48.6601 20.6696 48.5601 20.3596 48.5501C21.0327 49.1947 21.565 49.9718 21.923 50.8323C22.281 51.6929 22.4569 52.6182 22.4396 53.5501C21.9196 51.1901 20.9296 49.1801 18.6196 48.1201L18.4696 48.2301C18.8586 48.7097 19.2161 49.2141 19.5396 49.7401C19.8105 50.2861 20.0121 50.864 20.1396 51.4601C19.6796 50.7301 19.2496 49.9601 18.7296 49.2601C18.1128 48.3904 17.2219 47.753 16.1996 47.4501C15.5696 47.2601 9.84962 46.0701 9.19962 45.8201L8.84961 45.3401L9.32961 45.0001C10.3296 45.3001 16.3296 46.4901 17.3296 46.7901C21.7916 48.225 26.5623 48.4049 31.1196 47.3101C32.9196 46.9001 34.6796 46.3101 36.4496 45.7201C36.6998 45.6256 36.9134 45.454 37.0596 45.2301C37.506 44.5052 38.1272 43.9038 38.8662 43.481C39.6052 43.0582 40.4384 42.8275 41.2896 42.8101C41.5112 42.7886 41.7241 42.7131 41.9096 42.5901C42.7996 41.9301 43.6696 41.2501 44.5496 40.5901C44.5851 40.5567 44.6285 40.5328 44.6756 40.5205C44.7228 40.5083 44.7723 40.5081 44.8196 40.5201C44.3496 40.9801 43.8896 41.4601 43.4096 41.9001C42.9296 42.3401 42.4796 42.6201 42.0596 43.0301C41.8127 43.2854 41.5947 43.567 41.4096 43.8701C40.9439 44.4911 40.34 44.9951 39.6457 45.3422C38.9514 45.6894 38.1858 45.8701 37.4096 45.8701C36.9943 45.9327 36.5942 46.0717 36.2296 46.2801C37.3447 46.284 38.4387 46.5842 39.3996 47.1501C39.5471 47.2101 39.7121 47.2101 39.8596 47.1501C40.6696 46.9001 41.4696 46.6201 42.2696 46.3601C42.4236 46.3128 42.5806 46.2761 42.7396 46.2501L42.2396 46.5801Z" fill="black"/>
<path d="M26.0801 48.1399C26.2498 47.3821 26.589 46.6726 27.0722 46.0646C27.5554 45.4567 28.1701 44.9662 28.8701 44.6299C30.1201 44.0399 31.3701 43.4399 32.6201 42.8599C32.8828 42.721 33.1732 42.6424 33.4701 42.6299L32.0801 43.4499C31.7001 43.6799 31.3001 43.8599 30.9501 44.1199C30.7535 44.284 30.6049 44.4982 30.5201 44.7399C30.1916 45.6775 29.5964 46.4987 28.8076 47.1027C28.0189 47.7067 27.0709 48.0672 26.0801 48.1399V48.1399Z" fill="black"/>
<path d="M37.07 41.4702C36.35 41.9902 35.73 42.4702 35.07 42.9102C34.5039 43.2516 34.073 43.7779 33.85 44.4002C33.5537 45.2783 33.0154 46.0548 32.2972 46.6404C31.5789 47.226 30.7098 47.5969 29.79 47.7102C29.9053 46.976 30.1787 46.2755 30.5914 45.6574C31.0041 45.0393 31.5461 44.5182 32.18 44.1302C33.58 43.3202 35.01 42.5402 36.43 41.7602C36.61 41.6602 36.8 41.5902 37.07 41.4702Z" fill="black"/>
<path d="M40.9496 40.4201L38.3996 42.0601C38.2395 42.1516 38.1 42.2753 37.9899 42.4233C37.8797 42.5713 37.8014 42.7404 37.7596 42.9201C37.5335 43.7956 37.0764 44.5944 36.4361 45.2329C35.7958 45.8714 34.9958 46.3263 34.1196 46.55C34.0298 46.5578 33.9394 46.5578 33.8496 46.55C33.9253 45.7389 34.1958 44.958 34.638 44.2738C35.0802 43.5896 35.6811 43.0223 36.3896 42.6201C37.5696 41.9601 38.7696 41.3501 39.9696 40.7301C40.2696 40.5701 40.5796 40.4501 40.8896 40.3101L40.9496 40.4201Z" fill="black"/>
<path d="M30.1204 43.2199C29.4204 43.6199 28.7204 44.0299 28.0104 44.4199C27.4852 44.708 27.0414 45.1242 26.7204 45.6299C26.233 46.3956 25.5465 47.0142 24.7344 47.4194C23.9223 47.8246 23.0152 48.001 22.1104 47.9299C22.2204 47.6899 22.3004 47.5099 22.3904 47.3299C22.7824 46.5846 23.3528 45.9479 24.0508 45.4768C24.7488 45.0057 25.5525 44.7147 26.3904 44.6299C26.9218 44.5044 27.4334 44.3059 27.9104 44.0399C28.6104 43.7399 29.3004 43.4199 30.0004 43.1099L30.1204 43.2199Z" fill="black"/>
<path d="M20.0199 42.5801C20.4178 42.4789 20.8388 42.5243 21.206 42.7079C21.5732 42.8915 21.8621 43.2011 22.0199 43.5801C22.2988 44.1672 22.3401 44.8393 22.1351 45.4561C21.9301 46.0729 21.4948 46.5867 20.9199 46.8901C20.5861 46.952 20.2419 46.9279 19.9199 46.8201C21.3399 46.2101 21.9899 45.3701 21.9199 44.2701C21.8499 43.1701 21.2399 42.8101 20.0199 42.5801Z" fill="black"/>
<path d="M21.0097 45.2202C20.796 45.7473 20.3839 46.1694 19.8622 46.3957C19.3404 46.622 18.7506 46.6344 18.2197 46.4302C19.2702 46.3984 20.2686 45.9654 21.0097 45.2202V45.2202Z" fill="black"/>
</g>
<defs>
<clipPath id="clip0_923_4957">
<rect width="53.57" height="53.57" fill="white"/>
</clipPath>
</defs>
</svg>
