<svg width="54" height="54" viewBox="0 0 54 54" fill="none" xmlns="http://www.w3.org/2000/svg">
<path d="M8.25978 16.4497C12.2798 24.1097 13.8398 34.5597 13.2398 40.1197C12.7698 44.5497 8.15977 54.8497 3.14977 53.9297C-1.86023 53.0097 0.449777 44.1597 1.08978 41.7897C3.43978 33.1097 9.33978 28.9697 8.25978 16.4497Z" fill="black"/>
<path d="M12.3496 12.3496L43.3296 43.3196C53.4796 33.1796 21.0696 17.0596 12.3496 12.3496Z" fill="black"/>
<path d="M43.3294 43.3296L12.3594 12.3496C17.0594 21.0696 33.1794 53.4796 43.3294 43.3296Z" fill="black"/>
<path d="M16.4502 8.25978C24.1102 12.2798 34.5602 13.8398 40.1202 13.2398C44.5502 12.7698 54.8502 8.15977 53.9302 3.14977C53.0102 -1.86023 44.1602 0.449777 41.7902 1.08978C33.1102 3.43978 28.9702 9.32978 16.4502 8.25978Z" fill="black"/>
</svg>
