<?xml version="1.0" encoding="UTF-8"?><svg id="Layer_1" xmlns="http://www.w3.org/2000/svg" viewBox="0 0 65 64.88"><defs><style>.cls-1{fill:#4e534a;}.cls-2{fill-rule:evenodd;}</style></defs><path class="cls-1" d="M52.7,56.21h.04s-.02,.01-.04,0Z"/><path class="cls-1" d="M24.29,43.65v4.76h-.01v-4.76Z"/><path class="cls-2" d="M64.48,54.28s.02,.07,.03,.11c.05,.14,.09,.29,.14,.43,.11,.3,.21,.6,.28,.93,.18,1.15,0,2.37-.47,3.53v.11c-.03,.07-.07,.13-.11,.18-.03,.05-.06,.09-.09,.14-.01,.03-.03,.06-.05,.08-.01,.02-.03,.03-.04,.05-1.26,2.82-4.05,4.88-7.25,5.02-3.87,.17-7.57-2.85-8.16-6.79-.03-.21-.04-.42-.06-.63-.01-.14-.02-.28-.04-.42-.3-.94-.34-2.11-.26-3.57,0-.1-.01-.21-.02-.31,0-.11-.01-.21-.02-.31h-7.79v2.76s0,.07,0,.11c0,.07,0,.15,0,.21v.96c-.05,4.34-3.64,7.92-7.98,7.98-4.36,.06-8.09-3.59-8.15-8v-.22c-.22-1.01-.2-2.22-.02-3.83h-7.92c0,.44,0,.85,0,1.25,0,.78,.02,1.52,0,2.26-.13,3.94-2.42,6.91-5.53,8-.24,.1-.49,.17-.74,.24-.07,.02-.14,.03-.2,.05-.09,.03-.18,.05-.28,.07-.59,.13-1.2,.2-1.81,.18-3.22-.14-6.03-2.24-7.27-5.09-.02-.05-.05-.09-.08-.13-.03-.04-.06-.08-.08-.13-.01-.1-.03-.2-.05-.29-.01-.06-.02-.12-.03-.18-.22-.67-.38-1.37-.42-2.1-.08-1.74,.5-3.44,1.51-4.84,.1-.16,.19-.3,.3-.44,.01-.01,.02-.02,.03-.04,0-.01,.02-.02,.03-.04,1.29-1.66,3.2-2.74,5.68-3.06,.97-.13,1.98-.11,2.98-.07h.05c.47-.02,.94-.05,1.43-.08v-7.8h.08v-.11c-.49,0-.96,0-1.42,0-.9,0-1.75,0-2.62,0-4.33-.06-7.91-3.64-7.98-7.98-.07-4.36,3.58-8.1,7.98-8.16,.9,0,1.8,0,2.7,0,.45,0,.9,0,1.35,0v-7.8c-.59-.04-1.17-.07-1.74-.1-1.21-.06-2.37-.12-3.52-.29C2.93,15.53-.1,11.81,.09,7.94,.3,3.71,3.82,.2,8.03,0c3.87-.17,7.57,2.85,8.16,6.79,.19,1.24,.25,2.49,.32,3.73,.03,.5,.05,1.01,.09,1.51h7.79c0-.49,0-.97,0-1.43,0-.9,0-1.76,0-2.62C24.44,3.65,28.03,.07,32.37,0c4.36-.06,8.09,3.59,8.15,8,0,.91,0,1.81,0,2.7,0,.45,0,.9,0,1.34h7.93c0-.44,0-.85,0-1.25,0-.78-.02-1.52,0-2.26,.13-3.94,2.42-6.91,5.53-8,.24-.1,.49-.17,.74-.24,.07-.02,.14-.03,.2-.05,.09-.03,.18-.05,.28-.07,.6-.13,1.21-.2,1.83-.18,3.23,.14,6.03,2.24,7.27,5.09,.02,.05,.05,.09,.08,.13,.03,.04,.06,.08,.08,.13,.01,.1,.03,.2,.05,.29,.01,.06,.02,.12,.03,.18,.22,.67,.38,1.37,.42,2.1,.19,3.87-2.84,7.59-6.77,8.18h-.05c-1.19,.26-2.46,.34-3.79,.31h0c-.47,.02-.94,.05-1.43,.08v7.8h.95c.43,0,.85,0,1.25-.02,.91-.02,1.76-.04,2.6,.1,4.06,.44,7.32,3.97,7.25,8.07-.02,.9-.22,1.77-.52,2.58h0s-.01,.02-.01,.02c-1.08,2.92-3.79,5.07-6.99,5.31-1.26,.18-2.61,.18-3.99,.06h-.53v7.92c.16,0,.3,.01,.45,.02,.1,0,.19,0,.3,.01,1.25-.07,2.46-.06,3.59,.1,.04,0,.07,0,.11,0s.07,0,.11,0c.08,.01,.15,.03,.22,.05,.06,.01,.12,.03,.18,.04,.13,.02,.26,.05,.4,.08,3.09,.65,5.14,2.55,6.12,5.36,.03,.08,.06,.16,.08,.24ZM32.45,4.28c-2.02-.01-3.48,1.09-3.83,3.18-.17,1.01-.18,2.06-.2,3.13,0,.49-.02,.99-.04,1.49h8.09c0-.34,0-.66,0-.98,0-.91,0-1.74-.01-2.57-.01-.35-.08-.7-.16-1.05h0c-.47-2.09-1.83-3.21-3.85-3.22Zm-3.88,12.18v7.74h7.77v-7.74h-7.77Zm7.77,19.79v-7.81h-7.81v7.81h7.81Zm-12.1-19.8h-7.65v7.73h7.65v-7.73Zm.01,12.03h-7.71v7.82h7.71v-7.82ZM4.36,8.01c-.06,2.19,1.43,3.98,3.56,4.13,.9,.06,1.82,.05,2.8,.03,.48,0,.99-.02,1.51-.02,0-.52,0-1.01,.02-1.49,.02-.98,.03-1.89-.03-2.8-.16-2.13-1.95-3.64-4.11-3.58-2.05,.05-3.69,1.67-3.75,3.72Zm0,24.31c-.02,1.92,.97,3.44,2.82,3.81,1.07,.21,2.18,.26,3.37,.3,.52,.02,1.05,.04,1.6,.08v-8.24c-.55,.04-1.08,.06-1.61,.08-1.17,.05-2.3,.09-3.4,.3-1.78,.35-2.76,1.85-2.79,3.66ZM57.04,12.29c2.13-.16,3.62-1.95,3.56-4.13-.06-2.05-1.69-3.68-3.75-3.73-2.17-.06-3.95,1.45-4.11,3.58-.06,.91-.05,1.82-.03,2.8h0c0,.48,.02,.97,.02,1.49,.53,0,1.03,0,1.51,.02h0c.98,.02,1.89,.03,2.8-.03Zm-16.34,12.04h7.65v-7.73h-7.65v7.73Zm0,12.12h7.71v-7.82h-7.71v7.82Zm19.9-3.99c.02,1.92-.97,3.44-2.82,3.81-1.08,.21-2.19,.26-3.37,.3h0c-.52,.02-1.05,.04-1.6,.08v-8.24c.55,.04,1.08,.06,1.61,.08h0c1.17,.05,2.3,.09,3.4,.3,1.78,.35,2.76,1.85,2.79,3.66Zm-12.23,8.24v7.73h-7.65v-7.73h7.65Zm5.81,12.01h0c1.01-.02,1.94-.03,2.87,.04,2.13,.16,3.62,1.95,3.56,4.13-.03,1.03-.45,1.95-1.13,2.62-.67,.67-1.58,1.09-2.61,1.12-2.17,.07-3.97-1.43-4.12-3.56-.06-.87-.05-1.74-.04-2.68h0c0-.52,.02-1.06,.01-1.63h.01v-.02c.5,0,.98,0,1.44-.02Zm-17.83,4.7c-.35,2.09-1.81,3.2-3.83,3.18-2.02-.01-3.38-1.13-3.85-3.22h0c-.07-.35-.14-.7-.16-1.05-.02-.83-.02-1.66-.01-2.57h0c0-.32,0-.64,0-.98h8.09c-.02,.5-.03,1-.04,1.49h0c-.02,1.08-.04,2.12-.2,3.13Zm.05-9v-7.74h-7.77v7.74h7.77Zm-28.47,4.18c-2.13,.16-3.62,1.95-3.56,4.13,.06,2.05,1.69,3.68,3.75,3.72,2.17,.06,3.95-1.45,4.11-3.58,.06-.91,.05-1.82,.03-2.8h0c0-.48-.02-.97-.02-1.49-.53,0-1.03,0-1.51-.02h0c-.99-.02-1.9-.03-2.8,.03Zm16.38-4.18v-7.74h-7.77v7.74h7.77Z"/></svg>