<?xml version="1.0" encoding="UTF-8"?><svg id="Layer_1" xmlns="http://www.w3.org/2000/svg" viewBox="0 0 53.9 65"><path d="M53.9,4.61c-3.94,3.94-7.87,7.87-11.81,11.81-.06,.06-.13,.13-.22,.22-.23-.28-.43-.52-.63-.78-.41-.58-.58-1.26-.67-1.95-.17-1.2-.34-2.41-.46-3.61-.13-1.24-.23-2.47-.16-3.72,.08-1.35,.6-2.48,1.7-3.29,.92-.69,1.88-1.31,2.83-1.96,.33-.23,.65-.45,.96-.67,.12-.08,.22-.22,.16-.37-.06-.17-.2-.28-.37-.28s-.35,0-.52,.04c-1.5,.4-2.87,1.08-4.07,2.03-1,.78-1.79,1.77-2.37,2.91-.04,.06-.1,.13-.17,.16-.64,.24-1.2,.59-1.75,1-1.3,.99-2.36,2.19-3.19,3.6-.11,.19-.18,.42-.41,.55-1.31,.73-2.5,1.63-3.46,2.81-.63,.77-1.18,1.59-1.64,2.46-.06,.12-.17,.22-.29,.29-.61,.39-1.25,.75-1.85,1.16-.77,.53-1.42,1.18-2.02,1.9-.59,.71-1.11,1.46-1.53,2.26-.14,.28-.34,.47-.61,.61-.88,.46-1.71,.99-2.44,1.65-1.19,1.07-2.14,2.34-2.88,3.76-.05,.1-.13,.18-.23,.24-.13,.1-.28,.16-.42,.23-.84,.47-1.65,.99-2.36,1.64-.83,.76-1.53,1.61-2.13,2.56-.84,1.31-1.5,2.72-1.79,4.25-.33,1.69-.54,3.41-.77,5.1-.2,1.59-.37,3.17-.76,4.72-.49,2.05-1.18,4.02-2.01,5.95-.18,.42-.33,.88-.73,1.17-.02,.02-.01,.17,.04,.22,.11,.13,.24,.25,.36,.37-1.46,1.46-2.91,2.91-4.37,4.37-.01-.06-.02-.08-.02-.11-.3-2.83-.9,2.58-.82,2.49,3.94-3.94,7.87-7.87,11.81-11.81l.22-.22c.23,.28,.43,.52,.63,.78,.41,.58,.58,1.26,.67,1.95,.17,1.2,.34,2.41,.46,3.61,.13,1.24,.23,2.47,.16,3.72-.08,1.35-.6,2.48-1.69,3.29-.91,.69-1.89,1.31-2.83,1.96-.33,.23-.65,.45-.96,.67-.12,.08-.22,.22-.16,.37,.06,.17,.2,.28,.37,.28s.35,0,.52-.04c1.5-.4,2.87-1.08,4.07-2.03,1-.78,1.79-1.77,2.37-2.91,.04-.06,.1-.13,.17-.16,.64-.24,1.2-.59,1.75-1,1.3-.99,2.36-2.19,3.19-3.6,.11-.19,.18-.42,.41-.55,1.31-.73,2.5-1.63,3.46-2.81,.63-.77,1.18-1.59,1.64-2.46,.06-.12,.17-.22,.29-.29,.61-.39,1.25-.75,1.84-1.16,.77-.53,1.42-1.18,2.02-1.9,.59-.71,1.11-1.46,1.53-2.26,.14-.28,.34-.47,.61-.61,.88-.46,1.71-.99,2.44-1.65,1.19-1.07,2.14-2.34,2.88-3.76,.05-.1,.13-.18,.23-.24,.13-.1,.28-.16,.42-.23,.84-.47,1.65-.99,2.36-1.64,.83-.76,1.53-1.61,2.13-2.56,.84-1.31,1.5-2.72,1.79-4.25,.33-1.69,.54-3.41,.77-5.1,.2-1.59,.37-3.17,.76-4.72,.49-2.05,1.18-4.02,2.01-5.95,.18-.42,.33-.88,.73-1.17,.02-.02,.01-.17-.04-.22-.11-.13-.24-.25-.36-.37,1.46-1.46,2.91-2.91,4.37-4.37,.01,.06,.02,.08,.02,.11,.3,2.82,.89-2.58,.82-2.49Zm-18.96,5.45c.57-1.17,1.4-2.13,2.41-2.93,.01-.01,.02-.01,.06-.02,0,.06,0,.11-.01,.16-.25,1.29-.33,2.6-.24,3.91,.14,2.52-.19,4.97-.94,7.37-.26,.84-.58,1.67-.87,2.52-.02,.06-.05,.11-.07,.16-.02,0-.04,0-.06,.01-.06-.14-.12-.29-.17-.45-.35-1.08-.51-2.22-.6-3.35-.12-1.46-.17-2.91-.25-4.38-.06-1.07,.29-2.06,.75-3Zm-6.28,9.39c.12-1.72,.55-3.36,1.49-4.83,.51-.81,1.12-1.53,1.82-2.18,.01-.01,.05-.02,.07-.04,.01,.04,.02,.05,.02,.07-.29,1.37-.33,2.78-.43,4.18-.2,2.65-.49,5.3-1.19,7.87-.25,.92-.59,1.79-.89,2.7-.02,.08-.07,.16-.12,.25-.2-.19-.3-.42-.34-.65-.12-.69-.22-1.37-.31-2.06-.22-1.77-.24-3.55-.12-5.32Zm-5.71,5.02c.17-1.44,.61-2.82,1.41-4.06,.63-.99,1.38-1.87,2.3-2.59,.01-.01,.04-.01,.08-.02-.06,.22-.13,.41-.17,.61-.23,1.35-.46,2.7-.66,4.05-.26,1.78-.37,3.59-.76,5.35-.39,1.76-.92,3.48-1.55,5.16-.01,.04-.04,.07-.08,.17-.08-.2-.18-.35-.2-.51-.11-.65-.22-1.3-.3-1.96-.25-2.06-.31-4.13-.06-6.2Zm-5.91,6.6c.08-1.55,.46-3.03,1.23-4.39,.67-1.2,1.55-2.23,2.65-3.11,.01,.05,.01,.07,.01,.1-.42,1.4-.57,2.84-.77,4.27-.22,1.61-.4,3.24-.65,4.84-.29,1.79-.82,3.53-1.43,5.25-.11,.3-.23,.6-.35,.91-.02,0-.06,0-.08,.01-.08-.25-.2-.49-.23-.75-.14-1.22-.33-2.43-.39-3.66-.06-1.17-.04-2.32,.01-3.48Zm-5.73,5.16c.16-1.32,.51-2.59,1.17-3.76,.66-1.18,1.5-2.19,2.56-3.05,.01-.01,.04-.01,.08-.04-.06,.22-.13,.41-.17,.61-.23,1.36-.46,2.71-.66,4.07-.26,1.78-.37,3.59-.76,5.36-.39,1.75-.9,3.46-1.54,5.13-.01,.05-.05,.08-.06,.13-.02,0-.05,.01-.07,.01-.07-.24-.19-.48-.23-.72-.14-1.22-.31-2.42-.4-3.64-.08-1.37-.1-2.74,.07-4.12Zm7.68,18.71c-.57,1.17-1.4,2.13-2.41,2.93-.01,.01-.02,.01-.06,.02,0-.06,0-.11,.01-.16,.25-1.29,.33-2.6,.24-3.91-.14-2.52,.19-4.97,.94-7.37,.26-.84,.58-1.67,.87-2.52,.02-.06,.05-.11,.07-.16,.02,0,.04,0,.06-.01,.06,.14,.12,.29,.17,.45,.35,1.08,.51,2.22,.6,3.35,.12,1.46,.17,2.91,.25,4.38,.05,1.07-.29,2.06-.75,3Zm6.28-9.39c-.12,1.72-.55,3.36-1.49,4.83-.51,.81-1.12,1.53-1.82,2.18-.01,.01-.05,.02-.07,.04-.01-.04-.02-.05-.02-.07,.29-1.37,.33-2.78,.43-4.18,.2-2.65,.49-5.3,1.19-7.87,.24-.92,.59-1.79,.89-2.7,.02-.08,.07-.16,.12-.25,.2,.19,.3,.42,.34,.65,.12,.69,.22,1.37,.31,2.06,.22,1.77,.24,3.54,.12,5.32Zm5.71-5.02c-.17,1.44-.61,2.82-1.4,4.06-.63,.99-1.38,1.87-2.3,2.59-.01,.01-.04,.01-.08,.02,.06-.22,.13-.41,.17-.61,.23-1.35,.46-2.7,.66-4.05,.26-1.78,.37-3.59,.76-5.35,.39-1.76,.92-3.48,1.55-5.16,.01-.04,.04-.07,.08-.17,.08,.2,.18,.35,.2,.51,.11,.65,.22,1.3,.3,1.96,.23,2.06,.29,4.13,.05,6.2Zm5.9-6.61c-.08,1.55-.46,3.03-1.23,4.39-.67,1.2-1.55,2.23-2.65,3.11-.01-.05-.01-.07-.01-.1,.42-1.4,.57-2.84,.77-4.27,.22-1.61,.4-3.24,.65-4.84,.29-1.79,.82-3.53,1.43-5.25,.11-.3,.23-.6,.34-.92,.02,0,.06,0,.08-.01,.08,.25,.2,.49,.23,.75,.14,1.22,.33,2.43,.39,3.66,.08,1.17,.06,2.34,0,3.48Zm5.73-5.16c-.16,1.32-.52,2.59-1.17,3.76-.66,1.18-1.51,2.19-2.56,3.05-.01,.01-.04,.01-.08,.04,.06-.22,.13-.41,.17-.61,.23-1.36,.46-2.71,.66-4.07,.26-1.78,.37-3.59,.76-5.36,.39-1.75,.9-3.46,1.54-5.13,.01-.05,.05-.08,.06-.13,.02,0,.05-.01,.07-.01,.07,.24,.19,.48,.23,.72,.14,1.22,.31,2.42,.4,3.64,.1,1.38,.1,2.76-.07,4.12Z"/></svg>