<svg width="9" height="9" viewBox="0 0 9 9" fill="none" xmlns="http://www.w3.org/2000/svg">
<g clip-path="url(#clip0)">
<path fill-rule="evenodd" clip-rule="evenodd" d="M0.295052 5.2076C1.76307 6.02848 2.97482 7.24023 3.7957 8.70825C3.9817 8.89536 4.23411 9.00141 4.49794 9.00328C4.76177 9.00516 5.01565 8.90271 5.20429 8.71825C5.60656 7.98341 6.11176 7.30981 6.70457 6.71788C7.29422 6.11968 7.96813 5.61088 8.70494 5.2076C8.89021 5.02035 8.99414 4.76756 8.99414 4.50414C8.99414 4.24072 8.89021 3.98793 8.70494 3.80067C7.23692 2.97979 6.02518 1.76805 5.20429 0.300026C5.01697 0.114247 4.76383 0.0100098 4.5 0.0100098C4.23617 0.0100098 3.98303 0.114247 3.7957 0.300026C2.97482 1.76805 1.76307 2.97979 0.295052 3.80067C0.109779 3.98793 0.00585938 4.24072 0.00585938 4.50414C0.00585938 4.76756 0.109779 5.02035 0.295052 5.2076ZM7.50805 4.50078C7.50805 6.16163 6.16167 7.50801 4.50083 7.50801C2.83998 7.50801 1.4936 6.16163 1.4936 4.50078C1.4936 2.83994 2.83998 1.49356 4.50083 1.49356C6.16167 1.49356 7.50805 2.83994 7.50805 4.50078Z" fill="white"/>
<path d="M7.38854 7.38484C7.38854 7.38484 7.38854 6.51634 4.50301 6.51634C1.61747 6.51634 1.61914 7.38484 1.61914 7.38484C1.61914 7.38484 2.48764 7.38484 2.48764 4.4993C2.48764 1.61377 1.61914 1.61377 1.61914 1.61377C1.61914 1.61377 1.61914 2.48393 4.50301 2.48393C7.38688 2.48393 7.38854 1.61377 7.38854 1.61377C7.38854 1.61377 6.52005 1.61377 6.52005 4.4993C6.52005 7.38484 7.38854 7.38484 7.38854 7.38484Z" fill="white"/>
<path d="M5.94434 3.05226C5.94434 3.05226 8.16975 -0.338369 8.75319 0.243405C9.36164 0.851851 5.94434 3.05226 5.94434 3.05226Z" fill="white"/>
<path d="M3.0534 3.05386C3.0534 3.05386 -0.33723 0.828453 0.246212 0.246679C0.851324 -0.361767 3.0534 3.05386 3.0534 3.05386Z" fill="white"/>
<path d="M3.05328 5.92432C3.05328 5.92432 0.827864 9.31494 0.24609 8.7315C-0.360689 8.12972 3.05328 5.92432 3.05328 5.92432Z" fill="white"/>
<path d="M5.94922 5.92114C5.94922 5.92114 9.33818 8.14656 8.75641 8.73C8.14796 9.33844 5.94922 5.92114 5.94922 5.92114Z" fill="white"/>
</g>
<defs>
<clipPath id="clip0">
<rect width="9" height="9" fill="white"/>
</clipPath>
</defs>
</svg>
