<svg width="54" height="49" viewBox="0 0 54 49" fill="none" xmlns="http://www.w3.org/2000/svg">
<path d="M33.1366 34.2646C33.3266 36.9646 33.7766 39.0847 34.6966 39.6947C33.3666 39.6247 32.4266 37.5747 31.8266 34.7547C31.7566 37.8747 31.7066 40.4846 31.7666 41.4346C31.3566 40.3846 30.8866 37.6447 30.5466 34.4147C30.5266 37.2547 30.6266 40.4047 31.2566 42.4247C30.2966 40.6547 29.4066 37.6347 28.9566 34.8147C29.1466 38.0647 29.6266 41.4646 30.8466 43.6546C29.1666 41.8146 27.9166 38.0647 27.2966 34.4747C27.8966 37.8547 28.4866 41.1447 28.9466 43.4247C28.4066 42.5747 27.2866 39.4847 26.1966 35.8247C26.2666 39.7447 26.6566 43.1747 27.8666 43.9747C26.3766 43.8947 25.3566 41.3047 24.7866 37.9247C24.5366 41.1147 24.6566 43.7647 25.6666 44.3247C25.7866 44.3847 25.9166 44.4247 26.0466 44.4447C25.9066 44.4347 25.7866 44.3947 25.6666 44.3247C24.2266 43.6447 23.5666 40.4247 23.4866 36.7847C23.1166 40.1747 23.0766 43.1947 24.0566 43.7547C22.8766 43.1847 22.3466 40.4847 22.2666 37.3647C21.0566 38.9447 20.2066 41.8046 22.3466 44.4046C24.7466 47.3246 23.9066 45.6547 26.5666 47.5847C29.2266 49.5147 33.7666 48.9447 35.8466 44.6647C37.9366 40.3847 38.4566 38.0447 39.2366 37.2047C39.9966 36.4147 35.1066 36.4346 33.1366 34.2646Z" fill="#5F250F"/>
<path d="M40.0465 27.0949C40.4965 27.0949 39.9265 26.6949 39.8365 26.6349C39.4865 26.3949 38.9565 26.2349 38.5265 26.2349C38.0765 26.2349 38.6465 26.6349 38.7365 26.6949C39.0865 26.9249 39.6165 27.0949 40.0465 27.0949Z" fill="#5F250F"/>
<path d="M34.4566 16.1847C34.4566 16.1847 36.0666 12.4547 40.3966 11.8647C44.7166 11.2747 46.4566 14.8347 47.5166 16.1847C48.5766 17.5347 53.1166 19.6647 53.5366 22.2947C53.9566 24.9247 51.2066 22.5447 45.6466 30.6447C40.0966 38.7447 33.0166 30.4747 33.0166 30.4747C33.0166 30.4747 33.4366 29.5447 34.7166 29.9647C35.9866 30.3847 38.7066 31.8747 40.6566 31.7847C40.6566 31.7847 36.2066 29.6247 35.0566 28.0147C35.0566 28.0147 38.2766 30.3447 43.3066 29.4547C43.3066 29.4547 38.2366 28.3147 35.4866 26.4047C35.4866 26.4047 39.2566 27.7147 43.8366 27.2147C43.8366 27.2147 39.6866 26.7447 36.4566 24.5847C36.4566 24.5847 42.2266 26.0247 46.2066 25.6047C46.2066 25.6047 39.0366 24.1647 38.2366 23.4847C38.2366 23.4847 43.1566 23.4947 44.9766 23.0047C44.9766 23.0047 39.5066 22.2947 37.7266 20.6047C37.7266 20.6047 42.6566 21.2447 46.3366 19.7247C46.3366 19.7247 42.4766 18.0247 38.1566 19.1247C38.1566 19.1247 39.7266 17.5547 45.6166 16.6247C45.6166 16.6247 40.9066 16.0747 37.3966 17.2647C37.3966 17.2647 39.9366 14.9347 43.0366 14.3347C43.0266 14.3147 38.9066 12.7047 34.4566 16.1847Z" fill="#5F250F"/>
<path d="M35.1261 18.1247C35.1261 18.1247 30.8361 12.9847 24.1261 14.1947C17.4161 15.4047 17.6261 19.7947 16.5561 19.7447C15.4861 19.6947 10.6961 20.3247 11.4161 23.5147C12.1261 26.6947 15.6261 27.5847 17.1961 28.4247C18.7661 29.2647 18.9861 34.2747 28.1261 33.8447C28.1261 33.8447 26.4161 33.8247 24.5861 32.5747C24.5861 32.5747 28.0361 32.4147 29.1861 31.6347C29.1861 31.6347 24.0061 32.1047 21.9161 31.3747C21.9161 31.3747 29.8661 30.6947 32.5261 28.6547C32.5261 28.6547 26.0961 30.1747 23.6361 29.8047C23.6361 29.8047 30.5361 27.4547 31.5861 27.4547C31.5861 27.4547 24.7861 27.0347 23.5861 27.5047C23.5861 27.5047 31.1661 25.2047 33.0961 25.1547C33.0961 25.1547 23.8461 25.5747 21.8061 24.8447C21.8061 24.8447 31.8461 24.3747 34.1961 23.0147C34.1961 23.0147 25.6261 23.0147 23.5861 22.2847C23.5861 22.2847 27.1962 20.9547 32.7862 21.2247C32.7862 21.2247 27.9761 19.8747 23.6361 19.5147C23.6361 19.5147 26.1961 18.5247 32.3661 18.4647C32.3661 18.4647 25.2161 16.4247 23.2261 16.5847C23.2261 16.5747 27.4161 14.5947 35.1261 18.1247Z" fill="#5F250F"/>
<path d="M28.2766 12.0547C28.2766 12.0547 28.6766 2.25474 29.9566 1.91474C31.2466 1.56474 36.0466 1.42474 37.1766 0.524742C38.3166 -0.365258 38.8566 -0.115255 39.8466 1.21474C40.8366 2.55474 45.3366 5.66474 45.2366 6.75474C45.1366 7.84474 45.1866 10.5647 43.2066 10.3647C43.2066 10.3647 44.6366 9.17473 43.8966 8.48473C43.8966 8.48473 40.4366 10.6147 39.4966 10.7147C39.4966 10.7147 42.6166 7.59474 42.3666 6.85474C42.3666 6.85474 37.2166 11.0347 36.4566 11.2247C36.4566 11.2247 39.6166 7.79473 39.5966 6.01473C39.5966 6.01473 34.4966 10.5747 33.8166 11.7647C33.8166 11.7647 36.1866 6.23474 37.6066 4.81474C37.6066 4.81474 33.0866 8.66473 32.3866 10.4847C32.3866 10.4847 34.4166 5.23474 34.6966 4.28474C34.6966 4.28474 31.2266 6.91473 30.8766 10.0947C30.8766 10.0947 30.8366 6.52475 31.1566 5.71475C31.4866 4.93475 28.2466 8.94474 28.2766 12.0547Z" fill="#5F250F"/>
<path d="M7.89646 22.3047C7.89646 22.3047 5.59645 21.4647 4.75645 21.8847C3.91645 22.3047 3.67645 24.3947 2.94645 24.8447C2.21645 25.2947 0.396455 26.3447 1.23646 27.8047C2.07646 29.2647 1.58645 31.4547 2.90645 31.5347C4.34645 31.6247 7.05646 28.9147 7.89646 28.9847C7.89646 28.9847 5.73646 29.0147 4.45646 29.1247C4.45646 29.1247 6.31646 27.8847 9.81646 26.6447C9.81646 26.6447 5.49645 27.2947 4.65645 27.2947C4.65645 27.2947 8.20645 25.4547 9.04645 25.4547C9.04645 25.4547 6.63645 24.9347 4.58645 25.5947C4.58645 25.5947 7.68645 23.7447 8.90645 23.8147C8.90645 23.8147 7.09646 23.3547 5.24646 23.5747C5.24646 23.5947 5.41646 22.4047 7.89646 22.3047Z" fill="#5F250F"/>
<path d="M13.1761 17.2845C13.1761 17.2845 9.48613 13.4445 8.55613 12.4545C7.63613 11.4645 5.42613 12.6645 4.29613 12.4545C3.15613 12.2445 1.16614 13.5945 1.24614 15.5045C1.31614 17.4245 0.466138 18.3545 0.036138 18.9945C-0.393862 19.6345 3.08614 21.2645 6.60614 21.0445C6.60614 21.0445 3.77613 20.2745 2.75613 18.9945C2.75613 18.9945 5.15613 19.7545 6.58613 19.6845C6.58613 19.6845 3.68614 18.3845 3.24614 16.8545C3.24614 16.8545 7.15613 19.1145 8.94613 19.1145C8.94613 19.1145 4.96614 17.1745 4.39614 15.8045C4.39614 15.8045 9.32613 18.4745 10.7261 17.9045C10.7261 17.9045 6.92614 16.0945 5.91614 14.2745C5.91614 14.2745 11.6861 17.3245 13.1761 17.2845Z" fill="#5F250F"/>
<path d="M14.3063 29.1446C14.3063 29.1446 12.6163 28.1446 10.5963 29.1446C8.5763 30.1446 4.9163 32.3146 5.4863 33.1246C6.0463 33.9346 5.4863 37.5146 5.9963 38.6446C6.5063 39.7746 10.5663 39.2346 11.8063 40.2346C13.0463 41.2346 18.0763 43.6746 21.5763 36.6246C21.5763 36.6246 18.9963 39.6646 16.7863 39.3146C16.7863 39.3146 18.5063 36.5146 18.1863 35.6046C18.1863 35.6046 15.6263 39.0246 14.5563 39.0446C14.5563 39.0446 15.1463 36.0546 16.6863 34.8746C16.6863 34.8746 12.4563 36.4846 11.4663 38.1046C11.4663 38.1046 14.1863 34.4146 15.7963 33.4246C15.7963 33.4246 9.7963 35.9846 9.4763 36.5946C9.4763 36.5946 9.6663 34.8446 14.8863 32.6946C14.8863 32.6946 10.7963 32.6946 9.7763 33.5546C9.7763 33.5546 11.5763 31.6746 16.3363 30.9446C16.3363 30.9446 11.4663 30.3846 9.6363 31.3246C9.6163 31.3246 10.8363 29.2546 14.3063 29.1446Z" fill="#5F250F"/>
<path d="M26.5264 12.3347C26.5264 12.3347 28.3764 6.11475 25.0664 5.57475C21.7564 5.03475 23.2664 3.24474 19.1364 4.16474C15.0064 5.08474 12.9164 4.01474 11.3564 6.64474C9.79639 9.27474 10.5764 9.36474 9.89639 10.1947C9.21639 11.0247 11.3064 14.4947 14.8064 15.4847C14.8064 15.4847 11.0164 12.8747 11.3564 10.4947C11.3564 10.4947 13.8364 13.5047 15.3864 13.9447C15.3864 13.9447 12.7564 10.4447 12.4664 8.88474C12.4664 8.88474 15.9664 13.0147 17.0364 13.3047C17.0364 13.3047 13.6864 7.86474 14.5564 7.81474C14.5564 7.81474 18.3464 12.1947 19.0764 12.2347C19.0764 12.2347 16.7964 6.25474 17.4764 6.25474C17.4764 6.25474 20.9764 10.5347 21.2664 11.6047C21.2664 11.6047 20.4864 7.08474 19.8064 6.06474C19.8064 6.06474 22.1864 9.12474 22.7764 11.5547C22.7764 11.5547 22.6764 7.03474 22.1964 6.20474C22.1964 6.20474 24.0964 8.53474 24.4364 11.5047C24.4364 11.5047 25.1664 9.07474 25.0664 8.05474L26.5264 12.3347Z" fill="#5F250F"/>
</svg>
