<svg width="52" height="54" viewBox="0 0 52 54" fill="none" xmlns="http://www.w3.org/2000/svg">
<path d="M25.9852 53.9945C22.8952 53.9945 14.9252 44.2645 13.3652 42.3145C7.52519 35.0345 -1.92481 21.3145 0.345194 11.1045C1.58519 5.50451 5.70519 -0.74549 13.1952 0.0745099C19.1152 0.72451 23.5852 5.68451 23.5852 11.6145C23.5852 15.0745 22.4852 17.8845 20.3152 19.9645C18.3852 21.8145 15.9552 22.6945 13.9752 23.1145C14.4952 23.9245 15.1252 24.6445 15.7852 24.9745C16.1952 25.1745 16.5652 25.1845 17.0252 25.0145C18.4552 24.4945 19.3952 24.0945 20.1552 23.7745C22.1952 22.9045 23.0552 22.6145 25.9952 22.6145C28.9352 22.6145 29.7952 22.9145 31.8352 23.7745C32.5952 24.0945 33.5352 24.4945 34.9652 25.0145C35.4252 25.1845 35.7952 25.1745 36.2052 24.9745C36.8652 24.6545 37.4952 23.9245 38.0152 23.1145C36.0252 22.6945 33.6052 21.8145 31.6752 19.9645C29.5052 17.8845 28.4052 15.0745 28.4052 11.6145C28.4052 5.68451 32.8752 0.71451 38.7952 0.0745099C46.2852 -0.75549 50.4052 5.50451 51.6452 11.0945C53.9152 21.3045 44.4652 35.0345 38.6252 42.3045C37.0452 44.2645 29.0752 53.9945 25.9852 53.9945ZM11.9652 4.80451C8.62519 4.80451 6.05519 7.49451 5.02519 12.1445C3.89519 17.2545 6.92519 25.2445 13.5652 34.6245C18.5352 41.6445 23.8452 47.0745 25.9852 48.8145C28.1252 47.0745 33.4452 41.6345 38.4052 34.6245C45.0452 25.2345 48.0752 17.2545 46.9452 12.1445C45.8452 7.17451 42.9752 4.44451 39.2952 4.84451C36.3352 5.16451 33.1852 7.65451 33.1852 11.6245C33.1852 13.7445 33.7652 15.3345 34.9652 16.4945C37.3652 18.8145 41.4952 18.7045 41.5452 18.6945L44.9652 18.5745L43.9252 21.8245C43.7452 22.3945 42.0152 27.4745 38.3152 29.2745C36.7352 30.0445 35.0152 30.1345 33.3252 29.5145C31.7752 28.9545 30.7252 28.5045 29.9552 28.1845C28.3152 27.4945 28.1052 27.4045 25.9852 27.4045C23.8652 27.4045 23.6552 27.4945 22.0152 28.1845C21.2452 28.5045 20.2052 28.9545 18.6552 29.5145C16.9652 30.1245 15.2452 30.0445 13.6652 29.2745C9.96519 27.4645 8.23519 22.3945 8.05519 21.8245L6.99519 18.5445L10.4452 18.6945C10.4752 18.6945 14.6152 18.8145 17.0152 16.4945C18.2152 15.3345 18.7952 13.7445 18.7952 11.6245C18.7952 7.65451 15.6452 5.17451 12.6852 4.84451C12.4252 4.81451 12.1952 4.80451 11.9652 4.80451Z" fill="#5F250F"/>
</svg>
