<svg width="54" height="54" viewBox="0 0 54 54" fill="none" xmlns="http://www.w3.org/2000/svg">
<path d="M26.89 26.9C26.89 26.9 26.89 26.89 26.89 26.9C26.89 26.89 26.89 26.89 26.89 26.9V0C25.2 0 25.03 5.47999 25.36 11.49C24.5 5.52999 23.27 0.189999 21.61 0.529999C20.07 0.839999 20.75 5.52999 22.06 10.88C20.2 5.69999 18.17 1.39999 16.71 1.98999C15.15 2.62999 17.04 7.71 19.6 13.12C16.57 7.96 13.43 3.53999 12.03 4.46999C10.59 5.42999 13.64 10.28 17.35 15.22C13.24 10.6 9.09 6.64 7.87 7.87C6.68 9.06 10.39 13.01 14.84 17.01C10.05 13.43 5.45 10.57 4.51 11.97C3.63 13.29 7.51 16.17 12.27 19.05C7.23 16.66 2.68 15.02 2.06 16.48C1.4 18.04 6.4 20.32 12.08 22.34C6.26 20.83 0.870001 19.9 0.540001 21.56C0.200001 23.26 5.75999 24.52 11.87 25.4C5.71 25.04 0 25.18 0 26.91C0 28.6 5.48 28.77 11.48 28.44C5.52 29.3 0.189997 30.53 0.519997 32.19C0.829997 33.74 5.56 33.05 10.92 31.73C5.72 33.6 1.4 35.63 2 37.09C2.64 38.64 7.69 36.77 13.07 34.23C7.94 37.25 3.54 40.37 4.47 41.77C5.43 43.22 10.3 40.15 15.26 36.43C10.63 40.55 6.65 44.71 7.88 45.94C9.07 47.13 13.01 43.44 16.99 39C13.42 43.78 10.57 48.37 11.97 49.3C13.29 50.18 16.14 46.34 19.01 41.61C16.65 46.61 15.03 51.1 16.49 51.71C18.04 52.36 20.29 47.46 22.3 41.85C20.8 47.62 19.9 52.93 21.55 53.27C23.25 53.61 24.52 48.01 25.4 41.88C25.04 48.07 25.17 53.82 26.9 53.82L26.89 26.9ZM26.89 26.89C26.89 26.89 26.88 26.9 26.89 26.89C26.88 26.9 26.88 26.89 26.89 26.89C26.88 26.89 26.88 26.89 26.89 26.89C26.88 26.89 26.88 26.89 26.89 26.89C26.88 26.88 26.88 26.86 26.88 26.84C26.88 26.87 26.89 26.89 26.89 26.89ZM26.76 26.86C26.82 26.88 26.86 26.89 26.86 26.89C26.86 26.89 26.82 26.86 26.75 26.82C26.81 26.85 26.85 26.87 26.87 26.88L26.88 26.89V26.9H26.87C26.86 26.89 26.82 26.88 26.76 26.86ZM26.87 26.9H26.88C26.88 26.9 26.86 26.9 26.83 26.9C26.85 26.91 26.86 26.9 26.87 26.9Z" fill="#5F250F"/>
<path d="M26.7502 26.9898C26.7502 26.9898 26.7502 26.9998 26.7502 26.9898C26.7502 26.9998 26.7502 26.9998 26.7502 26.9898V53.8898C28.4402 53.8898 28.6102 48.4098 28.2802 42.3998C29.1402 48.3598 30.3702 53.6998 32.0302 53.3598C33.5702 53.0498 32.8902 48.3598 31.5802 43.0098C33.4402 48.1898 35.4702 52.4898 36.9302 51.8998C38.4902 51.2598 36.6002 46.1798 34.0402 40.7698C37.0702 45.9298 40.2102 50.3498 41.6102 49.4198C43.0502 48.4598 40.0002 43.6098 36.2902 38.6698C40.4002 43.2898 44.5502 47.2498 45.7702 46.0198C46.9602 44.8298 43.2502 40.8798 38.8002 36.8798C43.5902 40.4598 48.1902 43.3198 49.1302 41.9198C50.0102 40.5998 46.1302 37.7198 41.3702 34.8398C46.4102 37.2298 50.9602 38.8698 51.5802 37.4098C52.2402 35.8498 47.2402 33.5698 41.5602 31.5498C47.3802 33.0598 52.7702 33.9898 53.1002 32.3298C53.4402 30.6298 47.8802 29.3698 41.7702 28.4898C47.9302 28.8498 53.6402 28.7098 53.6402 26.9798C53.6402 25.2898 48.1602 25.1198 42.1602 25.4498C48.1202 24.5898 53.4502 23.3598 53.1202 21.6998C52.8102 20.1498 48.0802 20.8398 42.7202 22.1598C47.9202 20.2898 52.2402 18.2598 51.6402 16.7998C51.0002 15.2498 45.9502 17.1198 40.5702 19.6598C45.7002 16.6398 50.1002 13.5198 49.1702 12.1198C48.2102 10.6698 43.3402 13.7398 38.3802 17.4598C43.0102 13.3398 46.9902 9.17983 45.7602 7.94983C44.5702 6.75983 40.6302 10.4498 36.6502 14.8898C40.2202 10.1098 43.0702 5.51983 41.6702 4.58983C40.3502 3.70983 37.5002 7.54983 34.6302 12.2798C36.9902 7.27983 38.6102 2.78982 37.1502 2.17982C35.6002 1.52982 33.3502 6.42983 31.3402 12.0398C32.8402 6.26983 33.7402 0.959827 32.0902 0.619827C30.3902 0.279827 29.1202 5.87983 28.2402 12.0098C28.6002 5.81983 28.4702 0.0698242 26.7402 0.0698242L26.7502 26.9898ZM26.7502 26.9998C26.7502 26.9998 26.7602 26.9898 26.7502 26.9998C26.7602 26.9898 26.7602 26.9998 26.7502 26.9998C26.7602 26.9998 26.7602 26.9998 26.7502 26.9998C26.7602 27.0098 26.7602 27.0098 26.7502 26.9998C26.7602 27.0098 26.7602 27.0298 26.7602 27.0498C26.7602 27.0298 26.7502 27.0098 26.7502 26.9998ZM26.8802 27.0298C26.8202 27.0098 26.7802 26.9998 26.7802 26.9998C26.7802 26.9998 26.8202 27.0298 26.8902 27.0698C26.8302 27.0398 26.7902 27.0198 26.7702 27.0098L26.7602 26.9998V26.9898H26.7702C26.7802 26.9998 26.8202 27.0098 26.8802 27.0298ZM26.7702 26.9898H26.7602C26.7602 26.9898 26.7802 26.9898 26.8102 26.9898C26.7902 26.9898 26.7802 26.9898 26.7702 26.9898ZM26.7502 26.9798C26.7502 26.9898 26.7502 26.9898 26.7502 26.9798C26.7502 26.9898 26.7502 26.9798 26.7502 26.9798Z" fill="#5F250F"/>
<path d="M26.8202 38.7302C33.3979 38.7302 38.7302 33.3979 38.7302 26.8202C38.7302 20.2424 33.3979 14.9102 26.8202 14.9102C20.2424 14.9102 14.9102 20.2424 14.9102 26.8202C14.9102 33.3979 20.2424 38.7302 26.8202 38.7302Z" fill="white"/>
<path d="M25.9 14.8198C26.51 14.8198 27.12 14.8198 27.73 14.8198C27.99 14.8598 28.25 14.8898 28.51 14.9398C33.47 15.8298 36.8 18.6298 38.39 23.4198C38.67 24.2598 38.76 25.1598 38.94 26.0298C38.94 26.6398 38.94 27.2498 38.94 27.8598C38.87 28.2598 38.8 28.6598 38.73 29.0698C37.69 35.6898 30.91 40.2398 24.32 38.8198C18.31 37.5298 14.13 31.9098 14.76 25.7398C15.24 21.0298 18.47 16.8898 22.98 15.4598C23.92 15.1598 24.92 15.0298 25.9 14.8198ZM37.09 26.9298C37.07 21.2698 32.43 16.6498 26.79 16.6698C21.13 16.6898 16.51 21.3198 16.53 26.9698C16.55 32.6298 21.18 37.2498 26.83 37.2298C32.49 37.1998 37.11 32.5698 37.09 26.9298Z" fill="#5F250F"/>
<path d="M37.0903 26.93C37.1103 32.57 32.4903 37.21 26.8303 37.23C21.1903 37.25 16.5503 32.63 16.5303 26.97C16.5103 21.33 21.1303 16.69 26.7903 16.67C32.4303 16.65 37.0703 21.27 37.0903 26.93ZM26.5803 32.82C29.0003 32.83 31.1003 31.55 31.9603 29.66C32.1903 29.15 32.1203 28.81 31.7203 28.6C31.3403 28.4 31.0203 28.55 30.7503 29.06C29.4303 31.53 26.3003 32.24 24.0903 30.52C23.6003 30.14 23.2503 29.56 22.8803 29.04C22.6303 28.69 22.4203 28.38 21.9403 28.57C21.5203 28.74 21.4303 29.13 21.6703 29.66C21.7303 29.79 21.7903 29.92 21.8603 30.04C22.9703 31.9 24.6903 32.7 26.5803 32.82ZM23.7303 22.26C22.9403 22.25 22.3303 22.85 22.3203 23.64C22.3103 24.43 22.9003 25.06 23.6803 25.07C24.4503 25.08 25.0903 24.47 25.1103 23.69C25.1303 22.93 24.4903 22.27 23.7303 22.26ZM31.5203 23.65C31.5203 22.86 30.9103 22.25 30.1303 22.25C29.3703 22.25 28.7103 22.91 28.7203 23.66C28.7203 24.41 29.3803 25.06 30.1503 25.05C30.9203 25.06 31.5203 24.45 31.5203 23.65Z" fill="white"/>
<path d="M26.58 32.8199C24.69 32.6999 22.97 31.8999 21.86 30.0499C21.79 29.9299 21.72 29.7999 21.67 29.6699C21.43 29.1399 21.52 28.7499 21.94 28.5799C22.42 28.3899 22.64 28.6999 22.88 29.0499C23.25 29.5699 23.6 30.1399 24.09 30.5299C26.31 32.2499 29.43 31.5399 30.75 29.0699C31.02 28.5599 31.35 28.3999 31.72 28.6099C32.11 28.8199 32.19 29.1599 31.96 29.6699C31.1 31.5399 29 32.8299 26.58 32.8199Z" fill="#5F250F"/>
<path d="M23.7304 22.2599C24.4904 22.2699 25.1304 22.9399 25.1104 23.6899C25.0904 24.4599 24.4504 25.0799 23.6804 25.0699C22.9004 25.0599 22.3104 24.4399 22.3204 23.6399C22.3304 22.8499 22.9404 22.2499 23.7304 22.2599Z" fill="#5F250F"/>
<path d="M31.52 23.6499C31.52 24.4399 30.92 25.0599 30.14 25.0599C29.38 25.0599 28.72 24.4199 28.71 23.6699C28.71 22.9199 29.36 22.2599 30.12 22.2599C30.91 22.2499 31.52 22.8599 31.52 23.6499Z" fill="#5F250F"/>
</svg>
