<svg width="66" height="65" viewBox="0 0 66 65" fill="none" xmlns="http://www.w3.org/2000/svg">
<path d="M33.3007 32.4457C33.3007 32.4457 33.3007 32.4337 33.3007 32.4457C33.3007 32.4337 33.3007 32.4337 33.3007 32.4457V0C31.2623 0 31.0573 6.60975 31.4553 13.8588C30.418 6.67006 28.9344 0.229169 26.9322 0.639264C25.0747 1.01317 25.8949 6.67006 27.475 13.123C25.2315 6.8751 22.783 1.68861 21.022 2.40025C19.1404 3.17219 21.42 9.29949 24.5078 15.8248C20.8531 9.60103 17.0658 4.26979 15.3772 5.39152C13.6403 6.54944 17.3191 12.3993 21.794 18.3577C16.8366 12.7853 11.8311 8.0089 10.3595 9.49248C8.92421 10.9278 13.3991 15.6921 18.7665 20.5168C12.989 16.1987 7.44064 12.7491 6.30685 14.4377C5.24543 16.0299 9.92533 19.5036 15.6667 22.9773C9.5876 20.0946 4.09957 18.1165 3.35175 19.8775C2.55569 21.7591 8.5865 24.5092 15.4375 26.9456C8.41763 25.1243 1.91643 24.0026 1.51839 26.0048C1.1083 28.0553 7.81454 29.5751 15.1842 30.6365C7.75424 30.2023 0.867065 30.3711 0.867065 32.4578C0.867065 34.4962 7.47682 34.7012 14.7138 34.3032C7.52507 35.3405 1.09623 36.8241 1.49426 38.8263C1.86817 40.6958 7.57332 39.8636 14.0383 38.2715C7.7663 40.527 2.55569 42.9755 3.27939 44.7365C4.05133 46.606 10.1424 44.3505 16.6316 41.2869C10.444 44.9295 5.13688 48.6927 6.25861 50.3813C7.41652 52.1303 13.2905 48.4273 19.2731 43.9404C13.6886 48.9098 8.88803 53.9274 10.3716 55.411C11.8069 56.8463 16.5592 52.3956 21.3597 47.0403C17.0537 52.8057 13.6162 58.342 15.3048 59.4637C16.8969 60.5251 20.3345 55.8935 23.7962 50.1883C20.9496 56.2191 18.9957 61.6348 20.7567 62.3706C22.6262 63.1546 25.3401 57.2444 27.7644 50.4778C25.9552 57.4374 24.8697 63.8421 26.8598 64.2522C28.9103 64.6623 30.4421 57.9078 31.5035 50.514C31.0693 57.9801 31.2261 64.9156 33.3128 64.9156L33.3007 32.4457ZM33.3007 32.4337C33.3007 32.4337 33.2887 32.4457 33.3007 32.4337C33.2887 32.4457 33.2887 32.4337 33.3007 32.4337C33.2887 32.4337 33.2887 32.4337 33.3007 32.4337C33.2887 32.4337 33.2887 32.4337 33.3007 32.4337C33.2887 32.4216 33.2887 32.3975 33.2887 32.3733C33.2887 32.4095 33.3007 32.4337 33.3007 32.4337ZM33.1439 32.3975C33.2163 32.4216 33.2645 32.4337 33.2645 32.4337C33.2645 32.4337 33.2163 32.3975 33.1319 32.3492C33.2042 32.3854 33.2525 32.4095 33.2766 32.4216L33.2887 32.4337V32.4457H33.2766C33.2645 32.4337 33.2163 32.4216 33.1439 32.3975ZM33.2766 32.4457H33.2887C33.2887 32.4457 33.2645 32.4457 33.2284 32.4457C33.2525 32.4578 33.2645 32.4457 33.2766 32.4457Z" fill="#4E534A"/>
<path d="M33.1319 32.5543C33.1319 32.5543 33.1319 32.5663 33.1319 32.5543C33.1319 32.5663 33.1319 32.5663 33.1319 32.5543V65C35.1703 65 35.3753 58.3902 34.9773 51.1412C36.0146 58.3299 37.4982 64.7708 39.5004 64.3607C41.3579 63.9868 40.5377 58.3299 38.9576 51.877C41.2011 58.1249 43.6496 63.3114 45.4106 62.5997C47.2922 61.8278 45.0126 55.7005 41.9248 49.1752C45.5795 55.399 49.3668 60.7302 51.0554 59.6085C52.7923 58.4505 49.1135 52.6007 44.6387 46.6422C49.596 52.2147 54.6015 56.9911 56.073 55.5075C57.5084 54.0722 53.0335 49.3078 47.6661 44.4832C53.4436 48.8013 58.992 52.2509 60.1257 50.5623C61.1872 48.9701 56.5073 45.4964 50.7659 42.0226C56.845 44.9054 62.333 46.8835 63.0808 45.1225C63.8769 43.2409 57.8461 40.4908 50.9951 38.0544C58.015 39.8757 64.5162 40.9974 64.9142 38.9952C65.3243 36.9447 58.618 35.4249 51.2484 34.3635C58.6784 34.7977 65.5655 34.6289 65.5655 32.5422C65.5655 30.5038 58.9558 30.2988 51.7188 30.6968C58.9075 29.6595 65.3364 28.1759 64.9383 26.1737C64.5644 24.3041 58.8593 25.1364 52.3943 26.7285C58.6663 24.473 63.8769 22.0245 63.1532 20.2635C62.3813 18.3939 56.2902 20.6495 49.801 23.7131C55.9886 20.0705 61.2957 16.3073 60.174 14.6187C59.0161 12.8697 53.1421 16.5726 47.1595 21.0596C52.744 16.0902 57.5446 11.0726 56.061 9.58897C54.6257 8.15364 49.8734 12.6044 45.0729 17.9597C49.3789 12.1943 52.8164 6.658 51.1278 5.53627C49.5357 4.47485 46.0981 9.10651 42.6364 14.8117C45.483 8.78085 47.4369 3.36518 45.6759 2.62942C43.8064 1.84542 41.0925 7.75561 38.6681 14.5222C40.4774 7.56262 41.5629 1.15791 39.5728 0.747814C37.5223 0.337719 35.9905 7.09222 34.9291 14.486C35.3633 7.01985 35.2065 0.0844216 33.1198 0.0844216L33.1319 32.5543ZM33.1319 32.5663C33.1319 32.5663 33.1439 32.5543 33.1319 32.5663C33.1439 32.5543 33.1439 32.5663 33.1319 32.5663C33.1439 32.5663 33.1439 32.5663 33.1319 32.5663C33.1439 32.5784 33.1439 32.5784 33.1319 32.5663C33.1439 32.5784 33.1439 32.6025 33.1439 32.6266C33.1439 32.6025 33.1319 32.5784 33.1319 32.5663ZM33.2887 32.6025C33.2163 32.5784 33.1681 32.5663 33.1681 32.5663C33.1681 32.5663 33.2163 32.6025 33.3007 32.6508C33.2284 32.6146 33.1801 32.5905 33.156 32.5784L33.1439 32.5663V32.5543H33.156C33.1681 32.5663 33.2163 32.5784 33.2887 32.6025ZM33.156 32.5543H33.1439C33.1439 32.5543 33.1681 32.5543 33.2042 32.5543C33.1801 32.5543 33.1681 32.5543 33.156 32.5543ZM33.1319 32.5422C33.1319 32.5543 33.1319 32.5543 33.1319 32.5422C33.1319 32.5543 33.1319 32.5422 33.1319 32.5422Z" fill="#4E534A"/>
<path d="M33.2163 46.7146C41.15 46.7146 47.5816 40.283 47.5816 32.3492C47.5816 24.4154 41.15 17.9838 33.2163 17.9838C25.2825 17.9838 18.8509 24.4154 18.8509 32.3492C18.8509 40.283 25.2825 46.7146 33.2163 46.7146Z" fill="white"/>
<path d="M32.1067 17.8753C32.8424 17.8753 33.5782 17.8753 34.3139 17.8753C34.6275 17.9236 34.9412 17.9597 35.2548 18.02C41.2373 19.0935 45.2538 22.4708 47.1716 28.2483C47.5093 29.2615 47.6179 30.347 47.835 31.3964C47.835 32.1321 47.835 32.8679 47.835 33.6036C47.7506 34.0861 47.6661 34.5686 47.5817 35.0631C46.3273 43.0479 38.1495 48.5359 30.2009 46.8232C22.9519 45.2672 17.9102 38.4886 18.67 31.0466C19.249 25.3656 23.1449 20.3721 28.5847 18.6473C29.7185 18.2854 30.9246 18.1286 32.1067 17.8753ZM45.6036 32.4819C45.5795 25.655 39.9829 20.0826 33.1802 20.1067C26.3533 20.1308 20.7808 25.7153 20.8049 32.5302C20.8291 39.357 26.4136 44.9295 33.2284 44.9054C40.0553 44.8692 45.6277 39.2847 45.6036 32.4819Z" fill="#4E534A"/>
<path d="M45.6036 32.4819C45.6277 39.2847 40.0553 44.8813 33.2284 44.9054C26.4257 44.9295 20.8291 39.357 20.8049 32.5302C20.7808 25.7274 26.3533 20.1308 33.1802 20.1067C39.9829 20.0826 45.5795 25.6551 45.6036 32.4819ZM32.9269 39.5862C35.8458 39.5983 38.3787 38.0544 39.416 35.7747C39.6934 35.1596 39.609 34.7495 39.1265 34.4962C38.6682 34.255 38.2822 34.4359 37.9566 35.0511C36.3644 38.0303 32.5891 38.8866 29.9235 36.812C29.3325 36.3537 28.9103 35.6541 28.4641 35.0269C28.1625 34.6048 27.9092 34.2309 27.3303 34.46C26.8237 34.6651 26.7151 35.1355 27.0046 35.7747C27.077 35.9315 27.1494 36.0883 27.2338 36.2331C28.5726 38.4765 30.6472 39.4415 32.9269 39.5862ZM29.4893 26.8492C28.5364 26.8371 27.8007 27.5608 27.7886 28.5137C27.7766 29.4665 28.4882 30.2264 29.429 30.2385C30.3577 30.2505 31.1297 29.5148 31.1538 28.574C31.1779 27.6573 30.406 26.8612 29.4893 26.8492ZM38.8853 28.5257C38.8853 27.5729 38.1495 26.8371 37.2087 26.8371C36.2921 26.8371 35.496 27.6332 35.5081 28.5378C35.5081 29.4424 36.3041 30.2264 37.2329 30.2143C38.1616 30.2264 38.8853 29.4906 38.8853 28.5257Z" fill="white"/>
<path d="M32.9268 39.5862C30.6472 39.4415 28.5726 38.4765 27.2337 36.2451C27.1493 36.1004 27.0649 35.9436 27.0046 35.7868C26.7151 35.1475 26.8237 34.6771 27.3302 34.4721C27.9092 34.2429 28.1746 34.6168 28.464 35.039C28.9103 35.6662 29.3325 36.3537 29.9235 36.8241C32.6012 38.8987 36.3644 38.0423 37.9565 35.0631C38.2822 34.4479 38.6802 34.255 39.1265 34.5082C39.5969 34.7615 39.6934 35.1717 39.416 35.7868C38.3787 38.0423 35.8457 39.5983 32.9268 39.5862Z" fill="#4E534A"/>
<path d="M29.4893 26.8492C30.406 26.8612 31.1779 27.6693 31.1538 28.574C31.1297 29.5027 30.3577 30.2505 29.429 30.2385C28.4882 30.2264 27.7765 29.4786 27.7886 28.5137C27.8007 27.5608 28.5364 26.8371 29.4893 26.8492Z" fill="#4E534A"/>
<path d="M38.8853 28.5257C38.8853 29.4786 38.1616 30.2264 37.2208 30.2264C36.3041 30.2264 35.508 29.4545 35.496 28.5498C35.496 27.6452 36.28 26.8491 37.1967 26.8491C38.1495 26.8371 38.8853 27.5728 38.8853 28.5257Z" fill="#4E534A"/>
</svg>
