<svg width="45" height="54" viewBox="0 0 45 54" fill="none" xmlns="http://www.w3.org/2000/svg">
<path d="M5.83686 21.0037C6.42686 20.3037 6.95685 19.6437 7.51685 19.0237C8.17685 18.2837 8.98685 18.0037 9.90685 18.2937C10.8369 18.5837 11.4269 19.2637 11.6469 20.3037C11.8269 21.1637 11.6669 21.9737 11.1269 22.6237C9.85685 24.1437 8.57685 25.6337 7.29685 27.1437C6.89685 27.6137 6.50685 28.0837 6.09685 28.5737C5.34685 27.7937 4.61686 27.0337 3.89686 26.2737C2.82686 25.1637 1.73686 24.0737 0.696861 22.9237C-0.383139 21.7337 -0.17314 19.7637 1.08686 18.8337C1.98686 18.1737 3.16685 18.2537 3.98685 19.0437C4.30685 19.3437 4.60685 19.6737 4.90685 19.9937C5.21685 20.3137 5.50686 20.6437 5.83686 21.0037Z" fill="#5F250F"/>
<path d="M8.02707 0.0338118C5.80707 0.503812 3.58707 1.7638 3.38707 3.3338C2.98707 6.4638 5.32707 17.2538 4.56707 20.5238C4.37707 21.3338 4.43708 22.4738 4.60708 23.6338C4.42708 24.4338 4.33706 25.1538 4.46706 25.6138C5.19706 28.2938 7.54708 41.9138 7.60708 43.9738C7.72708 47.8438 3.13707 43.8238 1.36707 43.5138C-0.22293 43.2338 1.58707 47.8238 3.80707 47.3538C6.02707 46.8838 8.24707 45.6238 8.44707 44.0538C8.84707 40.9238 6.63707 30.1338 7.39707 26.8638C7.60707 25.9838 7.50707 24.7238 7.28707 23.4638C7.41707 22.7838 7.47707 22.1838 7.36707 21.7738C6.63707 19.0938 4.28707 5.47382 4.22707 3.41382C4.10707 -0.456183 8.69706 3.56381 10.4671 3.87381C12.0571 4.15381 10.2471 -0.436188 8.02707 0.0338118Z" fill="#5F250F"/>
<path d="M16.457 32.8141C17.047 33.5141 17.577 34.1742 18.137 34.7942C18.797 35.5342 19.607 35.8141 20.527 35.5241C21.457 35.2341 22.047 34.5542 22.267 33.5142C22.447 32.6542 22.287 31.8442 21.747 31.1942C20.477 29.6742 19.197 28.1842 17.917 26.6742C17.517 26.2042 17.127 25.7341 16.717 25.2441C15.967 26.0241 15.237 26.7842 14.517 27.5442C13.447 28.6542 12.357 29.7441 11.317 30.8941C10.237 32.0841 10.447 34.0542 11.707 34.9842C12.607 35.6442 13.787 35.5641 14.607 34.7741C14.927 34.4741 15.227 34.1442 15.527 33.8242C15.837 33.5042 16.137 33.1741 16.457 32.8141Z" fill="#5F250F"/>
<path d="M18.6472 53.784C16.4272 53.314 14.2072 52.054 14.0072 50.484C13.6072 47.354 15.9472 36.564 15.1872 33.294C14.9972 32.484 15.0572 31.344 15.2272 30.184C15.0472 29.384 14.9572 28.664 15.0872 28.204C15.8172 25.524 18.1672 11.904 18.2272 9.84399C18.3472 5.97399 13.7572 9.99398 11.9872 10.304C10.3972 10.584 12.2072 5.99399 14.4272 6.46399C16.6472 6.93399 18.8672 8.19401 19.0672 9.76401C19.4672 12.894 17.2572 23.684 18.0172 26.954C18.2272 27.834 18.1272 29.094 17.9072 30.354C18.0372 31.034 18.0972 31.634 17.9872 32.044C17.2572 34.724 14.9072 48.344 14.8472 50.404C14.7272 54.274 19.3172 50.254 21.0872 49.944C22.6772 49.664 20.8672 54.254 18.6472 53.784Z" fill="#5F250F"/>
<path d="M27.1669 21.0037C27.7569 20.3037 28.2869 19.6437 28.8469 19.0237C29.5069 18.2837 30.3169 18.0037 31.2369 18.2937C32.1669 18.5837 32.7569 19.2637 32.9769 20.3037C33.1569 21.1637 32.9969 21.9737 32.4569 22.6237C31.1869 24.1437 29.9069 25.6337 28.6269 27.1437C28.2269 27.6137 27.8369 28.0837 27.4269 28.5737C26.6769 27.7937 25.9469 27.0337 25.2269 26.2737C24.1569 25.1637 23.0669 24.0737 22.0269 22.9237C20.9469 21.7337 21.1569 19.7637 22.4169 18.8337C23.3169 18.1737 24.4969 18.2537 25.3169 19.0437C25.6369 19.3437 25.9369 19.6737 26.2369 19.9937C26.5469 20.3137 26.8369 20.6437 27.1669 21.0037Z" fill="#5F250F"/>
<path d="M29.3572 0.0338118C27.1372 0.503812 24.9171 1.7638 24.7171 3.3338C24.3171 6.4638 26.6571 17.2538 25.8971 20.5238C25.7071 21.3338 25.7671 22.4738 25.9371 23.6338C25.7571 24.4338 25.6671 25.1538 25.7971 25.6138C26.5271 28.2938 28.8771 41.9138 28.9371 43.9738C29.0571 47.8438 24.4671 43.8238 22.6971 43.5138C21.1071 43.2338 22.9172 47.8238 25.1372 47.3538C27.3572 46.8838 29.5772 45.6238 29.7772 44.0538C30.1772 40.9238 27.9671 30.1338 28.7271 26.8638C28.9371 25.9838 28.8371 24.7238 28.6171 23.4638C28.7471 22.7838 28.8071 22.1838 28.6971 21.7738C27.9671 19.0938 25.6171 5.47382 25.5571 3.41382C25.4371 -0.456183 30.0271 3.56381 31.7971 3.87381C33.3871 4.15381 31.5672 -0.436188 29.3572 0.0338118Z" fill="#5F250F"/>
<path d="M38.247 32.8141C38.837 33.5141 39.367 34.1742 39.927 34.7942C40.587 35.5342 41.397 35.8141 42.317 35.5241C43.247 35.2341 43.837 34.5542 44.057 33.5142C44.237 32.6542 44.077 31.8442 43.537 31.1942C42.267 29.6742 40.987 28.1842 39.707 26.6742C39.307 26.2042 38.917 25.7341 38.507 25.2441C37.757 26.0241 37.027 26.7842 36.307 27.5442C35.237 28.6542 34.147 29.7441 33.107 30.8941C32.027 32.0841 32.237 34.0542 33.497 34.9842C34.397 35.6442 35.577 35.5641 36.397 34.7741C36.717 34.4741 37.017 34.1442 37.317 33.8242C37.617 33.5042 37.917 33.1741 38.247 32.8141Z" fill="#5F250F"/>
<path d="M40.4275 53.784C38.2075 53.314 35.9875 52.054 35.7875 50.484C35.3875 47.354 37.7275 36.564 36.9675 33.294C36.7775 32.484 36.8375 31.344 37.0075 30.184C36.8275 29.384 36.7375 28.664 36.8675 28.204C37.5975 25.524 39.9475 11.904 40.0075 9.84399C40.1275 5.97399 35.5375 9.99398 33.7675 10.304C32.1775 10.584 33.9875 5.99399 36.2075 6.46399C38.4275 6.93399 40.6475 8.19401 40.8475 9.76401C41.2475 12.894 39.0375 23.684 39.7975 26.954C40.0075 27.834 39.9075 29.094 39.6875 30.354C39.8175 31.034 39.8775 31.634 39.7675 32.044C39.0375 34.724 36.6875 48.344 36.6275 50.404C36.5075 54.274 41.0975 50.254 42.8675 49.944C44.4575 49.664 42.6475 54.254 40.4275 53.784Z" fill="#5F250F"/>
</svg>
