<svg width="66" height="27" viewBox="0 0 66 27" fill="none" xmlns="http://www.w3.org/2000/svg">
<path d="M14.0476 16.9241C16.1661 12.1454 29.443 8.28148 29.443 8.28148L28.6726 5.36852C16.0097 8.78704 11.5319 12.4944 8.71522 15.6722C7.06614 15.1306 5.86244 14.5287 4.80318 13.6981C14.7097 4.74259 27.2884 2.84074 27.2884 2.84074L26.2893 0C10.5208 2.45556 4.50226 8.00463 2.82911 9.75C1.67355 10.9657 0.867065 12.4463 0.867065 13.7944C0.867065 21.0046 12.2541 26.4454 24.7124 26.7704L29.118 17.6222C29.118 17.6222 26.9995 17.7426 25.9041 17.7426C22.1847 17.7546 17.9115 17.55 14.0476 16.9241Z" fill="#4E534A"/>
<path d="M52.6865 16.9241C50.568 12.1454 37.2911 8.28148 37.2911 8.28148L38.0615 5.36852C50.7245 8.78704 55.2022 12.4944 58.0189 15.6722C59.668 15.1306 60.8717 14.5287 61.931 13.6981C52.0245 4.74259 39.4458 2.84074 39.4458 2.84074L40.4448 0C56.2134 2.45556 62.2319 8.00463 63.905 9.75C65.0606 10.9657 65.8671 12.4463 65.8671 13.7944C65.8671 21.0046 54.48 26.4454 42.0217 26.7704L37.6161 17.6222C37.6161 17.6222 39.7347 17.7426 40.83 17.7426C44.5495 17.7546 48.8347 17.55 52.6865 16.9241Z" fill="#4E534A"/>
</svg>
