<svg width="54" height="65" viewBox="0 0 54 65" fill="none" xmlns="http://www.w3.org/2000/svg">
<path d="M7.17942 25.368C7.89201 24.5226 8.53213 23.7254 9.20849 22.9766C10.0056 22.0829 10.9839 21.7447 12.0951 22.095C13.2183 22.4452 13.9309 23.2665 14.1966 24.5226C14.414 25.5613 14.2208 26.5396 13.5686 27.3246C12.0347 29.1605 10.4887 30.9601 8.94277 32.7838C8.45966 33.3515 7.98863 33.9191 7.49344 34.511C6.5876 33.5689 5.70592 32.651 4.83632 31.733C3.54399 30.3924 2.22751 29.0759 0.971417 27.687C-0.332988 26.2497 -0.0793545 23.8704 1.44245 22.7471C2.52946 21.95 3.95463 22.0466 4.94501 23.0008C5.3315 23.3631 5.69384 23.7617 6.05617 24.1482C6.43058 24.5347 6.78085 24.9332 7.17942 25.368Z" fill="#4E534A"/>
<path d="M9.82446 0.0408373C7.14318 0.608495 4.46191 2.13029 4.22035 4.02651C3.73724 7.80687 6.56344 20.8388 5.64553 24.7883C5.41605 25.7666 5.48852 27.1435 5.69385 28.5445C5.47645 29.5107 5.36773 30.3803 5.52474 30.9359C6.40642 34.1728 9.24473 50.6228 9.3172 53.1108C9.46213 57.7849 3.9184 52.9297 1.78062 52.5553C-0.139751 52.2171 2.04634 57.7608 4.72762 57.1931C7.40889 56.6255 10.0902 55.1036 10.3317 53.2074C10.8148 49.4271 8.14564 36.3951 9.06355 32.4456C9.31719 31.3828 9.19641 29.861 8.9307 28.3392C9.08771 27.5179 9.16018 26.7932 9.02732 26.298C8.14564 23.0612 5.30735 6.61118 5.23488 4.12315C5.08995 -0.55097 10.6337 4.30431 12.7714 4.67872C14.6918 5.0169 12.5057 -0.526821 9.82446 0.0408373Z" fill="#4E534A"/>
<path d="M20.0061 39.632C20.7187 40.4774 21.3588 41.2746 22.0352 42.0234C22.8323 42.9171 23.8106 43.2553 24.9218 42.905C26.045 42.5548 26.7576 41.7335 27.0233 40.4774C27.2407 39.4387 27.0475 38.4604 26.3953 37.6754C24.8614 35.8395 23.3154 34.0399 21.7695 32.2162C21.2863 31.6485 20.8153 31.0808 20.3201 30.489C19.4143 31.4311 18.5326 32.349 17.663 33.267C16.3707 34.6076 15.0542 35.924 13.7981 37.313C12.4937 38.7503 12.7473 41.1296 14.2691 42.2529C15.3561 43.05 16.7813 42.9534 17.7717 41.9992C18.1582 41.6369 18.5205 41.2383 18.8829 40.8518C19.2573 40.4653 19.6196 40.0668 20.0061 39.632Z" fill="#4E534A"/>
<path d="M22.6511 64.9592C19.9698 64.3915 17.2886 62.8697 17.047 60.9735C16.5639 57.1931 19.3901 44.1612 18.4722 40.2117C18.2427 39.2334 18.3152 37.8565 18.5205 36.4555C18.3031 35.4893 18.1944 34.6197 18.3514 34.0641C19.2331 30.8272 22.0714 14.3772 22.1439 11.8892C22.2888 7.21506 16.7451 12.0703 14.6073 12.4448C12.6869 12.7829 14.873 7.23921 17.5543 7.80687C20.2356 8.37453 22.9168 9.89636 23.1584 11.7926C23.6415 15.5729 20.9723 28.6049 21.8902 32.5544C22.1438 33.6172 22.0231 35.139 21.7574 36.6608C21.9144 37.4821 21.9868 38.2068 21.854 38.702C20.9723 41.9388 18.134 58.3888 18.0615 60.8769C17.9166 65.551 23.4603 60.6957 25.5981 60.3213C27.5185 59.9831 25.3324 65.5268 22.6511 64.9592Z" fill="#4E534A"/>
<path d="M32.9414 25.368C33.654 24.5226 34.2942 23.7254 34.9705 22.9766C35.7676 22.0829 36.7459 21.7447 37.8571 22.095C38.9803 22.4452 39.6929 23.2665 39.9587 24.5226C40.1761 25.5613 39.9828 26.5396 39.3306 27.3246C37.7967 29.1605 36.2508 30.9601 34.7048 32.7838C34.2217 33.3515 33.7507 33.9191 33.2555 34.511C32.3496 33.5689 31.4679 32.651 30.5983 31.733C29.306 30.3924 27.9895 29.0759 26.7334 27.687C25.429 26.2497 25.6827 23.8704 27.2045 22.7471C28.2915 21.95 29.7167 22.0466 30.707 23.0008C31.0935 23.3631 31.4559 23.7617 31.8182 24.1482C32.1926 24.5347 32.5429 24.9332 32.9414 25.368Z" fill="#4E534A"/>
<path d="M35.5865 0.0408373C32.9052 0.608495 30.2239 2.13029 29.9824 4.02651C29.4992 7.80687 32.3255 20.8388 31.4075 24.7883C31.1781 25.7666 31.2505 27.1435 31.4559 28.5445C31.2385 29.5107 31.1298 30.3803 31.2868 30.9359C32.1684 34.1728 35.0067 50.6228 35.0792 53.1108C35.2241 57.7849 29.6804 52.9297 27.5426 52.5553C25.6223 52.2171 27.8084 57.7608 30.4896 57.1931C33.1709 56.6255 35.8522 55.1036 36.0938 53.2074C36.5769 49.4271 33.9077 36.3951 34.8256 32.4456C35.0792 31.3828 34.9584 29.861 34.6927 28.3392C34.8497 27.5179 34.9222 26.7932 34.7893 26.298C33.9077 23.0612 31.0694 6.61118 30.9969 4.12315C30.852 -0.55097 36.3957 4.30431 38.5335 4.67872C40.4538 5.0169 38.2557 -0.526821 35.5865 0.0408373Z" fill="#4E534A"/>
<path d="M46.3237 39.632C47.0363 40.4774 47.6764 41.2746 48.3528 42.0234C49.1499 42.9171 50.1282 43.2553 51.2394 42.905C52.3626 42.5548 53.0752 41.7335 53.3409 40.4774C53.5583 39.4387 53.3651 38.4604 52.7129 37.6754C51.179 35.8395 49.633 34.0399 48.0871 32.2162C47.6039 31.6485 47.1329 31.0808 46.6377 30.489C45.7319 31.4311 44.8502 32.349 43.9806 33.267C42.6883 34.6076 41.3718 35.924 40.1157 37.313C38.8113 38.7503 39.0649 41.1296 40.5867 42.2529C41.6737 43.05 43.0989 42.9534 44.0893 41.9992C44.4758 41.6369 44.8381 41.2383 45.2005 40.8518C45.5628 40.4653 45.9251 40.0668 46.3237 39.632Z" fill="#4E534A"/>
<path d="M48.9567 64.9592C46.2754 64.3915 43.5941 62.8697 43.3526 60.9735C42.8694 57.1931 45.6956 44.1612 44.7777 40.2117C44.5482 39.2334 44.6207 37.8565 44.826 36.4555C44.6086 35.4893 44.4999 34.6197 44.657 34.0641C45.5386 30.8272 48.3769 14.3772 48.4494 11.8892C48.5943 7.21506 43.0506 12.0703 40.9128 12.4448C38.9925 12.7829 41.1785 7.23921 43.8598 7.80687C46.5411 8.37453 49.2224 9.89636 49.4639 11.7926C49.947 15.5729 47.2778 28.6049 48.1958 32.5544C48.4494 33.6172 48.3286 35.139 48.0629 36.6608C48.2199 37.4821 48.2924 38.2068 48.1595 38.702C47.2778 41.9388 44.4396 58.3888 44.3671 60.8769C44.2222 65.551 49.7659 60.6957 51.9036 60.3213C53.824 59.9831 51.6379 65.5268 48.9567 64.9592Z" fill="#4E534A"/>
</svg>
