<svg width="54" height="41" viewBox="0 0 54 41" fill="none" xmlns="http://www.w3.org/2000/svg">
<g clip-path="url(#clip0_923:4916)">
<path d="M27.0197 36.26C21.7597 41.85 17.6697 40.42 15.1997 37.61C13.6597 35.85 13.1197 33.7 14.0597 31.64C14.8897 29.82 16.3497 28.28 17.5897 26.53C16.1697 25.13 14.6497 23.64 13.0897 22.11C12.1597 22.99 11.2797 23.93 10.2797 24.72C7.50973 26.91 3.68973 26.51 1.44973 23.87C-0.650265 21.4 -0.450265 17.55 1.88973 15.32C4.34973 12.97 8.01974 12.93 10.5997 15.31C11.4297 16.07 12.0697 17.05 13.0297 18.21C14.5097 16.59 15.6697 15.32 16.8197 14.05C17.0997 13.74 17.1397 13.7 17.9397 12.82C17.9397 12.82 16.4797 11.6 15.8397 10.95C13.1397 8.24001 12.9497 4.59001 15.2997 1.92001C17.5997 -0.699992 21.8097 -1.12999 26.8097 3.97001L27.0197 36.26ZM26.8197 3.97001C28.9497 2.30001 31.9997 -0.329992 34.4497 0.0300081C35.7797 0.220008 37.4497 1.09001 38.4297 2.17001C41.0697 5.07001 40.3197 7.98001 36.0497 12.87C37.6197 14.38 39.1997 15.88 40.6297 17.26C42.0897 16.24 43.6297 14.78 45.4597 13.98C48.1297 12.82 51.2297 14.12 52.6797 16.54C54.2497 19.17 53.8697 22.28 51.7097 24.38C49.6297 26.4 46.2397 26.76 43.8497 25.06C42.6497 24.21 41.6097 23.12 40.6397 22.26C39.0397 23.76 37.4997 25.21 35.4897 27.11C36.3397 27.73 37.1897 28.18 37.8297 28.83C40.4797 31.5 40.6797 35.12 38.3997 37.66C36.0497 40.28 32.5397 40.52 29.5697 38.29C29.2897 38.08 27.5997 36.7 27.0197 36.27L26.8197 3.97001ZM26.5297 17.26C28.0697 15.78 29.6397 14.27 30.9897 12.98C29.5897 11.58 28.0997 10.09 26.8397 8.84001C25.4497 10.22 23.9497 11.7 22.4397 13.21C23.8397 14.6 25.3497 16.1 26.5297 17.26ZM38.1897 20.06C36.5597 18.37 35.0897 16.84 33.7197 15.41C32.1997 16.89 30.6797 18.36 29.3597 19.64C30.8597 21.23 32.3397 22.79 33.7197 24.24C35.1997 22.87 36.6997 21.46 38.1897 20.06ZM26.5097 30.99C28.0797 29.47 29.6397 27.97 30.9297 26.72C29.5597 25.3 28.0897 23.79 26.9197 22.57C25.4897 23.95 23.9697 25.42 22.4297 26.91C23.8197 28.31 25.3197 29.81 26.5097 30.99ZM24.4797 6.12001C21.3197 2.50001 19.6197 1.92001 17.6797 3.78001C15.7797 5.61001 16.4597 7.72001 19.9897 10.82C21.4497 9.29001 22.9097 7.76001 24.4797 6.12001ZM29.1197 6.13001C30.7097 7.74001 32.1897 9.25001 33.6797 10.77C37.1497 7.82001 37.9297 5.59001 35.9597 3.83001C34.0097 2.09001 32.4397 2.12001 29.1197 6.13001ZM24.4297 33.78C22.8197 32.04 21.3997 30.5 19.9397 28.91C18.3597 30.61 15.9197 31.81 16.8697 34.55C17.1897 35.48 18.4197 36.46 19.4097 36.71C21.9597 37.35 23.0397 35.11 24.4297 33.78ZM33.9797 29.26C32.3097 30.85 30.7797 32.3 29.2597 33.75C32.0497 37.08 34.2097 37.77 36.0697 35.88C37.8197 34.1 37.0797 31.94 33.9797 29.26ZM11.1997 20.08C9.98973 18.89 9.24973 18.01 8.36973 17.3C6.84973 16.07 5.03973 16.26 3.79973 17.65C2.68973 18.9 2.69973 20.9 3.82973 22.13C5.01973 23.43 6.99973 23.56 8.44973 22.4C9.32973 21.71 10.1797 20.95 11.1997 20.08ZM42.4797 19.96C43.5797 20.94 44.4597 21.87 45.4797 22.62C46.8497 23.63 48.8797 23.34 49.8897 22.02C50.9597 20.62 51.0097 19.12 49.8797 17.72C48.7697 16.34 46.9097 16.05 45.4897 17.13C44.4897 17.88 43.6497 18.85 42.4797 19.96Z" fill="#5F250F"/>
<path d="M26.5295 17.2601C25.3495 16.0901 23.8495 14.6001 22.4395 13.2001C23.9495 11.7001 25.4495 10.2101 26.8395 8.83008C28.0895 10.0801 29.5795 11.5701 30.9895 12.9701C29.6395 14.2801 28.0695 15.7801 26.5295 17.2601Z" fill="white"/>
<path d="M38.1896 20.0599C36.6996 21.4599 35.1896 22.8699 33.7096 24.2499C32.3396 22.7999 30.8596 21.2399 29.3496 19.6499C30.6696 18.3699 32.1896 16.8899 33.7096 15.4199C35.0996 16.8399 36.5696 18.3699 38.1896 20.0599Z" fill="white"/>
<path d="M26.5097 30.9898C25.3197 29.8098 23.8197 28.3098 22.4297 26.9098C23.9697 25.4198 25.4897 23.9598 26.9197 22.5698C28.0997 23.7898 29.5597 25.2998 30.9297 26.7198C29.6397 27.9698 28.0797 29.4798 26.5097 30.9898Z" fill="white"/>
<path d="M24.4794 6.11988C22.9094 7.75988 21.4494 9.28988 19.9894 10.8199C16.4594 7.71988 15.7894 5.60988 17.6794 3.77988C19.6194 1.91988 21.3194 2.49988 24.4794 6.11988Z" fill="white"/>
<path d="M29.1201 6.13022C32.4401 2.13022 34.0101 2.09022 35.9601 3.83022C37.9301 5.59022 37.1501 7.82023 33.6801 10.7702C32.1901 9.25023 30.7101 7.74022 29.1201 6.13022Z" fill="white"/>
<path d="M24.4301 33.7802C23.0401 35.1002 21.9601 37.3402 19.4101 36.7102C18.4201 36.4602 17.1901 35.4802 16.8701 34.5502C15.9201 31.8102 18.3501 30.6102 19.9401 28.9102C21.4101 30.5002 22.8301 32.0402 24.4301 33.7802Z" fill="white"/>
<path d="M33.9798 29.2598C37.0798 31.9398 37.8298 34.0998 36.0698 35.8798C34.2098 37.7698 32.0498 37.0798 29.2598 33.7498C30.7798 32.2998 32.3098 30.8498 33.9798 29.2598Z" fill="white"/>
<path d="M11.1999 20.0801C10.1699 20.9501 9.32991 21.7001 8.43991 22.4101C6.99991 23.5701 5.00991 23.4401 3.81991 22.1401C2.68991 20.9001 2.67991 18.9101 3.78991 17.6601C5.02991 16.2701 6.83991 16.0801 8.35991 17.3101C9.24991 18.0201 9.99991 18.8901 11.1999 20.0801Z" fill="white"/>
<path d="M42.4795 19.9598C43.6495 18.8398 44.4895 17.8798 45.4895 17.1198C46.9095 16.0498 48.7595 16.3298 49.8795 17.7098C51.0095 19.1098 50.9595 20.6098 49.8895 22.0098C48.8795 23.3298 46.8595 23.6198 45.4795 22.6098C44.4695 21.8698 43.5795 20.9398 42.4795 19.9598Z" fill="white"/>
<path d="M24.6401 20.1C23.1101 21.48 21.5701 22.86 20.0501 24.22C18.6401 22.8 17.1301 21.25 15.5801 19.69C16.9301 18.43 18.4901 16.98 20.0501 15.52C21.4601 16.93 22.9701 18.44 24.6401 20.1Z" fill="white"/>
</g>
<defs>
<clipPath id="clip0_923:4916">
<rect width="53.65" height="40.09" fill="white"/>
</clipPath>
</defs>
</svg>
