<svg width="42" height="65" viewBox="0 0 42 65" fill="none" xmlns="http://www.w3.org/2000/svg">
<path d="M18.8455 0.0815006C18.6032 0.202617 18.47 0.747646 18.4821 1.09888C18.5669 6.08888 18.688 11.0789 18.7849 16.0568C18.8818 20.8288 18.9666 25.6129 19.0635 30.4333C16.9076 29.2342 14.9334 27.9504 12.8139 26.9815C9.90706 25.6492 6.91549 25.1768 3.98447 27.042C1.58637 28.5802 0.387318 31.5839 1.18669 34.2363C2.0345 37.0705 4.4205 38.8993 7.24251 38.8509C9.01081 38.8145 10.4642 38.0878 11.4453 36.5981C12.0751 35.6534 12.5958 34.636 13.2135 33.6913C14.3884 31.8988 15.9508 31.923 17.0045 33.764C18.3852 36.1621 19.3057 38.6692 19.3057 41.5033C19.2936 45.4638 19.4147 49.4122 19.4874 53.3727C19.4874 53.4939 19.4995 53.615 19.4995 53.833C17.9734 52.9125 16.5806 51.992 15.103 51.1927C13.0924 50.0905 11.0092 49.1216 8.62324 49.2306C4.91707 49.4001 2.05873 51.3622 1.45314 55.6376C1.15035 57.7814 2.67641 60.3612 4.83229 61.5118C7.87231 63.1226 10.7064 62.299 12.5111 59.259C12.935 58.5565 13.3104 57.8056 13.7586 57.1274C14.9697 55.3106 16.5927 55.3348 17.5737 57.2969C18.3489 58.8351 18.8576 60.4944 19.4874 62.1052C19.6085 62.4323 19.6206 62.8925 19.8507 63.0499C20.0082 63.1711 20.1899 63.2558 20.3715 63.3527C20.5048 63.6071 20.6743 65.012 20.7349 64.9999C20.8681 64.9757 20.9892 64.9151 21.1103 64.8667C21.2436 64.903 21.3647 64.9636 21.4858 64.9999C21.5585 65.012 21.7159 63.6071 21.8492 63.3527C22.0308 63.2558 22.2125 63.159 22.3699 63.0499C22.6001 62.8804 22.6001 62.4201 22.7333 62.1052C23.3631 60.4944 23.8718 58.8351 24.6469 57.2969C25.628 55.3348 27.263 55.3106 28.4621 57.1274C28.9223 57.8177 29.2857 58.5565 29.7096 59.259C31.5142 62.2869 34.3484 63.1226 37.3884 61.5118C39.5564 60.3733 41.0703 57.7814 40.7675 55.6376C40.162 51.3743 37.3036 49.4001 33.5974 49.2306C31.2236 49.1216 29.1404 50.1026 27.1177 51.1927C25.6522 51.992 24.2473 52.9125 22.7212 53.833C22.7333 53.615 22.7333 53.4939 22.7333 53.3727C22.7939 49.4122 22.9271 45.4638 22.915 41.5033C22.9029 38.6692 23.8355 36.15 25.2162 33.764C26.2699 31.923 27.8323 31.8988 29.0071 33.6913C29.6248 34.636 30.1456 35.6534 30.7754 36.5981C31.7565 38.0878 33.2099 38.8145 34.9782 38.8509C37.8002 38.8993 40.1862 37.0705 41.034 34.2363C41.8334 31.596 40.6464 28.5802 38.2362 27.042C35.3052 25.1768 32.3136 25.6371 29.4068 26.9815C27.2873 27.9625 25.3131 29.2342 23.1572 30.4333C23.2541 25.6007 23.3389 20.8288 23.4358 16.0568C23.5327 11.0668 23.6538 6.08888 23.7386 1.09888C23.7386 0.747646 23.6174 0.214729 23.3752 0.0815006C22.6364 -0.306072 21.8249 0.88087 21.0982 1.1231C20.4079 0.868758 19.5964 -0.318184 18.8455 0.0815006Z" fill="#4E534A"/>
</svg>
