<svg width="66" height="62" viewBox="0 0 66 62" fill="none" xmlns="http://www.w3.org/2000/svg">
<path d="M44.3573 1.80877C42.9356 1.86902 41.538 2.06179 40.1885 2.39914C36.9234 3.21844 33.9354 4.6281 31.3811 6.47151C30.9956 6.74863 30.6462 7.04984 30.2968 7.35105C30.2727 7.35105 30.2606 7.35105 30.2486 7.3631C30.5137 7.09804 30.7546 6.86912 30.9956 6.6402C32.0077 5.65223 33.0197 4.68834 33.7667 3.67628C34.1161 3.19434 34.4053 2.7365 34.5378 2.26661C34.7306 1.65214 34.5378 1.15816 34.1643 0.70032C33.8872 0.362963 33.4053 0.158135 32.7547 0.0737957C32.0679 -0.0105433 31.3209 -0.0225903 30.5498 0.0376519C30.1281 0.0737972 29.7064 0.121988 29.2727 0.194278C28.2485 0.387053 27.2244 0.784655 26.2365 1.32683C24.8027 2.10998 23.4412 3.00156 22.1882 4.02568C19.1761 6.50766 16.67 9.50772 14.8266 12.809C14.3206 13.7247 13.8627 14.6524 13.5013 15.5922C13.4651 15.6886 13.441 15.7729 13.3928 15.8934C13.4651 15.8452 13.4892 15.8211 13.5254 15.785C15.0435 14.5199 16.5977 13.4235 18.1881 12.4837C20.0556 11.3873 21.9472 10.4957 23.8509 9.80893C25.7907 9.11012 27.7425 8.61614 29.6462 8.31493C32.0559 6.51971 47.9598 9.6764 47.7429 11.1463C48.0441 11.315 48.3453 11.4837 48.6345 11.6523C49.996 12.4596 51.237 13.3873 52.3575 14.3873C52.8996 14.8813 53.4298 15.3874 53.9238 15.9175C54.6467 16.7006 55.2973 17.5079 55.8877 18.3513C56.1045 18.6645 56.3093 18.9898 56.5142 19.3031C56.5744 19.3995 56.6347 19.4959 56.6949 19.5923C57.0805 19.4236 57.454 19.2669 57.8395 19.1224C57.7913 19.038 57.7431 18.9537 57.6949 18.8814C57.0805 17.9296 56.3937 17.0139 55.6346 16.1223C55.1407 15.556 54.6226 15.0139 54.0804 14.4958C53.3695 13.809 52.5984 13.1704 51.7912 12.556C50.743 11.7849 49.6225 11.074 48.4297 10.4475C48.2369 10.3511 47.02 9.6523 45.2248 8.94144C45.4899 8.83301 45.7429 8.74867 45.9838 8.65228C47.1284 8.20649 48.273 7.7607 49.249 7.17032C49.7068 6.89321 50.1165 6.592 50.4177 6.2185C50.8153 5.74861 50.8755 5.21848 50.7671 4.64015C50.6827 4.21846 50.3936 3.83291 49.9237 3.47145C49.4297 3.09795 48.8393 2.7847 48.2128 2.49553C47.8754 2.35095 47.526 2.20637 47.1525 2.09793C46.2971 1.85696 45.3332 1.76058 44.3573 1.80877ZM17.4531 11.9656C18.6821 10.0499 20.2725 8.30288 22.0918 6.80888C23.2123 5.89319 24.4171 5.09799 25.7063 4.49557C26.8268 3.96544 27.9473 3.62809 28.9956 3.56784C29.2968 3.54375 29.598 3.54375 29.851 3.57989C30.839 3.71243 31.1643 4.23051 30.9474 5.00161C30.839 5.38716 30.5739 5.7727 30.2606 6.1703C29.8871 6.62814 29.4534 7.06189 28.9594 7.49564C28.851 7.59202 28.7546 7.64022 28.6221 7.66431C27.5256 7.88119 26.4292 8.17035 25.3208 8.51975C23.8147 9.00169 22.2966 9.59206 20.7906 10.327C19.7062 10.8451 18.6459 11.4355 17.5857 12.0981C17.4893 12.1584 17.3809 12.2186 17.2363 12.315C17.3327 12.1704 17.3929 12.074 17.4531 11.9656ZM45.6344 5.03775C45.8754 5.15824 46.1043 5.27872 46.2971 5.4233C47.02 5.97753 47.0562 6.57995 46.5983 7.18237C46.3694 7.48359 46.02 7.72456 45.6224 7.92938C45.1645 8.17035 44.6706 8.36312 44.1525 8.54384C40.4777 7.12213 34.9716 6.85706 33.9113 7.00165C33.8752 7.00165 33.839 7.00165 33.7908 7.00165C35.3812 6.00163 37.1885 5.25462 39.1042 4.79678C40.297 4.50762 41.5259 4.36304 42.7428 4.39919C43.8031 4.43533 44.8031 4.64016 45.6344 5.03775Z" fill="#4E534A"/>
<path d="M57.2131 57.2436C57.8034 55.9544 58.2733 54.6171 58.5745 53.2676C59.3215 49.9905 59.43 46.6771 58.936 43.5807C58.8637 43.1108 58.7553 42.665 58.6468 42.2192C58.6589 42.1951 58.6589 42.1831 58.6589 42.171C58.7673 42.5204 58.8637 42.8457 58.9601 43.159C59.3818 44.5205 59.7794 45.8458 60.3457 46.9783C60.6107 47.5085 60.8999 47.9663 61.2493 48.3037C61.7071 48.7495 62.2373 48.8097 62.8156 48.6772C63.2493 48.5808 63.6469 48.2434 64.0204 47.7133C64.406 47.147 64.7554 46.4844 65.0566 45.7614C65.2132 45.3759 65.3699 44.9783 65.4903 44.5566C65.7795 43.5566 65.8879 42.4602 65.8638 41.3397C65.8156 39.7131 65.6349 38.0866 65.2855 36.5082C64.4421 32.6889 62.8999 29.1105 60.7914 25.9659C60.2131 25.0984 59.5866 24.267 58.9119 23.52C58.8517 23.4477 58.7794 23.3755 58.695 23.2911C58.7071 23.3755 58.7191 23.4116 58.7312 23.4598C59.177 25.3875 59.442 27.2671 59.5505 29.1105C59.683 31.2672 59.6107 33.3636 59.3577 35.3757C59.0926 37.4239 58.6589 39.3758 58.0565 41.2192C58.5625 44.1831 48.5382 56.9303 47.3213 56.0629C47.0442 56.2556 46.755 56.4484 46.4659 56.6291C45.1285 57.4725 43.7429 58.1593 42.3453 58.7015C41.6585 58.9665 40.9597 59.1955 40.273 59.4003C39.2488 59.6894 38.2247 59.9063 37.2127 60.0388C36.8392 60.087 36.4536 60.1352 36.0801 60.1593C35.9717 60.1714 35.8512 60.1834 35.7428 60.1955C35.7187 60.6172 35.6825 61.0148 35.6464 61.4365C35.7427 61.4244 35.8391 61.4244 35.9235 61.4124C37.056 61.3039 38.1765 61.0991 39.3091 60.822C40.032 60.6413 40.7549 60.4244 41.4658 60.1714C42.3935 59.8461 43.3212 59.4605 44.2369 59.0027C45.4056 58.4244 46.5381 57.7376 47.6466 56.9665C47.8273 56.846 48.996 56.0749 50.4418 54.7857C50.4177 55.0628 50.3816 55.34 50.3575 55.593C50.237 56.8219 50.1045 58.0388 50.1888 59.1834C50.225 59.7256 50.3214 60.2196 50.5021 60.6533C50.7431 61.2196 51.1888 61.5208 51.7431 61.6774C52.1648 61.7979 52.6347 61.7136 53.1648 61.4485C53.719 61.1714 54.2732 60.7979 54.8154 60.3642C55.1046 60.1352 55.3817 59.8822 55.6588 59.6051C56.2974 58.9424 56.8155 58.1231 57.2131 57.2436ZM60.3577 28.6527C61.5144 30.6286 62.3457 32.8214 62.8517 35.1347C63.1529 36.5444 63.3216 37.9782 63.2734 39.3999C63.2373 40.6409 63.0204 41.7855 62.5987 42.7493C62.4782 43.0265 62.3457 43.2915 62.1891 43.5084C61.6107 44.3277 61.0204 44.3759 60.43 43.8457C60.1288 43.5807 59.8999 43.171 59.695 42.7012C59.4541 42.159 59.2733 41.5686 59.1047 40.9421C59.0685 40.8095 59.0685 40.7011 59.1047 40.5565C59.4059 39.4842 59.6589 38.3758 59.8396 37.2312C60.0926 35.6649 60.2493 34.0504 60.2854 32.3756C60.3095 31.1828 60.2613 29.9539 60.1529 28.7129C60.1408 28.5924 60.1288 28.4719 60.1167 28.3033C60.2372 28.4599 60.2975 28.5563 60.3577 28.6527ZM53.7552 56.9062C53.5383 57.0629 53.3214 57.2075 53.1046 57.3159C52.2853 57.7015 51.731 57.4725 51.4057 56.7858C51.237 56.4484 51.1888 56.0267 51.1768 55.5809C51.1647 55.0628 51.2129 54.5327 51.2973 53.9905C54.2371 51.364 56.9601 46.5687 57.3215 45.5687C57.3336 45.5325 57.3576 45.4964 57.3697 45.4602C57.5384 47.3277 57.3817 49.2796 56.9239 51.1953C56.6347 52.3881 56.213 53.5447 55.6347 54.6171C55.1166 55.5568 54.4901 56.34 53.7552 56.9062Z" fill="#4E534A"/>
<path d="M2.23604 39.7854C3.00714 40.9782 3.87462 42.0987 4.8385 43.0867C7.18794 45.4964 9.91089 47.3759 12.7905 48.641C13.2242 48.8338 13.658 48.9784 14.0917 49.135C14.1037 49.1471 14.1158 49.1591 14.1278 49.1712C13.7664 49.0748 13.4531 48.9784 13.1278 48.8941C11.7543 48.5205 10.429 48.135 9.17593 47.9904C8.58556 47.9302 8.04339 47.9181 7.56145 48.0266C6.93493 48.1711 6.59757 48.5808 6.39275 49.135C6.24817 49.5447 6.30841 50.0627 6.56143 50.6652C6.82649 51.3037 7.19999 51.9423 7.64579 52.5929C7.88676 52.9303 8.13977 53.2797 8.42894 53.605C9.1157 54.3881 9.97114 55.0749 10.935 55.6653C12.3326 56.5087 13.7905 57.2436 15.3086 57.7978C18.9713 59.1473 22.8268 59.7979 26.61 59.7376C27.6582 59.7256 28.6944 59.6412 29.6824 59.4846C29.7788 59.4726 29.8752 59.4485 29.9956 59.4244C29.9113 59.3882 29.8751 59.3762 29.839 59.3641C27.9835 58.6894 26.2486 57.8942 24.6461 56.9906C22.7545 55.9303 21.0316 54.7375 19.4894 53.4363C17.9111 52.111 16.5014 50.6772 15.2845 49.1712C12.5134 47.9904 7.23614 32.6648 8.62171 32.1106C8.60966 31.7732 8.60967 31.4238 8.60967 31.0865C8.63376 29.5081 8.80244 27.9659 9.10365 26.496C9.26028 25.7731 9.42896 25.0622 9.63378 24.3755C9.94704 23.3634 10.3205 22.3875 10.7543 21.4598C10.9109 21.1104 11.0916 20.773 11.2603 20.4356C11.3085 20.3393 11.3567 20.2308 11.4169 20.1344C11.0796 19.8935 10.7543 19.6404 10.429 19.3754C10.3808 19.4597 10.3326 19.5441 10.2964 19.6163C9.77836 20.6284 9.33257 21.6766 8.95907 22.7851C8.7181 23.4959 8.51327 24.2068 8.33255 24.9538C8.10363 25.9177 7.9229 26.9056 7.81446 27.9057C7.66988 29.1949 7.62169 30.5202 7.68193 31.8696C7.69398 32.0865 7.69398 33.4841 7.99519 35.3998C7.76627 35.2311 7.56145 35.0504 7.35663 34.8817C6.39275 34.1106 5.44093 33.3516 4.42886 32.7973C3.95897 32.5443 3.48908 32.3395 3.01919 32.2672C2.41677 32.1708 1.92278 32.3756 1.48904 32.7612C1.16373 33.0504 0.970958 33.4841 0.910716 34.0745C0.838425 34.6889 0.862518 35.3637 0.934809 36.0504C0.970954 36.4119 1.0312 36.7854 1.11554 37.1709C1.29626 38.0986 1.70591 38.9782 2.23604 39.7854ZM24.5618 57.9183C22.2846 57.8219 19.9713 57.328 17.7665 56.5087C16.417 56.0026 15.1158 55.3641 13.9471 54.5568C12.923 53.858 12.0796 53.0508 11.4892 52.1833C11.3206 51.9303 11.176 51.6772 11.0675 51.4363C10.682 50.5085 10.9712 49.9784 11.7423 49.7736C12.1278 49.6651 12.5977 49.7013 13.1037 49.7856C13.6821 49.882 14.2845 50.0386 14.8989 50.2435C15.0315 50.2796 15.1279 50.3399 15.2122 50.4483C15.9592 51.2917 16.7544 52.0989 17.6098 52.87C18.7785 53.9303 20.0677 54.9424 21.4412 55.8701C22.4292 56.5448 23.4895 57.1593 24.5859 57.7496C24.6943 57.8099 24.8028 57.8581 24.9473 57.9424C24.7907 57.9183 24.6823 57.9183 24.5618 57.9183ZM4.38066 37.0625C4.35657 36.7974 4.35657 36.5323 4.39271 36.3034C4.5132 35.3998 5.00718 35.0624 5.75418 35.1588C6.12768 35.207 6.51323 35.3877 6.89878 35.6167C7.33252 35.8817 7.75422 36.2191 8.16387 36.5805C8.77834 40.4722 11.3326 45.3639 11.9832 46.2072C12.0073 46.2313 12.0314 46.2675 12.0435 46.3036C10.3808 45.4361 8.82653 44.2434 7.46506 42.8216C6.62167 41.9421 5.87467 40.9541 5.28429 39.8818C4.79031 38.942 4.465 37.9782 4.38066 37.0625Z" fill="#4E534A"/>
</svg>
