<svg width="66" height="66" viewBox="0 0 66 66" fill="none" xmlns="http://www.w3.org/2000/svg">
<path d="M33.2709 36.0624C42.9531 36.0624 50.8021 28.2134 50.8021 18.5312C50.8021 8.84899 42.9531 1 33.2709 1C23.5887 1 15.7397 8.84899 15.7397 18.5312C15.7397 28.2134 23.5887 36.0624 33.2709 36.0624Z" fill="white" stroke="#4E534A" stroke-width="2" stroke-miterlimit="10"/>
<path d="M33.2709 31.8848C40.6459 31.8848 46.6245 25.9062 46.6245 18.5312C46.6245 11.1562 40.6459 5.1776 33.2709 5.1776C25.8959 5.1776 19.9173 11.1562 19.9173 18.5312C19.9173 25.9062 25.8959 31.8848 33.2709 31.8848Z" fill="white" stroke="#4E534A" stroke-width="2" stroke-miterlimit="10"/>
<path d="M33.3199 6.32919C26.5818 6.32919 21.1301 11.7931 21.1301 18.519C21.1301 25.257 26.5941 30.7087 33.3199 30.7087C40.0579 30.7087 45.5097 25.2448 45.5097 18.519C45.5097 11.7931 40.0457 6.32919 33.3199 6.32919ZM44.162 20.7241C44.015 21.4592 41.4423 20.9569 38.8328 20.2464C41.4178 21.1284 43.868 22.182 43.574 22.8803C43.329 23.4561 41.6138 22.8681 39.6414 21.9492C41.4668 23.0763 42.9002 24.1789 42.5572 24.6935C42.1406 25.3305 39.9109 23.8604 37.7425 22.1943C39.7884 23.9829 41.6628 25.8818 41.1238 26.4209C40.6093 26.9354 38.8574 25.2448 37.1422 23.3091C38.6858 25.355 39.9599 27.3764 39.3596 27.7685C38.7961 28.136 37.5832 26.4576 36.3704 24.4239C37.3872 26.5924 38.11 28.5893 37.4852 28.8466C36.8849 29.0916 36.0396 27.3152 35.2801 25.1713C35.8069 27.3519 36.0886 29.2754 35.4516 29.3979C34.7165 29.5449 34.1775 26.9722 33.8222 24.2769C33.7977 24.2769 33.7854 24.2769 33.7609 24.2769C33.9447 26.9967 33.9324 29.6551 33.1729 29.6551C32.4991 29.6551 32.4133 27.5357 32.5236 25.1468C32.1683 27.4867 31.666 29.5204 31.0044 29.3856C30.2694 29.2386 30.7717 26.6536 31.4822 24.0564C30.6002 26.6414 29.5466 29.0916 28.8483 28.7976C28.2725 28.5525 28.8728 26.8374 29.7793 24.865C28.6522 26.6904 27.5497 28.1238 27.0351 27.7807C26.3981 27.3642 27.8682 25.1468 29.5221 22.9783C27.7334 25.0242 25.8468 26.8742 25.32 26.3474C24.8054 25.8328 26.4961 24.0809 28.4317 22.3658C26.3858 23.9094 24.3644 25.1835 23.9724 24.5832C23.6048 24.0197 25.2832 22.8068 27.3169 21.594C25.1485 22.6108 23.1515 23.3336 22.8943 22.7088C22.6493 22.1085 24.4257 21.2754 26.5696 20.5036C24.3889 21.0304 22.4655 21.3122 22.343 20.6751C22.196 19.9401 24.7687 19.401 27.4517 19.0457V19.0335C24.7197 19.2173 22.0244 19.205 22.0244 18.4454C22.0244 17.7716 24.1439 17.6859 26.5328 17.7961C24.1929 17.4409 22.1592 16.9386 22.294 16.277C22.441 15.542 25.0137 16.0443 27.6232 16.7548C25.0382 15.8727 22.588 14.8191 22.882 14.1208C23.1271 13.545 24.8422 14.1453 26.8146 15.0519C24.9892 13.9248 23.5558 12.8222 23.8989 12.3077C24.3154 11.6706 26.5451 13.1408 28.7135 14.8069C26.6676 13.0182 24.7932 11.1193 25.3322 10.5803C25.8468 10.0658 27.5987 11.7564 29.3138 13.6921C27.7702 11.6461 26.4961 9.62472 27.0964 9.23268C27.6599 8.86515 28.8728 10.5435 30.0856 12.5772C29.0688 10.4088 28.346 8.41187 28.9708 8.15459C29.5711 7.90957 30.4164 9.68597 31.176 11.8299C30.6492 9.64922 30.3674 7.72581 31.0044 7.6033C31.7518 7.45629 32.2908 10.0658 32.6461 12.7732C32.6583 12.7732 32.6828 12.7732 32.6951 12.7732C32.5113 10.0535 32.5358 7.39503 33.2831 7.39503C33.9569 7.39503 34.0427 9.51446 33.9324 11.9034C34.2877 9.56346 34.79 7.52979 35.4516 7.66455C36.1866 7.81157 35.6843 10.3843 34.9738 12.9937C35.8559 10.4088 36.9094 7.95858 37.6077 8.2526C38.1835 8.49762 37.5832 10.2128 36.6767 12.1852C37.8038 10.3598 38.9064 8.92641 39.4209 9.26944C40.058 9.68597 38.5878 11.9157 36.9217 14.0841C38.7103 12.0382 40.6092 10.1638 41.1483 10.7028C41.6628 11.2173 39.9722 12.9692 38.0365 14.6844C40.0825 13.1408 42.1039 11.8667 42.4959 12.467C42.8634 13.0305 41.1851 14.2434 39.1514 15.4562C41.3198 14.4394 43.3167 13.7166 43.574 14.3414C43.819 14.9417 42.0426 15.787 39.8987 16.5465C42.0794 16.0197 44.0028 15.738 44.1253 16.375C44.2601 17.0611 42.0304 17.5756 39.5434 17.9309C42.0671 17.7839 44.3948 17.8451 44.3948 18.5557C44.3948 19.2295 42.3121 19.3153 39.9477 19.205C42.2754 19.5603 44.2968 20.0626 44.162 20.7241Z" fill="#4E534A"/>
<path d="M40.058 59.0086C39.0656 54.3777 37.571 46.2798 44.3826 41.2813C52.6642 35.2048 68.1985 22.6598 65.0133 9.74723C63.5922 4.0015 58.802 2.94791 56.7071 3.38895C53.5708 4.0505 51.2921 5.98616 50.6428 7.90957C49.234 12.0382 51.4759 14.9907 51.4269 18.1637C51.3166 25.2693 42.6919 35.8786 33.2096 36.9077C23.7273 35.8786 15.1026 25.2693 14.9924 18.1637C14.9434 15.0029 17.1853 12.0382 15.7764 7.90957C15.1271 5.98616 12.8485 4.0505 9.71219 3.38895C7.61727 2.94791 2.81487 4.0015 1.406 9.74723C-1.77926 22.6475 13.7673 35.2048 22.0367 41.2813C29.1056 46.4635 27.2189 55.0147 26.2388 59.5354C22.0735 63.2352 16.389 64.8033 9.87144 57.1219C16.5115 72.9625 30.9187 63.1127 33.1361 61.4588H33.7364C35.9539 63.1004 50.3611 72.9502 57.0011 57.1219C50.1773 65.1708 44.2601 63.0759 40.058 59.0086Z" fill="#4E534A"/>
</svg>
