<svg width="55" height="55" viewBox="0 0 55 55" fill="none" xmlns="http://www.w3.org/2000/svg">
<g clip-path="url(#clip0_923:5000)">
<path d="M50.9896 25.96C50.8822 26.1206 50.7306 26.2466 50.5532 26.3229C50.3757 26.3992 50.18 26.4225 49.9896 26.39C49.2096 26.28 48.4295 26.1599 47.6495 26.0699C45.6495 25.8499 43.5796 25.62 41.5396 25.41C39.8396 25.24 38.1296 25.07 36.4196 24.97C35.4196 24.9 34.4196 24.87 33.4196 24.85C33.6599 24.4002 33.8094 23.9075 33.8596 23.4C33.8682 23.1672 33.9396 22.9411 34.0664 22.7457C34.1932 22.5502 34.3705 22.3927 34.5795 22.29C34.9501 22.1503 35.359 22.1503 35.7296 22.29C36.2796 22.41 36.8295 22.58 37.3895 22.67C38.3154 22.8182 39.2626 22.5994 40.0295 22.06C40.3249 21.853 40.6056 21.6258 40.8696 21.3799C40.9019 21.3685 40.9372 21.3685 40.9695 21.3799C41.3627 21.5666 41.8083 21.6118 42.231 21.508C42.6537 21.4041 43.0276 21.1576 43.2896 20.81C43.8757 20.0765 44.6258 19.4908 45.4796 19.1C45.6096 19.03 45.9995 18.98 45.9695 18.85C45.9395 18.72 44.4695 18.66 44.3395 18.54C44.2095 18.42 44.3395 17.39 44.1395 17.19C43.9295 17.02 42.9096 17.11 42.7896 16.98C42.6696 16.85 42.6096 15.39 42.4796 15.36C42.3496 15.33 42.2996 15.71 42.2296 15.85C41.8299 16.6983 41.2457 17.4466 40.5195 18.04C40.1688 18.2995 39.9199 18.6734 39.8158 19.0971C39.7117 19.5208 39.759 19.9675 39.9495 20.36C39.9573 20.3792 39.9573 20.4007 39.9495 20.42C39.5578 20.8587 39.0388 21.164 38.465 21.2931C37.8912 21.4222 37.2914 21.3686 36.7496 21.14C36.2195 20.9257 35.6596 20.7942 35.0895 20.75C34.4201 20.7298 33.7661 20.9536 33.2496 21.3799C32.777 21.7777 32.4615 22.3308 32.3596 22.94C32.3096 23.2 32.2895 23.46 32.2595 23.73C32.1995 24.29 32.0395 24.52 31.4495 24.61C30.8595 24.7 30.0895 24.77 29.3995 24.81H29.2695V24.68C29.2695 23.99 29.3695 23.3 29.4695 22.62C29.5695 21.94 29.7896 21.87 30.3596 21.81C30.6196 21.81 30.8895 21.81 31.1495 21.72C31.7545 21.6075 32.302 21.2896 32.6995 20.8199C33.1235 20.306 33.3473 19.656 33.3295 18.99C33.2898 18.4203 33.1616 17.8602 32.9495 17.33C32.7454 16.8089 32.6832 16.243 32.7695 15.69C32.912 15.0931 33.2206 14.5488 33.6595 14.12H33.7296C34.1224 14.3086 34.5685 14.3548 34.9917 14.2509C35.4149 14.1469 35.7888 13.8992 36.0496 13.55C36.6372 12.8221 37.3826 12.2373 38.2296 11.84C38.3696 11.77 38.7595 11.73 38.7195 11.6C38.6795 11.47 37.2295 11.41 37.0995 11.29C36.9695 11.17 37.0995 10.14 36.8895 9.94C36.6895 9.77 35.6696 9.84998 35.5396 9.72998C35.4096 9.60998 35.3596 8.13999 35.2296 8.10999C35.0996 8.07999 35.0596 8.45998 34.9896 8.59998C34.5895 9.44524 34.0052 10.1901 33.2795 10.78C32.9272 11.0382 32.677 11.4122 32.5728 11.8364C32.4686 12.2606 32.517 12.7079 32.7095 13.1C32.7151 13.1331 32.7151 13.1669 32.7095 13.2C32.4636 13.4673 32.2364 13.7514 32.0295 14.05C31.4888 14.8126 31.2697 15.7572 31.4196 16.68C31.5096 17.24 31.6796 17.79 31.8096 18.34C31.9447 18.7148 31.9447 19.1251 31.8096 19.5C31.7038 19.708 31.5439 19.8836 31.3469 20.0085C31.1498 20.1335 30.9228 20.203 30.6896 20.21C30.1831 20.265 29.6913 20.4143 29.2396 20.65C29.2396 19.65 29.1895 18.65 29.1295 17.65C29.0195 15.94 28.8496 14.24 28.6796 12.53C28.4796 10.53 28.2495 8.45998 28.0195 6.41998C27.9295 5.63998 27.8095 4.85996 27.7095 4.07996C27.6646 3.89027 27.681 3.6912 27.7565 3.51147C27.832 3.33174 27.9626 3.18064 28.1295 3.07996C28.4195 2.88996 27.1296 0.189961 27.0396 -0.0400391C26.9496 0.189961 25.6695 2.88996 25.9595 3.07996C26.1265 3.18064 26.2571 3.33174 26.3326 3.51147C26.4081 3.6912 26.4245 3.89027 26.3795 4.07996C26.2795 4.85996 26.1595 5.63998 26.0695 6.41998C25.8395 8.41998 25.6095 10.49 25.4095 12.53C25.2395 14.24 25.0695 15.94 24.9595 17.65C24.8995 18.65 24.8695 19.65 24.8495 20.65C24.3978 20.4143 23.9061 20.265 23.3995 20.21C23.1663 20.203 22.9393 20.1335 22.7422 20.0085C22.5451 19.8836 22.3853 19.708 22.2795 19.5C22.1444 19.1251 22.1444 18.7148 22.2795 18.34C22.4095 17.79 22.5796 17.24 22.6696 16.68C22.8194 15.7572 22.6003 14.8126 22.0596 14.05C21.8527 13.7514 21.6254 13.4673 21.3795 13.2C21.3739 13.1669 21.3739 13.1331 21.3795 13.1C21.572 12.7079 21.6205 12.2606 21.5162 11.8364C21.412 11.4122 21.1619 11.0382 20.8096 10.78C20.0839 10.1901 19.4996 9.44524 19.0995 8.59998C19.0295 8.45998 18.9896 8.06999 18.8596 8.10999C18.7296 8.14999 18.6696 9.59998 18.5496 9.72998C18.4296 9.85998 17.3995 9.73 17.1995 9.94C17.0295 10.14 17.1096 11.16 16.9896 11.29C16.8696 11.42 15.3996 11.47 15.3696 11.6C15.3396 11.73 15.7196 11.77 15.8596 11.84C16.7048 12.24 17.4497 12.8243 18.0396 13.55C18.299 13.9007 18.673 14.1496 19.0967 14.2537C19.5204 14.3578 19.9671 14.3105 20.3596 14.12H20.4296C20.8693 14.5466 21.1752 15.0922 21.3096 15.69C21.4045 16.2419 21.3457 16.8093 21.1395 17.33C20.9274 17.8602 20.7992 18.4203 20.7595 18.99C20.7417 19.656 20.9655 20.306 21.3895 20.8199C21.7871 21.2896 22.3346 21.6075 22.9396 21.72C23.1996 21.72 23.4696 21.79 23.7296 21.81C24.2996 21.87 24.5296 22.04 24.6196 22.62C24.7096 23.2 24.7795 23.99 24.8195 24.68V24.81H24.6896C23.9996 24.81 23.3196 24.71 22.6896 24.61C22.0596 24.51 21.9395 24.29 21.8795 23.73C21.8795 23.46 21.8795 23.2 21.7795 22.94C21.6776 22.3308 21.3621 21.7777 20.8895 21.3799C20.3729 20.9536 19.719 20.7298 19.0496 20.75C18.4795 20.7942 17.9196 20.9257 17.3895 21.14C16.8429 21.3744 16.2363 21.4301 15.6561 21.299C15.076 21.1679 14.5522 20.8567 14.1595 20.41C14.1518 20.3907 14.1518 20.3692 14.1595 20.35C14.3501 19.9575 14.3974 19.5108 14.2933 19.0871C14.1892 18.6634 13.9403 18.2895 13.5895 18.03C12.8634 17.4366 12.2791 16.6883 11.8795 15.84C11.8095 15.7 11.7595 15.32 11.6295 15.35C11.4995 15.38 11.4495 16.85 11.3195 16.97C11.1895 17.09 10.1795 16.97 9.96954 17.18C9.79954 17.38 9.88953 18.41 9.76953 18.53C9.64953 18.65 8.16953 18.71 8.13953 18.84C8.10953 18.97 8.49952 19.02 8.62952 19.09C9.48326 19.4808 10.2334 20.0665 10.8195 20.8C11.0768 21.1591 11.4517 21.4168 11.8792 21.5282C12.3067 21.6396 12.7597 21.5978 13.1595 21.41C13.1919 21.3985 13.2272 21.3985 13.2595 21.41C13.5235 21.6558 13.8042 21.883 14.0995 22.09C14.8665 22.6293 15.8137 22.8482 16.7396 22.7C17.2996 22.61 17.8495 22.4399 18.3995 22.3199C18.7701 22.1802 19.179 22.1802 19.5496 22.3199C19.7586 22.4227 19.9359 22.5802 20.0627 22.7756C20.1895 22.9711 20.2609 23.1972 20.2695 23.43C20.3197 23.9375 20.4692 24.4301 20.7095 24.8799C19.7095 24.8799 18.7095 24.88 17.7095 25C15.9995 25.1 14.2895 25.27 12.5895 25.44C10.5895 25.65 8.50955 25.88 6.47955 26.1C5.69955 26.19 4.91956 26.31 4.13956 26.42C3.94915 26.4526 3.75336 26.4293 3.5759 26.353C3.39844 26.2767 3.2469 26.1506 3.13956 25.99C2.95956 25.7 0.259531 26.99 0.0195312 27.08C0.259531 27.17 2.95956 28.45 3.13956 28.17C3.2388 28.0012 3.38928 27.8685 3.56912 27.7912C3.74897 27.7139 3.94881 27.6959 4.13956 27.74C4.91956 27.85 5.69955 27.96 6.47955 28.05C8.47955 28.28 10.5495 28.51 12.5895 28.71C14.2895 28.88 15.9995 29.05 17.7095 29.16C18.7095 29.22 19.7095 29.25 20.7095 29.27C20.4692 29.7233 20.3197 30.2193 20.2695 30.73C20.2609 30.9628 20.1895 31.1889 20.0627 31.3843C19.9359 31.5798 19.7586 31.7372 19.5496 31.84C19.178 31.9744 18.7711 31.9744 18.3995 31.84C17.8495 31.72 17.2996 31.54 16.7396 31.45C15.814 31.3111 14.8704 31.5292 14.0995 32.06C13.8064 32.2735 13.5259 32.5039 13.2595 32.75C13.2595 32.75 13.1795 32.75 13.1595 32.75C12.7671 32.5595 12.3203 32.5121 11.8967 32.6162C11.473 32.7203 11.099 32.9692 10.8395 33.3199C10.2483 34.0483 9.4995 34.633 8.64954 35.03C8.51954 35.1 8.12955 35.15 8.15955 35.28C8.18955 35.41 9.65955 35.46 9.78955 35.59C9.91955 35.72 9.78956 36.73 9.98956 36.94C10.1996 37.1 11.2195 37.02 11.3395 37.14C11.4595 37.26 11.5195 38.73 11.6495 38.77C11.7795 38.81 11.8295 38.41 11.8995 38.28C12.2965 37.43 12.8812 36.6812 13.6096 36.09C13.9603 35.8305 14.2092 35.4565 14.3133 35.0328C14.4174 34.6092 14.3701 34.1624 14.1796 33.77C14.1752 33.7502 14.1752 33.7297 14.1796 33.71C14.6042 33.2656 15.1502 32.956 15.7496 32.8199C16.2982 32.7242 16.8625 32.7831 17.3795 32.99C17.9086 33.2056 18.4693 33.334 19.0396 33.37C19.7097 33.3949 20.3653 33.1704 20.8795 32.74C21.35 32.3447 21.6654 31.7956 21.7695 31.19C21.8195 30.93 21.8396 30.66 21.8696 30.4C21.9296 29.83 22.0896 29.61 22.6796 29.52C23.3425 29.4198 24.01 29.3531 24.6796 29.3199H24.8096V29.41C24.8096 30.1 24.7096 30.79 24.6096 31.47C24.5096 32.15 24.2895 32.22 23.7195 32.27C23.4595 32.27 23.1896 32.27 22.9296 32.37C22.3232 32.4784 21.7743 32.7971 21.3795 33.27C20.9539 33.783 20.73 34.4336 20.7496 35.1C20.7904 35.6695 20.9185 36.2294 21.1295 36.7599C21.3364 37.277 21.3953 37.8414 21.2996 38.39C21.1653 38.9907 20.8596 39.5396 20.4196 39.97C20.4196 39.97 20.4195 39.97 20.3495 39.97C19.9563 39.7833 19.5108 39.7381 19.0881 39.8419C18.6654 39.9458 18.2915 40.1924 18.0295 40.54C17.4462 41.2722 16.6997 41.8579 15.8495 42.25C15.7095 42.32 15.3196 42.37 15.3596 42.5C15.3996 42.63 16.8496 42.69 16.9796 42.81C17.1096 42.93 16.9796 43.96 17.1896 44.16C17.3896 44.33 18.4096 44.24 18.5396 44.37C18.6696 44.5 18.7195 45.96 18.8495 45.99C18.9795 46.02 19.0195 45.64 19.0895 45.5C19.4892 44.6517 20.0734 43.9034 20.7996 43.31C21.1519 43.0518 21.402 42.6778 21.5062 42.2536C21.6104 41.8294 21.5621 41.3821 21.3696 40.99C21.3639 40.9603 21.3639 40.9297 21.3696 40.9C21.6155 40.6326 21.8427 40.3486 22.0496 40.05C22.5889 39.283 22.8078 38.3358 22.6595 37.41C22.5695 36.85 22.3995 36.31 22.2695 35.75C22.1351 35.3785 22.1351 34.9715 22.2695 34.6C22.3748 34.3908 22.5343 34.2137 22.7313 34.0871C22.9282 33.9605 23.1555 33.8889 23.3895 33.8799C23.897 33.8297 24.3897 33.6803 24.8395 33.44C24.8395 34.44 24.8395 35.44 24.9495 36.44C25.0595 38.14 25.2295 39.85 25.3995 41.55C25.5995 43.55 25.8296 45.63 26.0596 47.67C26.1496 48.45 26.2696 49.2299 26.3696 50.0099C26.4145 50.1996 26.3981 50.3987 26.3226 50.5784C26.2471 50.7582 26.1164 50.9093 25.9495 51.0099C25.6595 51.1899 26.9495 53.8899 27.0295 54.1299C27.1295 53.8899 28.4096 51.1899 28.1196 51.0099C27.9526 50.9093 27.822 50.7582 27.7465 50.5784C27.671 50.3987 27.6546 50.1996 27.6995 50.0099C27.7995 49.2299 27.9195 48.45 28.0095 47.67C28.2395 45.67 28.4696 43.59 28.6696 41.55C28.8396 39.85 29.0096 38.14 29.1196 36.44C29.1796 35.44 29.2096 34.44 29.2296 33.44C29.6794 33.6803 30.1721 33.8297 30.6796 33.8799C30.9136 33.8889 31.1409 33.9605 31.3378 34.0871C31.5348 34.2137 31.6943 34.3908 31.7996 34.6C31.934 34.9715 31.934 35.3785 31.7996 35.75C31.6696 36.31 31.4995 36.85 31.4095 37.41C31.2613 38.3358 31.4802 39.283 32.0195 40.05C32.2264 40.3486 32.4536 40.6326 32.6995 40.9C32.7052 40.9297 32.7052 40.9603 32.6995 40.99C32.507 41.3821 32.4586 41.8294 32.5629 42.2536C32.6671 42.6778 32.9172 43.0518 33.2695 43.31C33.9957 43.9034 34.5799 44.6517 34.9796 45.5C35.0496 45.64 35.0895 46.02 35.2195 45.99C35.3495 45.96 35.4095 44.49 35.5295 44.37C35.6495 44.25 36.6795 44.37 36.8795 44.16C37.0495 43.96 36.9695 42.93 37.0895 42.81C37.2095 42.69 38.6795 42.63 38.7095 42.5C38.7395 42.37 38.3595 42.32 38.2195 42.25C37.3694 41.8579 36.6229 41.2722 36.0396 40.54C35.7776 40.1924 35.4037 39.9458 34.981 39.8419C34.5583 39.7381 34.1127 39.7833 33.7195 39.97C33.7195 39.97 33.7195 39.97 33.6495 39.97C33.2103 39.5374 32.9018 38.9898 32.7595 38.39C32.6736 37.8403 32.7358 37.2776 32.9396 36.7599C33.1506 36.2294 33.2787 35.6695 33.3195 35.1C33.3391 34.4336 33.1152 33.783 32.6896 33.27C32.2936 32.8159 31.7533 32.5122 31.1595 32.41C30.8995 32.36 30.6296 32.34 30.3696 32.31C29.7996 32.31 29.5696 32.0899 29.4796 31.5099C29.3896 30.9299 29.3195 30.14 29.2795 29.45V29.3199H29.4095C30.0959 29.3514 30.7801 29.4181 31.4595 29.52C32.0495 29.61 32.2095 29.83 32.2695 30.4C32.2695 30.66 32.2696 30.93 32.3696 31.19C32.4737 31.7956 32.789 32.3447 33.2595 32.74C33.7738 33.1704 34.4294 33.3949 35.0995 33.37C35.6698 33.334 36.2304 33.2056 36.7595 32.99C37.2765 32.7831 37.8409 32.7242 38.3895 32.8199C38.9889 32.956 39.5349 33.2656 39.9595 33.71C39.9639 33.7297 39.9639 33.7502 39.9595 33.77C39.769 34.1624 39.7217 34.6092 39.8258 35.0328C39.9299 35.4565 40.1788 35.8305 40.5295 36.09C41.2579 36.6812 41.8426 37.43 42.2396 38.28C42.3096 38.41 42.3596 38.8 42.4896 38.77C42.6196 38.74 42.6696 37.27 42.7996 37.14C42.9296 37.01 43.9395 37.14 44.1495 36.94C44.3195 36.73 44.2295 35.71 44.3495 35.59C44.4695 35.47 45.9496 35.41 45.9796 35.28C46.0096 35.15 45.6196 35.1 45.4896 35.03C44.6396 34.633 43.8908 34.0483 43.2996 33.3199C43.0401 32.9692 42.6661 32.7203 42.2424 32.6162C41.8188 32.5121 41.372 32.5595 40.9796 32.75C40.9796 32.75 40.9195 32.75 40.8795 32.75C40.6132 32.5039 40.3327 32.2735 40.0396 32.06C39.2687 31.5292 38.3251 31.3111 37.3995 31.45C36.8395 31.54 36.2896 31.72 35.7396 31.84C35.368 31.9744 34.9611 31.9744 34.5895 31.84C34.3805 31.7372 34.2032 31.5798 34.0764 31.3843C33.9496 31.1889 33.8782 30.9628 33.8696 30.73C33.8194 30.2193 33.6699 29.7233 33.4296 29.27C34.4296 29.27 35.4296 29.22 36.4296 29.16C38.1396 29.05 39.8496 28.88 41.5496 28.71C43.5496 28.51 45.6295 28.28 47.6595 28.05C48.4395 27.96 49.2196 27.85 49.9996 27.74C50.1903 27.6959 50.3901 27.7139 50.5699 27.7912C50.7498 27.8685 50.9003 28.0012 50.9996 28.17C51.1796 28.45 53.8796 27.17 54.1196 27.08C53.8696 26.95 51.1596 25.67 50.9896 25.96ZM41.5695 19.19C41.6471 19.1183 41.7489 19.0785 41.8546 19.0785C41.9602 19.0785 42.0619 19.1183 42.1395 19.19C42.1776 19.2281 42.2079 19.2732 42.2285 19.323C42.2491 19.3728 42.2597 19.4261 42.2597 19.48C42.2597 19.5338 42.2491 19.5871 42.2285 19.6369C42.2079 19.6867 42.1776 19.7319 42.1395 19.77C42.1023 19.8078 42.058 19.8378 42.009 19.8583C41.9601 19.8788 41.9076 19.8893 41.8546 19.8893C41.8015 19.8893 41.749 19.8788 41.7001 19.8583C41.6511 19.8378 41.6067 19.8078 41.5695 19.77C41.5314 19.7319 41.5012 19.6867 41.4806 19.6369C41.46 19.5871 41.4494 19.5338 41.4494 19.48C41.4494 19.4261 41.46 19.3728 41.4806 19.323C41.5012 19.2732 41.5314 19.2281 41.5695 19.19V19.19ZM34.3295 11.96C34.3676 11.9219 34.4128 11.8917 34.4626 11.8711C34.5123 11.8505 34.5657 11.8398 34.6196 11.8398C34.6734 11.8398 34.7267 11.8505 34.7765 11.8711C34.8262 11.8917 34.8715 11.9219 34.9095 11.96C34.9476 11.998 34.9779 12.0433 34.9985 12.093C35.0191 12.1428 35.0297 12.1961 35.0297 12.25C35.0297 12.3039 35.0191 12.3572 34.9985 12.4069C34.9779 12.4567 34.9476 12.5019 34.9095 12.54C34.8326 12.6169 34.7283 12.6601 34.6196 12.6601C34.5108 12.6601 34.4064 12.6169 34.3295 12.54C34.2526 12.4631 34.2094 12.3588 34.2094 12.25C34.2094 12.1412 34.2526 12.0369 34.3295 11.96V11.96ZM19.7795 12.54C19.7003 12.6124 19.5969 12.6525 19.4896 12.6525C19.3822 12.6525 19.2788 12.6124 19.1995 12.54C19.1226 12.4631 19.0794 12.3588 19.0794 12.25C19.0794 12.1412 19.1226 12.0369 19.1995 11.96C19.2764 11.883 19.3808 11.8398 19.4896 11.8398C19.5983 11.8398 19.7026 11.883 19.7795 11.96C19.8519 12.0392 19.892 12.1427 19.892 12.25C19.892 12.3573 19.8519 12.4607 19.7795 12.54V12.54ZM12.5396 19.77C12.5023 19.8078 12.458 19.8378 12.4091 19.8583C12.3601 19.8788 12.3076 19.8893 12.2545 19.8893C12.2015 19.8893 12.149 19.8788 12.1 19.8583C12.0511 19.8378 12.0068 19.8078 11.9695 19.77C11.9314 19.7319 11.9012 19.6867 11.8806 19.6369C11.86 19.5871 11.8494 19.5338 11.8494 19.48C11.8494 19.4261 11.86 19.3728 11.8806 19.323C11.9012 19.2732 11.9314 19.2281 11.9695 19.19C12.0471 19.1183 12.1489 19.0785 12.2545 19.0785C12.3602 19.0785 12.462 19.1183 12.5396 19.19C12.5776 19.2281 12.6079 19.2732 12.6285 19.323C12.6491 19.3728 12.6597 19.4261 12.6597 19.48C12.6597 19.5338 12.6491 19.5871 12.6285 19.6369C12.6079 19.6867 12.5776 19.7319 12.5396 19.77V19.77ZM12.5396 34.9C12.4834 34.9553 12.4121 34.9928 12.3347 35.0078C12.2572 35.0227 12.1771 35.0144 12.1044 34.9839C12.0316 34.9535 11.9695 34.9022 11.9258 34.8365C11.8822 34.7709 11.8589 34.6938 11.8589 34.615C11.8589 34.5361 11.8822 34.459 11.9258 34.3934C11.9695 34.3277 12.0316 34.2765 12.1044 34.246C12.1771 34.2156 12.2572 34.2073 12.3347 34.2222C12.4121 34.2372 12.4834 34.2746 12.5396 34.33C12.5773 34.3672 12.6074 34.4116 12.6279 34.4605C12.6484 34.5094 12.6589 34.5619 12.6589 34.615C12.6589 34.668 12.6484 34.7205 12.6279 34.7695C12.6074 34.8184 12.5773 34.8627 12.5396 34.9ZM19.7795 42.14C19.7003 42.2123 19.5969 42.2525 19.4896 42.2525C19.3822 42.2525 19.2788 42.2123 19.1995 42.14C19.1226 42.063 19.0794 41.9587 19.0794 41.85C19.0794 41.7412 19.1226 41.6369 19.1995 41.56C19.2764 41.4831 19.3808 41.4399 19.4896 41.4399C19.5983 41.4399 19.7026 41.4831 19.7795 41.56C19.8519 41.6392 19.892 41.7427 19.892 41.85C19.892 41.9573 19.8519 42.0607 19.7795 42.14V42.14ZM27.4495 28.2C27.2212 28.2779 26.975 28.2864 26.7418 28.2244C26.5087 28.1624 26.2992 28.0327 26.1398 27.8516C25.9804 27.6706 25.8782 27.4463 25.8462 27.2072C25.8142 26.9681 25.8538 26.7249 25.96 26.5083C26.0662 26.2917 26.2342 26.1114 26.4429 25.9903C26.6515 25.8692 26.8913 25.8127 27.1321 25.8278C27.3728 25.843 27.6037 25.9292 27.7955 26.0755C27.9873 26.2218 28.1313 26.4218 28.2095 26.65C28.2615 26.8016 28.2831 26.9621 28.273 27.1221C28.2629 27.2821 28.2214 27.4386 28.1508 27.5825C28.0802 27.7265 27.982 27.8551 27.8616 27.9611C27.7413 28.067 27.6013 28.1482 27.4495 28.2V28.2ZM34.3295 41.56C34.4064 41.4831 34.5108 41.4399 34.6196 41.4399C34.7283 41.4399 34.8326 41.4831 34.9095 41.56C34.9865 41.6369 35.0297 41.7412 35.0297 41.85C35.0297 41.9587 34.9865 42.063 34.9095 42.14C34.8326 42.2169 34.7283 42.2601 34.6196 42.2601C34.5108 42.2601 34.4064 42.2169 34.3295 42.14C34.2526 42.063 34.2094 41.9587 34.2094 41.85C34.2094 41.7412 34.2526 41.6369 34.3295 41.56V41.56ZM41.5695 34.33C41.6257 34.2746 41.697 34.2372 41.7744 34.2222C41.8518 34.2073 41.932 34.2156 42.0047 34.246C42.0774 34.2765 42.1395 34.3277 42.1832 34.3934C42.2269 34.459 42.2502 34.5361 42.2502 34.615C42.2502 34.6938 42.2269 34.7709 42.1832 34.8365C42.1395 34.9022 42.0774 34.9535 42.0047 34.9839C41.932 35.0144 41.8518 35.0227 41.7744 35.0078C41.697 34.9928 41.6257 34.9553 41.5695 34.9C41.5317 34.8627 41.5017 34.8184 41.4813 34.7695C41.4608 34.7205 41.4502 34.668 41.4502 34.615C41.4502 34.5619 41.4608 34.5094 41.4813 34.4605C41.5017 34.4116 41.5317 34.3672 41.5695 34.33V34.33Z" fill="#5F250F"/>
</g>
<defs>
<clipPath id="clip0_923:5000">
<rect width="54.1" height="54.1" fill="white"/>
</clipPath>
</defs>
</svg>
