<svg width="64" height="66" viewBox="0 0 64 66" fill="none" xmlns="http://www.w3.org/2000/svg">
<path d="M52.618 39.5776C52.9986 40.1312 53.3561 40.6386 53.7021 41.123C53.4253 41.6766 53.137 42.2301 52.8602 42.7837C51.8684 41.9187 51.7877 40.9154 52.618 39.5776Z" fill="white"/>
<path d="M25.6311 31.7699C24.2472 31.7814 18.227 33.8804 12.7143 46.382C9.4966 53.6708 3.6033 49.0231 5.24097 44.1908C6.31353 41.0192 12.3798 31.0779 20.326 29.8439C28.2721 28.6098 27.0497 31.7583 25.6311 31.7699Z" fill="#4E534A"/>
<path d="M26.6114 28.8982C25.3197 28.2523 18.7575 27.2605 8.11268 35.6219C1.90798 40.5118 -1.58649 33.6497 2.06944 30.1783C4.46828 27.9064 14.5134 22.0361 22.4942 24.7002C30.4634 27.3758 27.9377 29.5671 26.6114 28.8982Z" fill="#4E534A"/>
<path d="M28.3875 27.0298C27.5571 25.8419 22.2289 21.8631 8.6893 24.285C0.789279 25.692 1.06607 17.9534 6.00214 16.6041C9.24288 15.7161 21.018 15.2317 26.7844 21.3672C32.5508 27.5027 29.2409 28.2523 28.3875 27.0298Z" fill="#4E534A"/>
<path d="M30.7748 26.4417C30.694 24.8732 28.1337 18.1611 14.4673 12.5676C6.4865 9.3038 11.1689 2.38407 16.4278 3.98714C19.8762 5.03663 30.8439 11.4028 32.5739 20.3292C34.3038 29.2557 30.8555 28.0447 30.7748 26.4417Z" fill="#4E534A"/>
<path d="M33.3235 26.9606C34.0616 25.7151 35.4802 19.2105 27.6839 7.89677C23.14 1.28843 30.2904 -1.66399 33.5657 2.26873C35.7108 4.85209 41.016 15.3701 37.8098 23.1663C34.6037 30.9625 32.5739 28.2408 33.3235 26.9606Z" fill="#4E534A"/>
<path d="M34.9727 29.4863C36.2413 28.7482 40.7046 23.6853 39.3437 9.63823C38.5479 1.43835 46.3672 2.45324 47.3475 7.61997C47.9818 11.0106 47.5205 23.074 40.8314 28.3792C34.1539 33.6843 33.6695 30.236 34.9727 29.4863Z" fill="#4E534A"/>
<path d="M35.9069 32.0697C37.3485 32.0236 43.6109 29.7631 49.0313 17.1346C52.1913 9.7651 58.5114 14.2399 56.9313 19.1183C55.8934 22.3129 49.8156 32.4041 41.5234 33.8458C33.2197 35.2874 34.4191 32.1158 35.9069 32.0697Z" fill="#4E534A"/>
<path d="M35.3418 34.1687C36.6219 34.9875 43.3341 36.7867 55.236 29.4287C62.1788 25.1269 65.0966 32.6118 60.9447 35.7487C58.223 37.8016 47.1976 42.6684 39.1822 38.9664C31.1784 35.2759 34.027 33.3268 35.3418 34.1687Z" fill="#4E534A"/>
<path d="M34.0732 36.2215C34.892 37.6631 40.5547 42.7722 56.3201 41.4459C65.5233 40.6732 64.347 49.4844 58.5344 50.5108C54.7285 51.1797 41.189 50.4762 35.2726 42.8645C29.3562 35.2412 33.2313 34.7453 34.0732 36.2215Z" fill="#4E534A"/>
<path d="M31.213 37.0403C31.1439 38.4935 33.1621 44.9634 46.817 51.5487C54.7863 55.3892 49.2735 61.3055 43.9569 59.2757C40.474 57.9495 29.7022 50.9375 28.7681 42.4954C27.8339 34.0649 31.2822 35.5526 31.213 37.0403Z" fill="#4E534A"/>
<path d="M28.2491 36.4406C27.4995 37.8938 26.2078 45.2402 35.0189 57.0614C40.1626 63.9581 32.5624 67.9254 28.8834 63.8658C26.473 61.2133 20.3837 50.0379 23.5437 41.0884C26.7037 32.1389 29.0218 34.9529 28.2491 36.4406Z" fill="#4E534A"/>
<path d="M26.3576 34.9068C25.089 35.5988 20.6489 40.6156 22.0328 55.2739C22.8401 63.8313 15.0324 62.3551 14.0405 56.9231C13.3947 53.3709 13.8329 40.8578 20.4989 35.7141C27.1534 30.582 27.6609 34.1918 26.3576 34.9068Z" fill="#4E534A"/>
<path d="M48.2114 56.4544C48.619 55.7484 47.769 54.4945 46.3128 53.6537C44.8566 52.8129 43.3456 52.7037 42.938 53.4098C42.5304 54.1158 43.3804 55.3697 44.8366 56.2105C46.2928 57.0513 47.8037 57.1605 48.2114 56.4544Z" fill="white"/>
<path d="M57.1736 47.5122C58.8551 47.5122 60.2183 46.8513 60.2183 46.036C60.2183 45.2207 58.8551 44.5598 57.1736 44.5598C55.492 44.5598 54.1289 45.2207 54.1289 46.036C54.1289 46.8513 55.492 47.5122 57.1736 47.5122Z" fill="white"/>
<path d="M57.7014 34.3716C59.2686 33.7622 60.2996 32.6522 60.0041 31.8923C59.7086 31.1325 58.1987 31.0105 56.6315 31.6199C55.0643 32.2293 54.0333 33.3393 54.3288 34.0991C54.6243 34.859 56.1342 34.981 57.7014 34.3716Z" fill="white"/>
<path d="M18.292 9.60105C18.6245 8.85661 17.6493 7.69723 16.1139 7.0115C14.5785 6.32577 13.0643 6.37336 12.7318 7.1178C12.3993 7.86224 13.3745 9.02164 14.9099 9.70737C16.4453 10.3931 17.9595 10.3455 18.292 9.60105Z" fill="white"/>
<path d="M32.5586 8.71665C33.2979 8.37292 33.3225 6.85817 32.6136 5.33336C31.9047 3.80855 30.7306 2.85109 29.9913 3.19482C29.252 3.53854 29.2274 5.05329 29.9363 6.5781C30.6453 8.10291 31.8193 9.06037 32.5586 8.71665Z" fill="white"/>
<path d="M43.3802 12.6483C44.1955 12.6483 44.8564 11.2851 44.8564 9.6036C44.8564 7.92207 44.1955 6.55891 43.3802 6.55891C42.5649 6.55891 41.904 7.92207 41.904 9.6036C41.904 11.2851 42.5649 12.6483 43.3802 12.6483Z" fill="white"/>
<path d="M54.1124 18.8342C54.8742 17.3352 54.9025 15.8205 54.1756 15.4512C53.4488 15.0819 52.2421 15.9977 51.4803 17.4968C50.7186 18.9959 50.6903 20.5105 51.4171 20.8799C52.144 21.2492 53.3507 20.3333 54.1124 18.8342Z" fill="white"/>
<path d="M8.36591 21.7965C10.0448 21.7009 11.3681 20.9634 11.3217 20.1495C11.2753 19.3355 9.87676 18.7532 8.19792 18.8489C6.51908 18.9445 5.19572 19.682 5.24211 20.4959C5.2885 21.3099 6.68707 21.8922 8.36591 21.7965Z" fill="white"/>
<path d="M10.8885 44.5425C11.7293 43.0863 11.8385 41.5754 11.1324 41.1677C10.4264 40.7601 9.17246 41.6101 8.3317 43.0663C7.49093 44.5225 7.38171 46.0335 8.08775 46.4411C8.79379 46.8488 10.0477 45.9987 10.8885 44.5425Z" fill="white"/>
<path d="M6.83728 33.4816C8.32459 32.697 9.22191 31.4763 8.8415 30.7552C8.46109 30.0341 6.947 30.0856 5.45968 30.8702C3.97237 31.6548 3.07505 32.8754 3.45546 33.5965C3.83587 34.3176 5.34997 34.2662 6.83728 33.4816Z" fill="white"/>
<path d="M18.2846 58.2263C19.0999 58.2263 19.7608 56.8631 19.7608 55.1816C19.7608 53.5001 19.0999 52.1369 18.2846 52.1369C17.4693 52.1369 16.8084 53.5001 16.8084 55.1816C16.8084 56.8631 17.4693 58.2263 18.2846 58.2263Z" fill="white"/>
<path d="M33.215 62.3324C33.921 61.9248 33.8118 60.4138 32.971 58.9576C32.1303 57.5014 30.8763 56.6514 30.1703 57.059C29.4643 57.4667 29.5735 58.9776 30.4142 60.4338C31.255 61.89 32.5089 62.74 33.215 62.3324Z" fill="white"/>
</svg>
