<svg width="66" height="65" viewBox="0 0 66 65" fill="none" xmlns="http://www.w3.org/2000/svg">
<path d="M53.5438 56.3C53.5558 56.3 53.5679 56.3 53.5799 56.3C53.5679 56.312 53.5558 56.312 53.5438 56.3Z" fill="#4E534A"/>
<path d="M25.1376 43.7431C25.1376 45.3172 25.1376 46.8553 25.1376 48.5015C25.1376 48.5015 25.1376 48.5015 25.1256 48.5015L25.1376 43.7431Z" fill="#4E534A"/>
<path fill-rule="evenodd" clip-rule="evenodd" d="M65.3249 54.3756C65.3347 54.412 65.3446 54.4488 65.3556 54.4855C65.4013 54.63 65.4505 54.7709 65.4996 54.9112C65.6055 55.2143 65.7105 55.5148 65.7762 55.8434C65.9565 56.9969 65.7762 58.2105 65.3076 59.3761V59.4843C65.2741 59.5512 65.2332 59.6106 65.1932 59.6688C65.1613 59.7152 65.1299 59.7608 65.1033 59.8087C65.0897 59.8427 65.0723 59.8652 65.0553 59.887C65.0423 59.9037 65.0296 59.92 65.0192 59.9409C63.7575 62.7647 60.9697 64.8194 57.7734 64.9636C53.9042 65.1319 50.2033 62.1158 49.6145 58.1745C49.5856 57.9654 49.5698 57.7563 49.5539 57.5472C49.5433 57.4078 49.5328 57.2685 49.5184 57.1291C49.2179 56.1918 49.1819 55.0143 49.254 53.5603C49.248 53.4582 49.242 53.353 49.236 53.2479C49.23 53.1427 49.224 53.0376 49.2179 52.9355H41.4315V55.6992C41.4315 55.7352 41.4328 55.7726 41.4342 55.81C41.4368 55.8848 41.4395 55.9595 41.4315 56.0236V56.9849C41.3834 61.3227 37.7906 64.9036 33.4528 64.9636C29.0909 65.0237 25.3659 61.3708 25.3058 56.9609V56.7446C25.0895 55.7352 25.1015 54.5216 25.2818 52.9114H25.1376V52.9234H17.3631C17.3631 53.3498 17.3673 53.7622 17.3714 54.1648C17.3793 54.9424 17.3869 55.6839 17.3631 56.4202C17.2309 60.3615 14.9479 63.3294 11.8357 64.4229C11.5954 64.519 11.343 64.5911 11.0907 64.6632C11.0202 64.6783 10.954 64.6976 10.8884 64.7168C10.7974 64.7433 10.7078 64.7694 10.61 64.7834C10.0212 64.9156 9.40842 64.9877 8.7956 64.9636C5.57527 64.8194 2.76349 62.7286 1.52582 59.8688C1.50179 59.8207 1.47175 59.7787 1.44171 59.7366C1.41167 59.6945 1.38163 59.6525 1.3576 59.6044C1.34325 59.504 1.32463 59.4079 1.30683 59.3161C1.29481 59.254 1.28316 59.1939 1.27347 59.1358C1.05718 58.4629 0.888968 57.766 0.852919 57.033C0.768806 55.2906 1.35759 53.5963 2.36695 52.1905C2.46308 52.0342 2.55921 51.8901 2.66735 51.7459C2.67937 51.7338 2.68838 51.7218 2.69739 51.7098C2.70641 51.6978 2.71542 51.6858 2.72744 51.6738C4.01317 50.0155 5.92373 48.9341 8.41107 48.6096C9.38438 48.4775 10.3938 48.5015 11.3911 48.5376H11.4391C11.9078 48.5135 12.3764 48.4895 12.8691 48.4534V40.6549H12.9532V40.5468C12.4668 40.5468 11.9957 40.5482 11.5343 40.5495C10.639 40.5522 9.78001 40.5547 8.91575 40.5468C4.58993 40.4867 1.00912 36.9059 0.937023 32.5681C0.864926 28.2062 4.51784 24.4692 8.91575 24.4091C9.8134 24.4011 10.7164 24.4038 11.6176 24.4064C12.0676 24.4078 12.517 24.4091 12.9652 24.4091V16.6106C12.3749 16.5682 11.7957 16.5381 11.2253 16.5085C10.0192 16.4459 8.85237 16.3854 7.70212 16.2141C3.77284 15.6253 0.744764 11.9003 0.937023 8.03108C1.1413 3.8014 4.66203 0.292671 8.8797 0.100412C12.7489 -0.0678142 16.4499 2.94825 17.0387 6.88955C17.2267 8.12892 17.2932 9.38046 17.3591 10.6225C17.3859 11.1266 17.4125 11.6291 17.4472 12.1286H25.2337C25.2337 11.6373 25.2323 11.1627 25.2309 10.6986C25.2283 9.80084 25.2258 8.9426 25.2337 8.07914C25.2818 3.74131 28.8746 0.160493 33.2124 0.100412C37.5743 0.0403312 41.2993 3.69325 41.3594 8.10318C41.3674 9.00884 41.3647 9.90917 41.362 10.8077C41.3607 11.2563 41.3594 11.7045 41.3594 12.1526H41.5156V12.1406H49.29C49.29 11.7143 49.2858 11.3019 49.2817 10.8992C49.2738 10.1216 49.2663 9.38015 49.29 8.6439C49.4222 4.7026 51.7053 1.73462 54.8175 0.641154C55.0578 0.545024 55.3101 0.472913 55.5625 0.400816C55.6329 0.385716 55.6992 0.3664 55.7648 0.347284C55.8557 0.320766 55.9454 0.294631 56.0431 0.280665C56.6439 0.148488 57.2568 0.0763797 57.8696 0.100412C61.1019 0.244606 63.9017 2.33542 65.1394 5.19527C65.1634 5.24333 65.1934 5.28539 65.2235 5.32745C65.2535 5.3695 65.2835 5.41156 65.3076 5.45963C65.3219 5.56003 65.3405 5.65615 65.3583 5.74799C65.3704 5.81003 65.382 5.87012 65.3917 5.92826C65.608 6.60116 65.7762 7.2981 65.8123 8.03108C66.0045 11.9003 62.9764 15.6253 59.0472 16.2141H58.9991C57.8095 16.4784 56.5358 16.5505 55.214 16.5265L55.2128 16.5266C54.7446 16.5506 54.2763 16.5746 53.7841 16.6106V24.4091H54.7334C55.164 24.4128 55.5789 24.4029 55.9818 24.3934C56.8941 24.3717 57.745 24.3515 58.5785 24.4932C62.64 24.9378 65.8964 28.4585 65.8243 32.5681C65.8003 33.4693 65.608 34.3345 65.3076 35.1516V35.1636C65.2955 35.1636 65.2956 35.1756 65.2956 35.1756C64.2141 38.0955 61.5105 40.2464 58.3022 40.4867C57.0405 40.667 55.6946 40.667 54.3128 40.5468H53.7841V48.4654C53.9424 48.4726 54.0878 48.4798 54.2332 48.487C54.3305 48.4919 54.4279 48.4967 54.5291 48.5015C55.7788 48.4294 56.9924 48.4414 58.1219 48.5976C58.158 48.6036 58.194 48.6036 58.2301 48.6036C58.2661 48.6036 58.3022 48.6036 58.3382 48.6096C58.4165 48.6227 58.4878 48.6393 58.5577 48.6556C58.6165 48.6693 58.6744 48.6828 58.7347 48.6938C58.8669 48.7178 58.9991 48.7418 59.1313 48.7779C62.2194 49.4267 64.2742 51.3253 65.2475 54.1371C65.2809 54.2121 65.3026 54.293 65.3249 54.3756ZM33.2965 4.37818C31.2778 4.36616 29.8119 5.47164 29.4634 7.56245C29.2983 8.57745 29.2806 9.62079 29.2624 10.6964C29.2541 11.187 29.2457 11.6843 29.2231 12.1887H37.3099C37.3099 11.8516 37.3107 11.5273 37.3115 11.2125C37.3137 10.3038 37.3158 9.47384 37.2979 8.6439C37.2859 8.29546 37.2138 7.94703 37.1417 7.59859L37.1417 7.5985C36.6731 5.50769 35.3153 4.3902 33.2965 4.37818ZM29.4153 16.5626V24.301H37.1898V16.5626H29.4153ZM37.1898 36.3532V28.5427H29.3793V36.3532H37.1898ZM25.0895 16.5505H17.4352V24.2769H25.0895V16.5505ZM25.1015 28.5787H17.3871V36.4012H25.1015V28.5787ZM5.20276 8.10318C5.14268 10.2901 6.63269 12.0805 8.75955 12.2367C9.66223 12.3012 10.5757 12.2846 11.5616 12.2667C12.0457 12.2579 12.5471 12.2487 13.0733 12.2487C13.0733 11.732 13.0824 11.2385 13.0912 10.7607C13.1092 9.78312 13.1259 8.87106 13.0613 7.95899C12.9051 5.83213 11.1147 4.3181 8.9518 4.37818C6.89703 4.42624 5.26284 6.04841 5.20276 8.10318ZM5.20276 32.4119C5.17873 34.3344 6.17608 35.8485 8.02657 36.221C9.09755 36.4302 10.2093 36.4762 11.3984 36.5255C11.9169 36.5469 12.4502 36.569 13.0013 36.6055V28.3624C12.4562 28.4 11.9182 28.4211 11.3873 28.442C10.221 28.4878 9.08874 28.5323 7.99052 28.7469C6.21213 29.0954 5.22679 30.5974 5.20276 32.4119ZM57.8817 12.3809C60.0085 12.2247 61.4985 10.4343 61.4384 8.24737C61.3784 6.19261 59.7442 4.57042 57.6894 4.52236C55.5145 4.46228 53.7361 5.97631 53.5799 8.10317C53.5153 9.01524 53.5321 9.92732 53.55 10.905V10.905L53.55 10.9054C53.5588 11.3831 53.5679 11.8764 53.5679 12.3929C54.0941 12.3929 54.5942 12.4021 55.0769 12.4109L55.077 12.4109C56.0602 12.4288 56.9709 12.4454 57.8817 12.3809ZM41.5397 24.4211H49.194V16.6947H41.5397V24.4211ZM41.5397 36.5454H49.254V28.7229H41.5397V36.5454ZM61.4384 32.556C61.4625 34.4786 60.4651 35.9927 58.6146 36.3652C57.5368 36.5741 56.4241 36.6203 55.2402 36.6694L55.2399 36.6694C54.7212 36.691 54.189 36.7131 53.64 36.7497V28.5066C54.185 28.5442 54.7229 28.5653 55.2539 28.5862H55.2539C56.4202 28.632 57.5525 28.6764 58.6507 28.8911C60.4291 29.2396 61.4144 30.7416 61.4384 32.556ZM49.206 40.7992V48.5255H41.5517V40.7992H49.206ZM55.0123 52.8109L55.0127 52.8109H55.0128H55.0129H55.0129H55.013H55.013H55.0131H55.0132C56.0209 52.7934 56.9513 52.7772 57.8816 52.8513C60.0085 53.0075 61.4985 54.7979 61.4384 56.9849C61.4083 58.0137 60.9836 58.934 60.3091 59.6027C59.6413 60.2713 58.725 60.692 57.7014 60.7219C55.5264 60.794 53.736 59.292 53.5798 57.1651C53.5179 56.2985 53.5308 55.422 53.5445 54.4809V54.4808C53.5522 53.9604 53.5601 53.4203 53.5558 52.8513L53.5678 52.8513L53.5678 52.8273C54.0706 52.8273 54.5496 52.819 55.0123 52.8109ZM37.1778 57.5136C36.8293 59.6044 35.3634 60.7099 33.3446 60.6979C31.3259 60.6858 29.9681 59.5683 29.4995 57.4775L29.4995 57.4774C29.4274 57.1289 29.3553 56.7805 29.3433 56.4321C29.3254 55.6024 29.3275 54.7726 29.3297 53.8642V53.8641V53.864V53.8639V53.8638V53.8637C29.3305 53.5488 29.3313 53.2244 29.3313 52.8874H37.4181C37.3955 53.3917 37.3871 53.889 37.3788 54.3796V54.3798C37.3605 55.4553 37.3428 56.4986 37.1778 57.5136ZM37.2259 48.5135V40.7751H29.4514V48.5135H37.2259ZM8.75959 52.6951C6.63273 52.8513 5.14272 54.6418 5.2028 56.8287C5.26288 58.8835 6.89708 60.5057 8.95184 60.5537C11.1268 60.6138 12.9052 59.0998 13.0614 56.9729C13.126 56.0608 13.1092 55.1488 13.0912 54.1711V54.1711C13.0825 53.6933 13.0734 53.1999 13.0734 52.6831C12.5473 52.6831 12.046 52.674 11.5622 52.6652L11.5617 52.6652C10.5758 52.6473 9.66227 52.6307 8.75959 52.6951ZM25.1376 48.5135V40.7751H17.3632V48.5135H25.1376Z" fill="#4E534A"/>
</svg>
