<svg width="55" height="65" viewBox="0 0 55 65" fill="none" xmlns="http://www.w3.org/2000/svg">
<path d="M54.1564 4.61104C50.2196 8.54788 46.2827 12.4847 42.3459 16.4216C42.2857 16.4818 42.2134 16.554 42.1292 16.6383C41.9004 16.3614 41.6957 16.1206 41.5031 15.8557C41.0938 15.2778 40.9252 14.5916 40.8289 13.9054C40.6604 12.7014 40.4918 11.4975 40.3714 10.2936C40.239 9.05353 40.1427 7.82552 40.2149 6.57344C40.2992 5.22504 40.8169 4.09335 41.9125 3.28672C42.8275 2.60048 43.7906 1.97444 44.7417 1.32432C45.0667 1.09557 45.3918 0.878867 45.7048 0.65012C45.8252 0.565846 45.9215 0.433414 45.8613 0.276903C45.8011 0.108353 45.6567 0 45.4881 0C45.3196 0 45.139 2.24249e-09 44.9704 0.0361178C43.4655 0.433414 42.1051 1.11965 40.9012 2.07075C39.9019 2.85331 39.1073 3.84053 38.5294 4.98426C38.4933 5.04445 38.4331 5.11669 38.3609 5.14077C37.7228 5.38155 37.1569 5.73069 36.6152 6.14003C35.3149 7.12725 34.2555 8.33117 33.4248 9.73977C33.3164 9.93239 33.2442 10.1611 33.0154 10.2936C31.7032 11.028 30.5113 11.9189 29.5602 13.0987C28.9341 13.8692 28.3803 14.6879 27.9228 15.5547C27.8626 15.6751 27.7543 15.7714 27.6339 15.8437C27.0199 16.2289 26.3818 16.5901 25.7798 16.9994C25.0093 17.5292 24.3592 18.1793 23.7572 18.9016C23.1673 19.612 22.6496 20.3584 22.2283 21.165C22.0838 21.4419 21.8912 21.6346 21.6143 21.779C20.7354 22.2365 19.9047 22.7663 19.1703 23.4284C17.9784 24.4999 17.0273 25.764 16.2929 27.1847C16.2447 27.281 16.1605 27.3653 16.0642 27.4254C15.9317 27.5218 15.7872 27.582 15.6428 27.6542C14.8 28.1237 13.9934 28.6414 13.2831 29.2915C12.4524 30.05 11.7541 30.9048 11.1521 31.8559C10.3094 33.1682 9.64722 34.5768 9.35828 36.1058C9.03322 37.7913 8.81651 39.5129 8.58777 41.2104C8.3831 42.7996 8.21454 44.3767 7.82929 45.9298C7.33568 47.9765 6.64944 49.9509 5.81873 51.8772C5.63814 52.2986 5.49367 52.7561 5.08433 53.045C5.06026 53.0691 5.07229 53.2136 5.12045 53.2617C5.2288 53.3941 5.36124 53.5145 5.48163 53.6349C4.02488 55.0917 2.56814 56.5484 1.11139 58.0052C1.09935 57.945 1.08731 57.9209 1.08731 57.8968C0.786325 55.0676 0.184352 60.4732 0.268627 60.389C4.20547 56.4521 8.14232 52.5153 12.0792 48.5784C12.1394 48.5182 12.2116 48.446 12.2959 48.3617C12.5246 48.6386 12.7293 48.8794 12.9219 49.1443C13.3312 49.7222 13.4998 50.4084 13.5961 51.0946C13.7647 52.2986 13.9332 53.5025 14.0536 54.7064C14.186 55.9465 14.2823 57.1745 14.2101 58.4266C14.1258 59.775 13.6081 60.9066 12.5246 61.7133C11.6096 62.3995 10.6344 63.0256 9.69538 63.6757C9.37032 63.9044 9.04525 64.1211 8.73223 64.3499C8.61184 64.4342 8.51554 64.5666 8.57573 64.7231C8.63593 64.8916 8.7804 65 8.94895 65C9.1175 65 9.29808 65 9.46663 64.9639C10.9715 64.5666 12.332 63.8804 13.5359 62.9292C14.5352 62.1467 15.3298 61.1595 15.9076 60.0157C15.9438 59.9555 16.004 59.8833 16.0762 59.8592C16.7143 59.6185 17.2801 59.2693 17.8219 58.86C19.1221 57.8728 20.1816 56.6688 21.0123 55.2602C21.1207 55.0676 21.1929 54.8389 21.4216 54.7064C22.7339 53.972 23.9258 53.0811 24.8769 51.9013C25.5029 51.1308 26.0567 50.3121 26.5142 49.4453C26.5744 49.3249 26.6828 49.2286 26.8032 49.1563C27.4172 48.7711 28.0553 48.4099 28.6452 48.0006C29.4157 47.4708 30.0658 46.8207 30.6678 46.0984C31.2577 45.388 31.7754 44.6416 32.1968 43.835C32.3412 43.5581 32.5339 43.3654 32.8108 43.221C33.6896 42.7635 34.5204 42.2337 35.2548 41.5716C36.4466 40.5001 37.3977 39.236 38.1321 37.8153C38.1803 37.719 38.2646 37.6347 38.3609 37.5746C38.4933 37.4782 38.6378 37.418 38.7822 37.3458C39.625 36.8763 40.4316 36.3586 41.142 35.7085C41.9727 34.95 42.6709 34.0952 43.2729 33.1441C44.1156 31.8318 44.7778 30.4232 45.0667 28.8942C45.3918 27.2087 45.6085 25.4871 45.8373 23.7896C46.0419 22.2004 46.2105 20.6233 46.5957 19.0702C47.0894 17.0235 47.7756 15.0491 48.6063 13.1228C48.7869 12.7014 48.9314 12.2439 49.3407 11.955C49.3648 11.9309 49.3527 11.7864 49.3046 11.7383C49.1962 11.6059 49.0638 11.4855 48.9434 11.3651C50.4001 9.90832 51.8569 8.45157 53.3137 6.99481C53.3257 7.05501 53.3377 7.07909 53.3377 7.10317C53.6387 9.92036 54.2286 4.52676 54.1564 4.61104ZM35.1946 10.0648C35.7604 8.89702 36.5911 7.93388 37.6024 7.13929C37.6144 7.12725 37.6265 7.12725 37.6626 7.11521C37.6626 7.1754 37.6626 7.22356 37.6506 7.27172C37.3977 8.55992 37.3255 9.8722 37.4098 11.1845C37.5542 13.7007 37.2171 16.1567 36.4707 18.5525C36.2058 19.3953 35.8928 20.226 35.6039 21.0687C35.5798 21.1289 35.5557 21.1771 35.5317 21.2252C35.5076 21.2252 35.4955 21.2252 35.4715 21.2373C35.4113 21.0928 35.3511 20.9483 35.3029 20.7918C34.9538 19.7083 34.7973 18.5766 34.7009 17.4449C34.5805 15.9881 34.5324 14.5314 34.4481 13.0626C34.3879 11.9911 34.7371 11.0039 35.1946 10.0648ZM28.9101 19.4555C29.0304 17.7338 29.4638 16.0965 30.4029 14.6277C30.9086 13.8211 31.5226 13.0987 32.2209 12.4486C32.2329 12.4366 32.269 12.4245 32.2931 12.4125C32.3051 12.4486 32.3172 12.4606 32.3172 12.4847C32.0282 13.8572 31.9921 15.2658 31.8838 16.6623C31.6791 19.311 31.3901 21.9596 30.6919 24.536C30.439 25.451 30.1019 26.3299 29.8009 27.2328C29.7769 27.3171 29.7287 27.3893 29.6806 27.4856C29.4759 27.293 29.3796 27.0643 29.3435 26.8355C29.2231 26.1493 29.1267 25.463 29.0304 24.7768C28.8137 23.007 28.7897 21.2252 28.9101 19.4555ZM23.2034 24.4758C23.372 23.0311 23.8174 21.6586 24.612 20.4186C25.2381 19.4314 25.9965 18.5525 26.9115 17.8302C26.9236 17.8181 26.9477 17.8181 26.9958 17.8061C26.9356 18.0228 26.8634 18.2154 26.8273 18.4201C26.5985 19.7685 26.3698 21.1169 26.1651 22.4653C25.9002 24.2471 25.7919 26.053 25.4066 27.8107C25.0214 29.5684 24.4916 31.2901 23.8536 32.9756C23.8415 33.0117 23.8174 33.0478 23.7693 33.1441C23.685 32.9394 23.5887 32.795 23.5646 32.6385C23.4563 31.9883 23.3479 31.3382 23.2636 30.6761C23.0108 28.6173 22.9506 26.5466 23.2034 24.4758ZM17.2921 31.0733C17.3764 29.5203 17.7496 28.0395 18.5202 26.679C19.1944 25.4751 20.0732 24.4518 21.1688 23.5729C21.1808 23.621 21.1808 23.6451 21.1808 23.6692C20.7595 25.0658 20.615 26.5105 20.4103 27.9431C20.1936 29.5564 20.013 31.1817 19.7602 32.7829C19.4713 34.5768 18.9415 36.3104 18.3275 38.032C18.2192 38.333 18.0988 38.634 17.9784 38.947C17.9543 38.947 17.9182 38.947 17.8941 38.9591C17.8098 38.7062 17.6895 38.4655 17.6654 38.2126C17.5209 36.9967 17.3403 35.7807 17.2801 34.5527C17.2199 33.3849 17.244 32.2291 17.2921 31.0733ZM11.5615 36.2382C11.718 34.9139 12.0671 33.6498 12.7293 32.4819C13.3914 31.3021 14.2342 30.2908 15.2936 29.436C15.3057 29.424 15.3298 29.424 15.3779 29.3999C15.3177 29.6166 15.2455 29.8092 15.2094 30.0139C14.9806 31.3743 14.7519 32.7227 14.5472 34.0832C14.2823 35.865 14.174 37.6709 13.7887 39.4406C13.4035 41.1863 12.8858 42.8959 12.2477 44.5694C12.2357 44.6175 12.1996 44.6536 12.1875 44.7018C12.1634 44.7018 12.1394 44.7138 12.1153 44.7138C12.043 44.4731 11.9226 44.2323 11.8865 43.9915C11.7421 42.7755 11.5735 41.5716 11.4892 40.3556C11.405 38.9831 11.3929 37.6107 11.5615 36.2382ZM19.2425 54.9472C18.6767 56.115 17.846 57.0782 16.8347 57.8728C16.8226 57.8848 16.8106 57.8848 16.7745 57.8968C16.7745 57.8366 16.7745 57.7885 16.7865 57.7403C17.0393 56.4521 17.1116 55.1398 17.0273 53.8276C16.8828 51.3114 17.2199 48.8553 17.9664 46.4595C18.2312 45.6168 18.5443 44.7861 18.8332 43.9433C18.8573 43.8831 18.8813 43.835 18.9054 43.7868C18.9295 43.7868 18.9415 43.7868 18.9656 43.7748C19.0258 43.9192 19.086 44.0637 19.1342 44.2202C19.4833 45.3038 19.6398 46.4355 19.7361 47.5671C19.8565 49.0239 19.9047 50.4806 19.989 51.9494C20.0371 53.0209 19.7 54.0082 19.2425 54.9472ZM25.527 45.5566C25.4066 47.2782 24.9732 48.9155 24.0341 50.3843C23.5285 51.191 22.9145 51.9133 22.2162 52.5634C22.2042 52.5755 22.1681 52.5875 22.144 52.5996C22.132 52.5634 22.1199 52.5514 22.1199 52.5273C22.4089 51.1548 22.445 49.7463 22.5533 48.3497C22.758 45.7011 23.0469 43.0524 23.7452 40.476C23.986 39.561 24.3351 38.6822 24.6361 37.7792C24.6602 37.6949 24.7084 37.6227 24.7565 37.5264C24.9612 37.719 25.0575 37.9478 25.0936 38.1765C25.214 38.8628 25.3103 39.549 25.4066 40.2352C25.6233 42.005 25.6474 43.7748 25.527 45.5566ZM31.2336 40.5362C31.0651 41.9809 30.6196 43.3534 29.8371 44.5934C29.211 45.5807 28.4526 46.4595 27.5376 47.1819C27.5255 47.1939 27.5015 47.1939 27.4533 47.206C27.5135 46.9893 27.5857 46.7966 27.6218 46.592C27.8506 45.2436 28.0793 43.8952 28.284 42.5468C28.5489 40.765 28.6572 38.9591 29.0425 37.2013C29.4277 35.4436 29.9575 33.722 30.5955 32.0365C30.6076 32.0004 30.6317 31.9643 30.6798 31.8679C30.7641 32.0726 30.8604 32.2171 30.8845 32.3736C30.9928 33.0237 31.1012 33.6738 31.1855 34.336C31.4142 36.3947 31.4744 38.4655 31.2336 40.5362ZM37.1329 33.9267C37.0486 35.4797 36.6754 36.9605 35.9049 38.321C35.2307 39.5249 34.3518 40.5483 33.2562 41.4271C33.2442 41.379 33.2442 41.3549 33.2442 41.3308C33.6656 39.9342 33.81 38.4895 34.0147 37.0569C34.2314 35.4436 34.412 33.8183 34.6648 32.2171C34.9538 30.4232 35.4835 28.6896 36.0975 26.968C36.2059 26.667 36.3262 26.366 36.4346 26.053C36.4587 26.053 36.4948 26.053 36.5189 26.0409C36.6031 26.2938 36.7235 26.5345 36.7476 26.7874C36.8921 28.0033 37.0727 29.2193 37.1329 30.4473C37.2171 31.6151 37.1931 32.7829 37.1329 33.9267ZM42.8636 28.7618C42.7071 30.0861 42.3459 31.3503 41.6958 32.5181C41.0336 33.6979 40.1908 34.7092 39.1314 35.564C39.1193 35.576 39.0953 35.576 39.0471 35.6001C39.1073 35.3834 39.1795 35.1908 39.2157 34.9861C39.4444 33.6257 39.6732 32.2773 39.8778 30.9168C40.1427 29.135 40.251 27.3291 40.6363 25.5594C41.0215 23.8137 41.5393 22.1041 42.1773 20.4306C42.1894 20.3825 42.2255 20.3464 42.2375 20.2982C42.2616 20.2982 42.2857 20.2862 42.3098 20.2862C42.382 20.527 42.5024 20.7677 42.5385 21.0085C42.683 22.2245 42.8515 23.4284 42.9358 24.6444C43.0321 26.0289 43.0321 27.4014 42.8636 28.7618Z" fill="#4E534A"/>
</svg>
