<svg width="55" height="55" viewBox="0 0 55 55" fill="none" xmlns="http://www.w3.org/2000/svg">
<path d="M54.0398 0.470001C47.3898 8.31 40.7298 16.16 34.0898 24.01C32.6298 25.73 30.8798 26.81 29.0398 25C27.2298 23.17 28.3098 21.41 30.0298 19.95C37.8798 13.3 45.7198 6.65 53.5698 0" fill="#5F250F"/>
<path d="M0.47 54.03C8.31 47.38 16.16 40.7201 24.01 34.0801C25.73 32.6201 26.81 30.87 25 29.03C23.17 27.22 21.41 28.3001 19.95 30.0201C13.3 37.8701 6.65 45.71 0 53.56" fill="#5F250F"/>
<path d="M24.3198 20.4398C16.7998 13.7298 8.31977 6.53977 0.639766 0.00976562C0.539766 0.129766 0.449766 0.239777 0.349766 0.349777C0.239766 0.449777 0.119766 0.539771 0.00976562 0.639771C6.53977 8.31977 13.7198 16.7998 20.4398 24.3198C21.2298 25.1998 23.4498 24.7998 25.0098 24.9998C24.8098 23.4498 25.1998 21.2298 24.3198 20.4398Z" fill="#5F250F"/>
<path d="M29.7095 33.5898C37.2295 40.2998 45.7095 47.4898 53.3895 54.0198C53.4895 53.8998 53.5795 53.7898 53.6795 53.6798C53.7895 53.5798 53.9095 53.4898 54.0195 53.3898C47.4895 45.7098 40.3095 37.2298 33.5895 29.7098C32.7995 28.8298 30.5795 29.2298 29.0195 29.0298C29.2295 30.5798 28.8295 32.8098 29.7095 33.5898Z" fill="#5F250F"/>
</svg>
