<svg width="12" height="14" viewBox="0 0 12 14" fill="none" xmlns="http://www.w3.org/2000/svg">
<g clip-path="url(#clip0_1443_4212)">
<line x1="2" y1="4.81946" x2="2" y2="9.66321" stroke="white" stroke-width="4"/>
<path fill-rule="evenodd" clip-rule="evenodd" d="M9.25099 2.02454C8.75619 1.99282 8.40936 2.28974 8.34451 2.69747L8.34151 2.71527C8.29408 2.9823 8.27443 3.2694 8.26259 3.62594C8.26151 3.65824 8.2605 3.69152 8.25953 3.72569C8.60485 3.70456 8.9169 3.68155 9.267 3.6293C9.68231 3.54857 9.9874 3.10808 9.95114 2.75477C9.91508 2.43386 9.8208 2.28063 9.74865 2.2067C9.68333 2.13977 9.55148 2.04996 9.25099 2.02454ZM8.21914 5.73262C8.67273 5.70399 9.14337 5.67077 9.58179 5.60445C9.59059 5.60312 9.59938 5.60167 9.60815 5.60011C11.0356 5.34502 12.0915 3.96906 11.9397 2.54134L11.9392 2.53669C11.8688 1.90269 11.6452 1.28652 11.18 0.809863C10.7083 0.326466 10.0847 0.0855286 9.40632 0.0305593L9.39444 0.0296679C7.95394 -0.0697891 6.61613 0.862588 6.37084 2.37392C6.29919 2.78102 6.27632 3.17917 6.26369 3.55955C6.26092 3.64301 6.25864 3.7242 6.25658 3.80428L0.994858 3.83337C0.442581 3.8362 -0.00283263 4.28621 -4.06029e-07 4.83848C0.00283186 5.39076 0.452837 5.83617 1.00511 5.83334L6.21875 5.8045L6.20692 8.11105C6.20409 8.66333 6.6495 9.11333 7.20178 9.11616C7.75406 9.119 8.20406 8.67358 8.20689 8.1213L8.21914 5.73262Z" fill="#1B643E"/>
<path fill-rule="evenodd" clip-rule="evenodd" d="M9.26638 11.9922C8.77158 12.024 8.42475 11.727 8.3599 11.3193L8.35691 11.3015C8.30947 11.0345 8.28982 10.7474 8.27798 10.3908C8.27691 10.3585 8.2759 10.3252 8.27492 10.2911C8.62024 10.3122 8.93229 10.3352 9.28239 10.3875C9.6977 10.4682 10.0028 10.9087 9.96654 11.262C9.93047 11.5829 9.83619 11.7361 9.76405 11.8101C9.69873 11.877 9.56688 11.9668 9.26638 11.9922ZM8.23454 8.28415C8.68812 8.31278 9.15876 8.346 9.59718 8.41231C9.60599 8.41365 9.61478 8.4151 9.62355 8.41666C11.051 8.67174 12.1069 10.0477 11.9551 11.4754L11.9546 11.4801C11.8842 12.1141 11.6606 12.7303 11.1954 13.2069C10.7237 13.6903 10.1001 13.9312 9.42171 13.9862L9.40983 13.9871C7.96933 14.0866 6.63153 13.1542 6.38624 11.6429C6.31458 11.2357 6.29171 10.8376 6.27908 10.4572C6.27631 10.3738 6.27404 10.2926 6.27197 10.2125L0.995103 10.1834C0.442826 10.1806 -0.00258768 9.73058 0.000244543 9.1783C0.00307681 8.62602 0.453082 8.18061 1.00536 8.18344L6.23414 8.21227L6.22232 5.90572C6.21948 5.35344 6.6649 4.90344 7.21718 4.90061C7.76945 4.89777 8.21946 5.34319 8.22229 5.89546L8.23454 8.28415Z" fill="#1B643E"/>
<rect y="8.18665" width="0.90625" height="2" fill="#1B643E"/>
<rect y="3.81946" width="4.25" height="2" fill="#1B643E"/>
</g>
<defs>
<clipPath id="clip0_1443_4212">
<rect width="12" height="14" fill="white"/>
</clipPath>
</defs>
</svg>
