<svg width="54" height="23" viewBox="0 0 54 23" fill="none" xmlns="http://www.w3.org/2000/svg">
<path d="M10.95 14.06C12.71 10.09 23.74 6.88 23.74 6.88L23.1 4.46C12.58 7.3 8.86 10.38 6.52 13.02C5.15 12.57 4.15 12.07 3.27 11.38C11.5 3.94 21.95 2.36 21.95 2.36L21.12 0C8.02 2.04 3.02 6.65 1.63 8.1C0.670005 9.11 0 10.34 0 11.46C0 17.45 9.46 21.97 19.81 22.24L23.47 14.64C23.47 14.64 21.71 14.74 20.8 14.74C17.71 14.75 14.16 14.58 10.95 14.06Z" fill="#5F250F"/>
<path d="M43.0498 14.06C41.2898 10.09 30.2598 6.88 30.2598 6.88L30.8998 4.46C41.4198 7.3 45.1398 10.38 47.4798 13.02C48.8498 12.57 49.8498 12.07 50.7298 11.38C42.4998 3.94 32.0498 2.36 32.0498 2.36L32.8798 0C45.9798 2.04 50.9798 6.65 52.3698 8.1C53.3298 9.11 53.9998 10.34 53.9998 11.46C53.9998 17.45 44.5398 21.97 34.1898 22.24L30.5298 14.64C30.5298 14.64 32.2898 14.74 33.1998 14.74C36.2898 14.75 39.8498 14.58 43.0498 14.06Z" fill="#5F250F"/>
</svg>
