<svg width="54" height="52" viewBox="0 0 54 52" fill="none" xmlns="http://www.w3.org/2000/svg">
<path d="M36.0965 1.50125C34.9165 1.55125 33.7565 1.71125 32.6365 1.99125C29.9265 2.67125 27.4465 3.84125 25.3265 5.37125C25.0065 5.60125 24.7165 5.85125 24.4265 6.10125C24.4065 6.10125 24.3965 6.10125 24.3865 6.11125C24.6065 5.89125 24.8065 5.70125 25.0065 5.51125C25.8465 4.69125 26.6865 3.89125 27.3065 3.05125C27.5965 2.65125 27.8365 2.27125 27.9465 1.88125C28.1065 1.37125 27.9465 0.961254 27.6365 0.581254C27.4065 0.301254 27.0065 0.131249 26.4665 0.0612492C25.8965 -0.00875076 25.2765 -0.0187495 24.6365 0.0312505C24.2865 0.0612505 23.9365 0.101248 23.5765 0.161248C22.7265 0.321248 21.8765 0.65125 21.0565 1.10125C19.8665 1.75125 18.7365 2.49125 17.6965 3.34125C15.1965 5.40125 13.1165 7.89125 11.5865 10.6312C11.1665 11.3912 10.7865 12.1613 10.4865 12.9413C10.4565 13.0213 10.4365 13.0913 10.3965 13.1913C10.4565 13.1513 10.4765 13.1312 10.5065 13.1012C11.7665 12.0512 13.0565 11.1413 14.3765 10.3613C15.9265 9.45125 17.4965 8.71125 19.0765 8.14125C20.6865 7.56125 22.3065 7.15125 23.8865 6.90125C25.8865 5.41125 39.0865 8.03125 38.9065 9.25125C39.1565 9.39125 39.4065 9.53125 39.6465 9.67125C40.7765 10.3412 41.8065 11.1113 42.7365 11.9413C43.1865 12.3513 43.6265 12.7713 44.0365 13.2113C44.6365 13.8613 45.1765 14.5312 45.6665 15.2312C45.8465 15.4912 46.0165 15.7612 46.1865 16.0212C46.2365 16.1012 46.2865 16.1813 46.3365 16.2613C46.6565 16.1213 46.9665 15.9912 47.2865 15.8712C47.2465 15.8012 47.2065 15.7312 47.1665 15.6712C46.6565 14.8812 46.0865 14.1212 45.4565 13.3812C45.0465 12.9112 44.6165 12.4613 44.1665 12.0312C43.5765 11.4613 42.9365 10.9312 42.2665 10.4212C41.3965 9.78125 40.4665 9.19125 39.4765 8.67125C39.3165 8.59125 38.3065 8.01125 36.8165 7.42125C37.0365 7.33125 37.2465 7.26125 37.4465 7.18125C38.3965 6.81125 39.3465 6.44125 40.1565 5.95125C40.5365 5.72125 40.8765 5.47125 41.1265 5.16125C41.4565 4.77125 41.5065 4.33125 41.4165 3.85125C41.3465 3.50125 41.1065 3.18125 40.7165 2.88125C40.3065 2.57125 39.8165 2.31125 39.2965 2.07125C39.0165 1.95125 38.7265 1.83125 38.4165 1.74125C37.7065 1.54125 36.9065 1.46125 36.0965 1.50125ZM13.7665 9.93125C14.7865 8.34125 16.1065 6.89125 17.6165 5.65125C18.5465 4.89125 19.5465 4.23125 20.6165 3.73125C21.5465 3.29125 22.4765 3.01125 23.3465 2.96125C23.5965 2.94125 23.8465 2.94125 24.0565 2.97125C24.8765 3.08125 25.1465 3.51125 24.9665 4.15125C24.8765 4.47125 24.6565 4.79125 24.3965 5.12125C24.0865 5.50125 23.7265 5.86125 23.3165 6.22125C23.2265 6.30125 23.1465 6.34125 23.0365 6.36125C22.1265 6.54125 21.2165 6.78125 20.2965 7.07125C19.0465 7.47125 17.7865 7.96125 16.5365 8.57125C15.6365 9.00125 14.7565 9.49125 13.8765 10.0413C13.7965 10.0913 13.7065 10.1413 13.5865 10.2213C13.6665 10.1013 13.7165 10.0213 13.7665 9.93125ZM37.1565 4.18125C37.3565 4.28125 37.5465 4.38125 37.7065 4.50125C38.3065 4.96125 38.3365 5.46125 37.9565 5.96125C37.7665 6.21125 37.4765 6.41125 37.1465 6.58125C36.7665 6.78125 36.3565 6.94125 35.9265 7.09125C32.8765 5.91125 28.3065 5.69125 27.4265 5.81125C27.3965 5.81125 27.3665 5.81125 27.3265 5.81125C28.6465 4.98125 30.1465 4.36125 31.7365 3.98125C32.7265 3.74125 33.7465 3.62125 34.7565 3.65125C35.6365 3.68125 36.4665 3.85125 37.1565 4.18125Z" fill="#5F250F"/>
<path d="M46.7662 47.5111C47.2562 46.4411 47.6462 45.3311 47.8962 44.2111C48.5162 41.4911 48.6062 38.7411 48.1962 36.1711C48.1362 35.7811 48.0462 35.4111 47.9562 35.0411C47.9662 35.0211 47.9662 35.0111 47.9662 35.0011C48.0562 35.2911 48.1362 35.5611 48.2162 35.8211C48.5662 36.9511 48.8962 38.0511 49.3662 38.9911C49.5862 39.4311 49.8262 39.811 50.1162 40.091C50.4962 40.461 50.9362 40.5111 51.4162 40.4011C51.7762 40.3211 52.1062 40.0411 52.4162 39.6011C52.7362 39.1311 53.0262 38.581 53.2762 37.981C53.4062 37.661 53.5362 37.331 53.6362 36.981C53.8762 36.151 53.9662 35.2411 53.9462 34.3111C53.9062 32.9611 53.7562 31.611 53.4662 30.301C52.7662 27.131 51.4862 24.161 49.7362 21.551C49.2562 20.831 48.7362 20.141 48.1762 19.521C48.1262 19.461 48.0662 19.4011 47.9962 19.3311C48.0062 19.4011 48.0162 19.4311 48.0262 19.4711C48.3962 21.0711 48.6162 22.631 48.7062 24.161C48.8162 25.951 48.7562 27.6911 48.5462 29.3611C48.3262 31.0611 47.9662 32.6811 47.4662 34.2111C47.8862 36.6711 39.5662 47.2511 38.5562 46.5311C38.3262 46.6911 38.0862 46.8511 37.8462 47.0011C36.7362 47.7011 35.5862 48.2711 34.4262 48.7211C33.8562 48.9411 33.2762 49.131 32.7062 49.301C31.8562 49.541 31.0062 49.7211 30.1662 49.8311C29.8562 49.8711 29.5362 49.9111 29.2262 49.9311C29.1362 49.9411 29.0362 49.9511 28.9462 49.9611C28.9262 50.3111 28.8962 50.6411 28.8662 50.9911C28.9462 50.9811 29.0262 50.9811 29.0962 50.9711C30.0362 50.8811 30.9662 50.711 31.9062 50.481C32.5062 50.331 33.1062 50.1511 33.6962 49.9411C34.4662 49.6711 35.2362 49.3511 35.9962 48.9711C36.9662 48.4911 37.9062 47.9211 38.8262 47.2811C38.9762 47.1811 39.9462 46.5411 41.1462 45.4711C41.1262 45.7011 41.0962 45.9311 41.0762 46.1411C40.9762 47.1611 40.8662 48.171 40.9362 49.121C40.9662 49.571 41.0462 49.981 41.1962 50.341C41.3962 50.811 41.7662 51.0611 42.2262 51.1911C42.5762 51.2911 42.9662 51.2211 43.4062 51.0011C43.8662 50.7711 44.3262 50.4611 44.7762 50.1011C45.0162 49.9111 45.2462 49.7011 45.4762 49.4711C46.0062 48.9211 46.4362 48.2411 46.7662 47.5111ZM49.3762 23.7811C50.3362 25.4211 51.0262 27.241 51.4462 29.161C51.6962 30.331 51.8362 31.521 51.7962 32.701C51.7662 33.731 51.5862 34.681 51.2362 35.481C51.1362 35.711 51.0262 35.9311 50.8962 36.1111C50.4162 36.7911 49.9262 36.8311 49.4362 36.3911C49.1862 36.1711 48.9962 35.8311 48.8262 35.4411C48.6262 34.9911 48.4762 34.501 48.3362 33.981C48.3062 33.871 48.3062 33.781 48.3362 33.661C48.5862 32.771 48.7962 31.8511 48.9462 30.9011C49.1562 29.6011 49.2862 28.261 49.3162 26.871C49.3362 25.881 49.2962 24.8611 49.2062 23.8311C49.1962 23.7311 49.1862 23.6311 49.1762 23.4911C49.2762 23.6211 49.3262 23.7011 49.3762 23.7811ZM43.8962 47.231C43.7162 47.361 43.5362 47.4811 43.3562 47.5711C42.6762 47.8911 42.2162 47.7011 41.9462 47.1311C41.8062 46.8511 41.7662 46.5011 41.7562 46.1311C41.7462 45.7011 41.7862 45.2611 41.8562 44.8111C44.2962 42.6311 46.5562 38.6511 46.8562 37.8211C46.8662 37.7911 46.8862 37.761 46.8962 37.731C47.0362 39.281 46.9062 40.9011 46.5262 42.4911C46.2862 43.4811 45.9362 44.4411 45.4562 45.3311C45.0262 46.1111 44.5062 46.761 43.8962 47.231Z" fill="#5F250F"/>
<path d="M1.13623 33.021C1.77623 34.011 2.49622 34.9411 3.29622 35.7611C5.24622 37.7611 7.50622 39.321 9.89622 40.371C10.2562 40.531 10.6162 40.6511 10.9762 40.7811C10.9862 40.7911 10.9962 40.8011 11.0062 40.8111C10.7062 40.7311 10.4462 40.6511 10.1762 40.5811C9.03623 40.2711 7.93622 39.9511 6.89622 39.8311C6.40622 39.7811 5.95623 39.7711 5.55623 39.8611C5.03623 39.9811 4.75622 40.3211 4.58622 40.7811C4.46622 41.1211 4.51622 41.551 4.72622 42.051C4.94622 42.581 5.25623 43.1111 5.62623 43.6511C5.82623 43.9311 6.03623 44.2211 6.27623 44.4911C6.84623 45.1411 7.55623 45.711 8.35623 46.201C9.51623 46.901 10.7262 47.5111 11.9862 47.9711C15.0262 49.0911 18.2262 49.6311 21.3662 49.5811C22.2362 49.5711 23.0962 49.501 23.9162 49.371C23.9962 49.361 24.0762 49.3411 24.1762 49.3211C24.1062 49.2911 24.0762 49.281 24.0462 49.271C22.5062 48.711 21.0662 48.051 19.7362 47.301C18.1662 46.421 16.7362 45.4311 15.4562 44.3511C14.1462 43.2511 12.9762 42.0611 11.9662 40.8111C9.66623 39.8311 5.28622 27.1111 6.43622 26.6511C6.42622 26.3711 6.42623 26.081 6.42623 25.801C6.44623 24.491 6.58622 23.2111 6.83622 21.9911C6.96622 21.3911 7.10623 20.801 7.27623 20.231C7.53623 19.391 7.84623 18.5811 8.20623 17.8111C8.33623 17.5211 8.48623 17.2411 8.62623 16.9611C8.66623 16.8811 8.70622 16.7911 8.75622 16.7111C8.47622 16.5111 8.20622 16.3011 7.93622 16.0811C7.89622 16.1511 7.85622 16.2211 7.82622 16.2811C7.39622 17.1211 7.02623 17.991 6.71623 18.911C6.51623 19.501 6.34623 20.0911 6.19623 20.7111C6.00623 21.5111 5.85622 22.331 5.76622 23.161C5.64622 24.231 5.60622 25.331 5.65622 26.451C5.66622 26.631 5.66623 27.7911 5.91623 29.3811C5.72623 29.2411 5.55623 29.091 5.38623 28.951C4.58623 28.311 3.79623 27.6811 2.95623 27.2211C2.56623 27.0111 2.17623 26.8411 1.78623 26.7811C1.28623 26.7011 0.876225 26.8711 0.516225 27.1911C0.246225 27.4311 0.086229 27.7911 0.036229 28.2811C-0.023771 28.7911 -0.00377432 29.3511 0.0562257 29.9211C0.0862257 30.2211 0.136227 30.5311 0.206227 30.8511C0.356227 31.6211 0.696227 32.351 1.13623 33.021ZM19.6662 48.0711C17.7762 47.9911 15.8562 47.5811 14.0262 46.9011C12.9062 46.4811 11.8262 45.9511 10.8562 45.2811C10.0062 44.7011 9.30623 44.0311 8.81623 43.3111C8.67623 43.1011 8.55623 42.8911 8.46623 42.6911C8.14623 41.9211 8.38623 41.4811 9.02623 41.3111C9.34623 41.2211 9.73622 41.2511 10.1562 41.3211C10.6362 41.4011 11.1362 41.531 11.6462 41.701C11.7562 41.731 11.8362 41.781 11.9062 41.871C12.5262 42.571 13.1862 43.2411 13.8962 43.8811C14.8662 44.7611 15.9362 45.601 17.0762 46.371C17.8962 46.931 18.7762 47.4411 19.6862 47.9311C19.7762 47.9811 19.8662 48.021 19.9862 48.091C19.8562 48.071 19.7662 48.0711 19.6662 48.0711ZM2.91623 30.7611C2.89623 30.5411 2.89623 30.3211 2.92623 30.1311C3.02623 29.3811 3.43623 29.1011 4.05623 29.1811C4.36623 29.2211 4.68622 29.3711 5.00622 29.5611C5.36622 29.7811 5.71623 30.0611 6.05623 30.3611C6.56623 33.5911 8.68622 37.6511 9.22622 38.3511C9.24622 38.3711 9.26623 38.4011 9.27623 38.4311C7.89623 37.7111 6.60622 36.7211 5.47622 35.5411C4.77622 34.8111 4.15623 33.9911 3.66623 33.1011C3.25623 32.3211 2.98623 31.5211 2.91623 30.7611Z" fill="#5F250F"/>
</svg>
