<svg width="55" height="55" viewBox="0 0 55 55" fill="none" xmlns="http://www.w3.org/2000/svg">
<path d="M53.6866 45.604C53.6566 45.504 53.6366 45.404 53.5966 45.314C52.7866 42.974 51.0766 41.394 48.5066 40.854C48.3966 40.824 48.2866 40.804 48.1766 40.784C48.0666 40.764 47.9666 40.734 47.8466 40.714C47.7866 40.704 47.7266 40.714 47.6666 40.704C46.7266 40.574 45.7166 40.564 44.6766 40.624C44.4666 40.614 44.2766 40.604 44.0566 40.594C44.0566 38.244 44.0566 36.164 44.0566 34.004C44.2066 34.004 44.3466 34.004 44.4966 34.004C45.6466 34.104 46.7666 34.104 47.8166 33.954C50.4866 33.754 52.7366 31.964 53.6366 29.534C53.6366 29.534 53.6366 29.524 53.6466 29.524C53.6466 29.524 53.6466 29.524 53.6466 29.514C53.8966 28.834 54.0566 28.114 54.0766 27.364C54.1366 23.944 51.4266 21.014 48.0466 20.644C47.0466 20.474 46.0166 20.584 44.8466 20.574C44.5866 20.574 44.3266 20.574 44.0566 20.574C44.0566 18.274 44.0566 16.164 44.0566 14.084C44.4666 14.054 44.8566 14.034 45.2466 14.014C46.3466 14.034 47.4066 13.974 48.3966 13.754C48.4066 13.754 48.4266 13.754 48.4366 13.754C51.7066 13.264 54.2266 10.164 54.0666 6.94397C54.0366 6.33397 53.8966 5.75397 53.7166 5.19397C53.6966 5.07397 53.6666 4.94397 53.6466 4.80397C53.6066 4.72397 53.5466 4.66397 53.5066 4.58397C52.4766 2.20397 50.1466 0.463961 47.4566 0.343961C46.9466 0.323961 46.4366 0.38397 45.9366 0.49397C45.7966 0.51397 45.6766 0.563961 45.5366 0.593961C45.3266 0.653961 45.1166 0.713973 44.9166 0.793973C42.3266 1.70397 40.4266 4.17396 40.3166 7.45396C40.2866 8.38396 40.3166 9.32397 40.3166 10.364C38.1266 10.364 36.0266 10.364 33.8466 10.364V10.374C33.7966 10.374 33.7566 10.374 33.7166 10.374C33.7166 9.25397 33.7266 8.13396 33.7166 7.00396C33.6666 3.33396 30.5666 0.293961 26.9366 0.343961C23.3266 0.393961 20.3366 3.37396 20.2966 6.98396C20.2866 8.07396 20.2966 9.15397 20.2966 10.354C18.1166 10.354 16.0166 10.354 13.8166 10.354C13.7166 8.91397 13.6966 7.44397 13.4766 5.99397C12.9866 2.71397 9.90661 0.203961 6.68661 0.343961C3.17661 0.503961 0.246607 3.42397 0.0766068 6.94397C-0.0833932 10.164 2.43661 13.264 5.70661 13.754C7.11661 13.964 8.55662 13.974 10.0866 14.084C10.0866 16.164 10.0866 18.274 10.0866 20.574C8.96662 20.574 7.83661 20.564 6.71661 20.574C3.05661 20.624 0.0166068 23.734 0.0766068 27.364C0.136607 30.974 3.11661 33.954 6.71661 34.004C7.80661 34.014 8.88661 34.004 10.0766 34.004C10.0766 34.034 10.0766 34.064 10.0766 34.094H10.0066C10.0066 36.394 10.0066 38.504 10.0066 40.584C9.59661 40.614 9.20661 40.634 8.81661 40.654C8.80661 40.654 8.78662 40.654 8.77662 40.654C7.94662 40.624 7.10661 40.604 6.29661 40.714C4.22661 40.984 2.63661 41.884 1.56661 43.264C1.54661 43.284 1.53661 43.304 1.51661 43.324C1.42661 43.444 1.34661 43.564 1.26661 43.694C0.426609 44.864 -0.0633852 46.274 0.00661476 47.724C0.0366148 48.334 0.176606 48.914 0.356606 49.474C0.376606 49.594 0.406613 49.724 0.426613 49.864C0.466613 49.944 0.526612 50.004 0.566612 50.084C1.59661 52.464 3.93662 54.204 6.61662 54.324C7.12662 54.344 7.63661 54.284 8.12661 54.174C8.26661 54.154 8.38662 54.104 8.52662 54.074C8.73662 54.014 8.94661 53.954 9.14661 53.874C11.7366 52.964 13.6366 50.494 13.7466 47.214C13.7766 46.284 13.7466 45.344 13.7466 44.304C15.9366 44.304 18.0366 44.304 20.2166 44.304V44.294C20.2566 44.294 20.2966 44.294 20.3366 44.294C20.1866 45.634 20.1766 46.644 20.3566 47.484C20.3566 47.544 20.3566 47.604 20.3566 47.664C20.4066 51.334 23.5066 54.374 27.1366 54.324C30.7466 54.274 33.7366 51.294 33.7766 47.684C33.7766 47.424 33.7766 47.154 33.7766 46.884C33.7866 46.804 33.7766 46.704 33.7766 46.614C33.7766 45.874 33.7766 45.124 33.7766 44.314C35.9566 44.314 38.0566 44.314 40.2566 44.314C40.2666 44.484 40.2766 44.664 40.2866 44.834C40.2266 46.044 40.2566 47.024 40.5066 47.804C40.5366 48.094 40.5466 48.384 40.5866 48.674C41.0766 51.954 44.1566 54.464 47.3766 54.324C50.0366 54.204 52.3566 52.494 53.4066 50.144C53.4266 50.104 53.4566 50.084 53.4766 50.034C53.5266 49.944 53.5966 49.864 53.6466 49.764C53.6466 49.734 53.6466 49.704 53.6466 49.674C54.0366 48.704 54.1866 47.694 54.0366 46.734C53.9566 46.334 53.8066 45.984 53.6866 45.604ZM33.8366 14.044V18.004C33.8366 16.704 33.8366 15.414 33.8366 14.044ZM23.8166 6.55397C24.1066 4.81397 25.3266 3.89397 27.0066 3.90397C28.6866 3.91397 29.8166 4.84397 30.2066 6.58397C30.2666 6.87397 30.3266 7.16396 30.3366 7.45396C30.3566 8.38396 30.3466 9.31397 30.3466 10.404C28.0366 10.404 25.9366 10.404 23.6166 10.404C23.6766 9.06397 23.6166 7.78397 23.8166 6.55397ZM23.7766 20.484C23.7766 18.374 23.7766 16.244 23.7766 14.044C25.9466 14.044 28.0466 14.044 30.2466 14.044C30.2466 16.194 30.2466 18.294 30.2466 20.484C28.1066 20.484 26.0066 20.484 23.7766 20.484ZM30.2466 24.014C30.2466 26.164 30.2466 28.274 30.2466 30.514C28.1366 30.514 25.9966 30.514 23.7466 30.514C23.7466 28.414 23.7466 26.304 23.7466 24.014C25.9266 24.014 28.0366 24.014 30.2466 24.014ZM13.8066 14.034C15.9466 14.034 18.0066 14.034 20.1766 14.034C20.1766 16.164 20.1766 18.264 20.1766 20.464C18.1066 20.464 16.0166 20.464 13.8066 20.464C13.8066 18.384 13.8066 16.294 13.8066 14.034ZM13.7666 24.044C15.8966 24.044 17.9966 24.044 20.1866 24.044C20.1866 26.204 20.1866 28.344 20.1866 30.554C18.0266 30.554 15.9366 30.554 13.7666 30.554C13.7666 28.354 13.7666 26.254 13.7666 24.044ZM6.58662 10.444C4.81662 10.314 3.57661 8.82396 3.62661 7.00396C3.67661 5.29396 5.0366 3.94397 6.7466 3.90397C8.5466 3.85397 10.0366 5.11397 10.1666 6.88397C10.2466 8.01397 10.1766 9.14396 10.1766 10.454C8.84661 10.454 7.70662 10.524 6.58662 10.444ZM5.97662 30.404C4.43662 30.094 3.60661 28.834 3.62661 27.234C3.64661 25.724 4.46662 24.474 5.94662 24.184C7.27662 23.924 8.66662 23.964 10.1166 23.864C10.1166 26.214 10.1166 28.334 10.1166 30.724C8.60662 30.624 7.25662 30.654 5.97662 30.404ZM33.7666 34.104C33.7766 34.104 33.7966 34.104 33.8066 34.104H33.7666Z" fill="#5F250F"/>
<path d="M43.8564 47.1138C43.8664 47.1138 43.8765 47.1138 43.8865 47.1138C43.8765 47.1238 43.8664 47.1238 43.8564 47.1138Z" fill="#5F250F"/>
<path d="M33.8662 30.6741C36.0262 30.6741 38.1162 30.6741 40.2862 30.6741C40.2862 28.4841 40.2862 26.3741 40.2862 24.1641C38.1562 24.1641 36.0562 24.1641 33.8662 24.1641" fill="white"/>
<path d="M33.8662 20.5838C35.9362 20.5838 38.0262 20.5838 40.2362 20.5838C40.2362 18.5038 40.2362 16.4138 40.2362 14.1538C38.0962 14.1538 36.0362 14.1538 33.8662 14.1538" fill="white"/>
<path d="M33.877 40.6639C35.997 40.6639 38.057 40.6639 40.237 40.6639C40.237 38.5639 40.237 36.4639 40.237 34.2539C38.187 34.2539 36.087 34.2539 33.877 34.2539" fill="white"/>
<path d="M48.0765 30.5239C49.6165 30.2139 50.4465 28.9539 50.4265 27.3539C50.4065 25.8439 49.5865 24.5939 48.1065 24.3039C46.7765 24.0439 45.3865 24.0839 43.9365 23.9839C43.9365 26.3339 43.9365 28.4539 43.9365 30.8439C45.4365 30.7439 46.7865 30.7739 48.0765 30.5239Z" fill="white"/>
<path d="M47.467 10.5639C49.237 10.4339 50.477 8.9439 50.427 7.1239C50.377 5.4139 49.017 4.0639 47.307 4.0239C45.497 3.9739 44.017 5.23389 43.887 7.00389C43.807 8.13389 43.877 9.2639 43.877 10.5739C45.207 10.5739 46.337 10.6439 47.467 10.5639Z" fill="white"/>
<path d="M43.8865 47.8342C44.0165 49.6042 45.5065 50.8542 47.3165 50.7942C49.0265 50.7442 50.3765 49.3842 50.4165 47.6742C50.4665 45.8642 49.2165 44.3842 47.4365 44.2542C46.3165 44.1742 45.1765 44.2442 43.8665 44.2442C43.8765 45.5742 43.8065 46.7142 43.8865 47.8342Z" fill="white"/>
<path d="M43.8765 44.2242C45.2065 44.2242 46.3365 44.1542 47.4665 44.2442C49.2365 44.3742 50.4765 45.8642 50.4265 47.6842C50.3765 49.3942 49.0165 50.7442 47.3065 50.7842C45.5065 50.8342 44.0165 49.5742 43.8865 47.8042C43.8165 46.6742 43.8765 45.5342 43.8765 44.2242Z" fill="white"/>
<path d="M40.2469 34.2139C40.2469 36.2939 40.2469 38.3839 40.2469 40.6439C38.1069 40.6439 36.047 40.6439 33.877 40.6439C33.877 38.5139 33.877 36.4139 33.877 34.2139" fill="white"/>
<path d="M30.2366 48.1239C29.9466 49.8639 28.7266 50.7839 27.0466 50.7739C25.3666 50.7639 24.2366 49.8339 23.8466 48.0939C23.7866 47.8039 23.7266 47.5139 23.7166 47.2239C23.6966 46.2939 23.7066 45.3639 23.7066 44.2739C26.0166 44.2739 28.1166 44.2739 30.4366 44.2739C30.3766 45.6139 30.4366 46.8939 30.2366 48.1239Z" fill="white"/>
<path d="M30.2766 34.1938C30.2766 36.3038 30.2766 38.4339 30.2766 40.6339C28.1066 40.6339 26.0066 40.6339 23.8066 40.6339C23.8066 38.4839 23.8066 36.3838 23.8066 34.1938" fill="white"/>
<path d="M20.217 36.6641C20.217 37.9741 20.217 39.2541 20.217 40.6241C20.217 40.6241 20.217 40.6241 20.207 40.6241L20.217 36.6641Z" fill="#5F250F"/>
<path d="M6.58647 44.114C4.81647 44.244 3.57646 45.734 3.62646 47.554C3.67646 49.264 5.03645 50.614 6.74645 50.654C8.55645 50.704 10.0365 49.444 10.1665 47.674C10.2465 46.544 10.1765 45.414 10.1765 44.104C8.84646 44.104 7.70647 44.034 6.58647 44.114Z" fill="white"/>
<path d="M20.2171 34.1938C20.2171 36.3038 20.2171 38.4339 20.2171 40.6339C18.0471 40.6339 15.9471 40.6339 13.7471 40.6339C13.7471 38.4839 13.7471 36.3838 13.7471 34.1938" fill="white"/>
</svg>
