<svg width="45" height="54" viewBox="0 0 45 54" fill="none" xmlns="http://www.w3.org/2000/svg">
<path d="M44.7667 3.83C41.4967 7.1 38.2267 10.37 34.9567 13.64C34.9067 13.69 34.8467 13.75 34.7767 13.82C34.5867 13.59 34.4167 13.39 34.2567 13.17C33.9167 12.69 33.7767 12.12 33.6967 11.55C33.5567 10.55 33.4167 9.55 33.3167 8.55C33.2067 7.52 33.1267 6.5 33.1867 5.46C33.2567 4.34 33.6867 3.4 34.5967 2.73C35.3567 2.16 36.1567 1.64 36.9467 1.1C37.2167 0.91 37.4867 0.73 37.7467 0.54C37.8467 0.47 37.9267 0.36 37.8767 0.23C37.8267 0.09 37.7067 0 37.5667 0C37.4267 0 37.2767 1.86265e-09 37.1367 0.03C35.8867 0.36 34.7567 0.93 33.7567 1.72C32.9267 2.37 32.2666 3.19 31.7866 4.14C31.7566 4.19 31.7067 4.25 31.6467 4.27C31.1167 4.47 30.6467 4.76 30.1967 5.1C29.1167 5.92 28.2367 6.92 27.5467 8.09C27.4567 8.25 27.3967 8.44 27.2067 8.55C26.1167 9.16 25.1267 9.9 24.3367 10.88C23.8167 11.52 23.3567 12.2 22.9767 12.92C22.9267 13.02 22.8367 13.1 22.7367 13.16C22.2267 13.48 21.6967 13.78 21.1967 14.12C20.5567 14.56 20.0167 15.1 19.5167 15.7C19.0267 16.29 18.5967 16.91 18.2467 17.58C18.1267 17.81 17.9667 17.97 17.7367 18.09C17.0067 18.47 16.3167 18.91 15.7067 19.46C14.7167 20.35 13.9267 21.4 13.3167 22.58C13.2767 22.66 13.2067 22.73 13.1267 22.78C13.0167 22.86 12.8967 22.91 12.7767 22.97C12.0767 23.36 11.4067 23.79 10.8167 24.33C10.1267 24.96 9.54666 25.67 9.04666 26.46C8.34666 27.55 7.79665 28.72 7.55665 29.99C7.28665 31.39 7.10665 32.82 6.91665 34.23C6.74665 35.55 6.60665 36.86 6.28665 38.15C5.87665 39.85 5.30665 41.49 4.61665 43.09C4.46665 43.44 4.34665 43.82 4.00665 44.06C3.98665 44.08 3.99665 44.2 4.03665 44.24C4.12665 44.35 4.23665 44.45 4.33665 44.55C3.12665 45.76 1.91666 46.97 0.706663 48.18C0.696663 48.13 0.686659 48.11 0.686659 48.09C0.436659 45.74 -0.0633491 50.23 0.00665093 50.16C3.27665 46.89 6.54666 43.62 9.81666 40.35C9.86666 40.3 9.92666 40.24 9.99666 40.17C10.1867 40.4 10.3567 40.6 10.5167 40.82C10.8567 41.3 10.9967 41.87 11.0767 42.44C11.2167 43.44 11.3567 44.44 11.4567 45.44C11.5667 46.47 11.6467 47.49 11.5867 48.53C11.5167 49.65 11.0867 50.59 10.1867 51.26C9.42666 51.83 8.61665 52.35 7.83665 52.89C7.56665 53.08 7.29665 53.26 7.03665 53.45C6.93665 53.52 6.85666 53.63 6.90666 53.76C6.95666 53.9 7.07666 53.99 7.21666 53.99C7.35666 53.99 7.50665 53.99 7.64665 53.96C8.89665 53.63 10.0267 53.06 11.0267 52.27C11.8567 51.62 12.5167 50.8 12.9967 49.85C13.0267 49.8 13.0767 49.74 13.1367 49.72C13.6667 49.52 14.1367 49.23 14.5867 48.89C15.6667 48.07 16.5467 47.07 17.2367 45.9C17.3267 45.74 17.3867 45.55 17.5767 45.44C18.6667 44.83 19.6567 44.09 20.4467 43.11C20.9667 42.47 21.4267 41.79 21.8067 41.07C21.8567 40.97 21.9467 40.89 22.0467 40.83C22.5567 40.51 23.0867 40.21 23.5767 39.87C24.2167 39.43 24.7567 38.89 25.2567 38.29C25.7467 37.7 26.1767 37.08 26.5267 36.41C26.6467 36.18 26.8066 36.02 27.0366 35.9C27.7666 35.52 28.4567 35.08 29.0667 34.53C30.0567 33.64 30.8467 32.59 31.4567 31.41C31.4967 31.33 31.5667 31.26 31.6467 31.21C31.7567 31.13 31.8767 31.08 31.9967 31.02C32.6967 30.63 33.3667 30.2 33.9567 29.66C34.6467 29.03 35.2267 28.32 35.7267 27.53C36.4267 26.44 36.9767 25.27 37.2167 24C37.4867 22.6 37.6667 21.17 37.8567 19.76C38.0267 18.44 38.1667 17.13 38.4867 15.84C38.8967 14.14 39.4667 12.5 40.1567 10.9C40.3067 10.55 40.4267 10.17 40.7667 9.93C40.7867 9.91 40.7767 9.79 40.7367 9.75C40.6467 9.64 40.5367 9.54 40.4367 9.44C41.6467 8.23 42.8567 7.02 44.0667 5.81C44.0767 5.86 44.0867 5.88 44.0867 5.9C44.3367 8.24 44.8267 3.76 44.7667 3.83ZM29.0167 8.36C29.4867 7.39 30.1767 6.59 31.0167 5.93C31.0267 5.92 31.0367 5.92 31.0667 5.91C31.0667 5.96 31.0667 6 31.0567 6.04C30.8467 7.11 30.7867 8.2 30.8567 9.29C30.9767 11.38 30.6967 13.42 30.0767 15.41C29.8567 16.11 29.5967 16.8 29.3567 17.5C29.3367 17.55 29.3167 17.59 29.2967 17.63C29.2767 17.63 29.2667 17.63 29.2467 17.64C29.1967 17.52 29.1467 17.4 29.1067 17.27C28.8167 16.37 28.6867 15.43 28.6067 14.49C28.5067 13.28 28.4667 12.07 28.3967 10.85C28.3467 9.96 28.6367 9.14 29.0167 8.36ZM23.7967 16.16C23.8967 14.73 24.2566 13.37 25.0366 12.15C25.4566 11.48 25.9667 10.88 26.5467 10.34C26.5567 10.33 26.5867 10.32 26.6067 10.31C26.6167 10.34 26.6267 10.35 26.6267 10.37C26.3867 11.51 26.3567 12.68 26.2667 13.84C26.0967 16.04 25.8567 18.24 25.2767 20.38C25.0667 21.14 24.7866 21.87 24.5366 22.62C24.5166 22.69 24.4767 22.75 24.4367 22.83C24.2667 22.67 24.1867 22.48 24.1567 22.29C24.0567 21.72 23.9767 21.15 23.8967 20.58C23.7167 19.11 23.6967 17.63 23.7967 16.16ZM19.0567 20.33C19.1967 19.13 19.5667 17.99 20.2267 16.96C20.7467 16.14 21.3767 15.41 22.1367 14.81C22.1467 14.8 22.1667 14.8 22.2067 14.79C22.1567 14.97 22.0967 15.13 22.0667 15.3C21.8767 16.42 21.6867 17.54 21.5167 18.66C21.2967 20.14 21.2067 21.64 20.8867 23.1C20.5667 24.56 20.1267 25.99 19.5967 27.39C19.5867 27.42 19.5667 27.45 19.5267 27.53C19.4567 27.36 19.3767 27.24 19.3567 27.11C19.2667 26.57 19.1767 26.03 19.1067 25.48C18.8967 23.77 18.8467 22.05 19.0567 20.33ZM14.1467 25.81C14.2167 24.52 14.5267 23.29 15.1667 22.16C15.7267 21.16 16.4567 20.31 17.3667 19.58C17.3767 19.62 17.3767 19.64 17.3767 19.66C17.0267 20.82 16.9067 22.02 16.7367 23.21C16.5567 24.55 16.4067 25.9 16.1967 27.23C15.9567 28.72 15.5167 30.16 15.0067 31.59C14.9167 31.84 14.8167 32.09 14.7167 32.35C14.6967 32.35 14.6667 32.35 14.6467 32.36C14.5767 32.15 14.4767 31.95 14.4567 31.74C14.3367 30.73 14.1867 29.72 14.1367 28.7C14.0867 27.73 14.1067 26.77 14.1467 25.81ZM9.38666 30.1C9.51666 29 9.80666 27.95 10.3567 26.98C10.9067 26 11.6067 25.16 12.4867 24.45C12.4967 24.44 12.5167 24.44 12.5567 24.42C12.5067 24.6 12.4467 24.76 12.4167 24.93C12.2267 26.06 12.0367 27.18 11.8667 28.31C11.6467 29.79 11.5567 31.29 11.2367 32.76C10.9167 34.21 10.4867 35.63 9.95666 37.02C9.94666 37.06 9.91666 37.09 9.90666 37.13C9.88666 37.13 9.86666 37.14 9.84666 37.14C9.78666 36.94 9.68666 36.74 9.65666 36.54C9.53666 35.53 9.39666 34.53 9.32666 33.52C9.25666 32.38 9.24666 31.24 9.38666 30.1ZM15.7667 45.64C15.2967 46.61 14.6067 47.41 13.7667 48.07C13.7567 48.08 13.7467 48.08 13.7167 48.09C13.7167 48.04 13.7167 48 13.7267 47.96C13.9367 46.89 13.9967 45.8 13.9267 44.71C13.8067 42.62 14.0867 40.58 14.7067 38.59C14.9267 37.89 15.1867 37.2 15.4267 36.5C15.4467 36.45 15.4667 36.41 15.4867 36.37C15.5067 36.37 15.5166 36.37 15.5366 36.36C15.5866 36.48 15.6367 36.6 15.6767 36.73C15.9667 37.63 16.0967 38.57 16.1767 39.51C16.2767 40.72 16.3167 41.93 16.3867 43.15C16.4267 44.04 16.1467 44.86 15.7667 45.64ZM20.9867 37.84C20.8867 39.27 20.5267 40.63 19.7467 41.85C19.3267 42.52 18.8167 43.12 18.2367 43.66C18.2267 43.67 18.1967 43.68 18.1767 43.69C18.1667 43.66 18.1567 43.65 18.1567 43.63C18.3967 42.49 18.4267 41.32 18.5167 40.16C18.6867 37.96 18.9267 35.76 19.5067 33.62C19.7067 32.86 19.9967 32.13 20.2467 31.38C20.2667 31.31 20.3067 31.25 20.3467 31.17C20.5167 31.33 20.5967 31.52 20.6267 31.71C20.7267 32.28 20.8067 32.85 20.8867 33.42C21.0667 34.89 21.0867 36.36 20.9867 37.84ZM25.7267 33.67C25.5867 34.87 25.2167 36.01 24.5667 37.04C24.0467 37.86 23.4167 38.59 22.6567 39.19C22.6467 39.2 22.6267 39.2 22.5867 39.21C22.6367 39.03 22.6967 38.87 22.7267 38.7C22.9167 37.58 23.1067 36.46 23.2767 35.34C23.4967 33.86 23.5867 32.36 23.9067 30.9C24.2267 29.44 24.6667 28.01 25.1967 26.61C25.2067 26.58 25.2267 26.55 25.2667 26.47C25.3367 26.64 25.4167 26.76 25.4367 26.89C25.5267 27.43 25.6167 27.97 25.6867 28.52C25.8767 30.23 25.9267 31.95 25.7267 33.67ZM30.6267 28.18C30.5567 29.47 30.2467 30.7 29.6067 31.83C29.0467 32.83 28.3167 33.68 27.4067 34.41C27.3967 34.37 27.3967 34.35 27.3967 34.33C27.7467 33.17 27.8666 31.97 28.0366 30.78C28.2166 29.44 28.3667 28.09 28.5767 26.76C28.8167 25.27 29.2567 23.83 29.7667 22.4C29.8567 22.15 29.9567 21.9 30.0467 21.64C30.0667 21.64 30.0967 21.64 30.1167 21.63C30.1867 21.84 30.2867 22.04 30.3067 22.25C30.4267 23.26 30.5767 24.27 30.6267 25.29C30.6967 26.26 30.6767 27.23 30.6267 28.18ZM35.3867 23.89C35.2567 24.99 34.9567 26.04 34.4167 27.01C33.8667 27.99 33.1667 28.83 32.2867 29.54C32.2767 29.55 32.2567 29.55 32.2167 29.57C32.2667 29.39 32.3267 29.23 32.3567 29.06C32.5467 27.93 32.7367 26.81 32.9067 25.68C33.1267 24.2 33.2167 22.7 33.5367 21.23C33.8567 19.78 34.2867 18.36 34.8167 16.97C34.8267 16.93 34.8567 16.9 34.8667 16.86C34.8867 16.86 34.9067 16.85 34.9267 16.85C34.9867 17.05 35.0867 17.25 35.1167 17.45C35.2367 18.46 35.3767 19.46 35.4467 20.47C35.5267 21.62 35.5267 22.76 35.3867 23.89Z" fill="#5F250F"/>
</svg>
