<svg width="66" height="60" viewBox="0 0 66 60" fill="none" xmlns="http://www.w3.org/2000/svg">
<path d="M41.0673 41.5695C41.2978 44.8451 41.8437 47.417 42.9599 48.1571C41.3463 48.0721 40.2059 45.5851 39.478 42.1639C39.3931 45.9491 39.3325 49.1155 39.4052 50.268C38.9078 48.9942 38.3376 45.67 37.9252 41.7515C37.9009 45.1969 38.0222 49.0184 38.7865 51.4691C37.6219 49.3217 36.5421 45.6579 35.9962 42.2367C36.2267 46.1796 36.809 50.3044 38.2891 52.9613C36.251 50.729 34.7345 46.1796 33.9823 41.8242C34.7102 45.9248 35.426 49.9162 35.9841 52.6822C35.3289 51.651 33.9702 47.9023 32.6478 43.462C32.7327 48.2177 33.2059 52.379 34.6738 53.3495C32.8662 53.2524 31.6287 50.1103 30.9372 46.0097C30.6339 49.8798 30.7795 53.0947 32.0048 53.7741C32.1504 53.8469 32.3081 53.8954 32.4658 53.9197C32.296 53.9076 32.1504 53.859 32.0048 53.7741C30.2578 52.9492 29.4571 49.0427 29.3601 44.6267C28.9112 48.7394 28.8627 52.4032 30.0516 53.0826C28.62 52.3911 27.977 49.1155 27.88 45.3303C26.412 47.2472 25.3808 50.7169 27.977 53.8712C30.8887 57.4137 29.8696 55.3877 33.0967 57.7291C36.3238 60.0705 41.8316 59.379 44.355 54.1866C46.8906 48.9942 47.5215 46.1553 48.4677 45.1362C49.3898 44.1778 43.4573 44.2021 41.0673 41.5695Z" fill="#4E534A"/>
<path d="M49.4505 32.8709C49.9964 32.8709 49.3049 32.3857 49.1957 32.3129C48.7711 32.0217 48.1281 31.8276 47.6064 31.8276C47.0605 31.8276 47.752 32.3129 47.8612 32.3857C48.2858 32.6647 48.9288 32.8709 49.4505 32.8709Z" fill="#4E534A"/>
<path d="M42.6687 19.6351C42.6687 19.6351 44.6219 15.1099 49.875 14.3941C55.116 13.6784 57.2269 17.9973 58.5129 19.6351C59.7988 21.2729 65.3067 23.857 65.8163 27.0476C66.3258 30.2383 62.9895 27.351 56.2442 37.1777C49.511 47.0045 40.9217 36.9715 40.9217 36.9715C40.9217 36.9715 41.4312 35.8433 42.9841 36.3528C44.5249 36.8623 47.8247 38.67 50.1904 38.5608C50.1904 38.5608 44.7918 35.9403 43.3966 33.9871C43.3966 33.9871 47.303 36.8138 53.4054 35.7341C53.4054 35.7341 47.2545 34.351 43.9183 32.0338C43.9183 32.0338 48.492 33.6231 54.0484 33.0165C54.0484 33.0165 49.0136 32.4463 45.0951 29.8258C45.0951 29.8258 52.0951 31.5728 56.9236 31.0633C56.9236 31.0633 48.2251 29.3163 47.2545 28.4913C47.2545 28.4913 53.2234 28.5035 55.4314 27.909C55.4314 27.909 48.7953 27.0477 46.6358 24.9974C46.6358 24.9974 52.6168 25.7738 57.0813 23.9298C57.0813 23.9298 52.3984 21.8673 47.1575 23.2019C47.1575 23.2019 49.0622 21.2972 56.2078 20.1689C56.2078 20.1689 50.4937 19.5016 46.2354 20.9453C46.2354 20.9453 49.3169 18.1186 53.0778 17.3907C53.0657 17.3664 48.0674 15.4132 42.6687 19.6351Z" fill="#4E534A"/>
<path d="M43.4816 21.9887C43.4816 21.9887 38.277 15.7529 30.1365 17.2208C21.9961 18.6888 22.2508 24.0147 20.9527 23.954C19.6546 23.8934 13.8435 24.6577 14.7169 28.5277C15.5783 32.3856 19.8245 33.4654 21.7292 34.4845C23.6339 35.5035 23.9008 41.5816 34.9893 41.0599C34.9893 41.0599 32.9147 41.0357 30.6946 39.5192C30.6946 39.5192 34.8801 39.3251 36.2752 38.3788C36.2752 38.3788 29.9909 38.949 27.4554 38.0634C27.4554 38.0634 37.1002 37.2384 40.3273 34.7635C40.3273 34.7635 32.5265 36.6075 29.5421 36.1587C29.5421 36.1587 37.913 33.3077 39.1869 33.3077C39.1869 33.3077 30.9372 32.7981 29.4814 33.3683C29.4814 33.3683 38.6774 30.578 41.0188 30.5173C41.0188 30.5173 29.7968 31.0269 27.3219 30.1413C27.3219 30.1413 39.5023 29.5711 42.3533 27.9211C42.3533 27.9211 31.9563 27.9211 29.4814 27.0355C29.4814 27.0355 33.861 25.422 40.6427 25.7495C40.6427 25.7495 34.8073 24.1117 29.5421 23.675C29.5421 23.675 32.6478 22.4739 40.1332 22.4011C40.1332 22.4011 31.4589 19.9262 29.0447 20.1204C29.0447 20.1082 34.1279 17.7061 43.4816 21.9887Z" fill="#4E534A"/>
<path d="M35.1713 14.6246C35.1713 14.6246 35.6565 2.73542 37.2094 2.32294C38.7744 1.89832 44.5977 1.72848 45.9686 0.63661C47.3517 -0.443125 48.0068 -0.139826 49.2078 1.47371C50.4089 3.09938 55.8682 6.87238 55.7469 8.19475C55.6256 9.51712 55.6862 12.817 53.2841 12.5743C53.2841 12.5743 55.019 11.1306 54.1212 10.2936C54.1212 10.2936 49.9236 12.8776 48.7832 12.999C48.7832 12.999 52.5683 9.21383 52.265 8.31607C52.265 8.31607 46.0171 13.3872 45.0951 13.6177C45.0951 13.6177 48.9288 9.45645 48.9045 7.29698C48.9045 7.29698 42.7173 12.8291 41.8923 14.2728C41.8923 14.2728 44.7676 7.56389 46.4903 5.84117C46.4903 5.84117 41.0067 10.5119 40.1575 12.7199C40.1575 12.7199 42.6202 6.3507 42.9599 5.19818C42.9599 5.19818 38.7502 8.38885 38.3256 12.2468C38.3256 12.2468 38.277 7.91572 38.6652 6.93304C39.0656 5.98676 35.1349 10.8516 35.1713 14.6246Z" fill="#4E534A"/>
<path d="M10.4466 27.0598C10.4466 27.0598 7.65623 26.0407 6.63715 26.5502C5.61808 27.0598 5.32692 29.5953 4.44129 30.1413C3.55567 30.6872 1.34767 31.9611 2.36675 33.7323C3.38582 35.5036 2.79136 38.1604 4.39276 38.2575C6.13975 38.3667 9.42749 35.0789 10.4466 35.1639C10.4466 35.1639 7.82608 35.2002 6.2732 35.3337C6.2732 35.3337 8.52973 33.8294 12.7759 32.325C12.7759 32.325 7.53491 33.1136 6.51584 33.1136C6.51584 33.1136 10.8226 30.8813 11.8417 30.8813C11.8417 30.8813 8.91794 30.2505 6.43091 31.0512C6.43091 31.0512 10.1918 28.8068 11.6719 28.8917C11.6719 28.8917 9.47601 28.3336 7.23162 28.6005C7.23162 28.6248 7.43786 27.1811 10.4466 27.0598Z" fill="#4E534A"/>
<path d="M16.8522 20.9696C16.8522 20.9696 12.3755 16.311 11.2472 15.1099C10.1311 13.9089 7.44997 15.3647 6.07907 15.1099C4.69604 14.8551 2.28181 16.4929 2.37886 18.8101C2.46378 21.1394 1.43258 22.2677 0.910907 23.0442C0.389238 23.8206 4.61112 25.7981 8.88153 25.5312C8.88153 25.5312 5.44821 24.597 4.21076 23.0442C4.21076 23.0442 7.12241 23.9662 8.85726 23.8812C8.85726 23.8812 5.33903 22.3041 4.80523 20.4479C4.80523 20.4479 9.54878 23.1897 11.7204 23.1897C11.7204 23.1897 6.89191 20.8362 6.20039 19.1741C6.20039 19.1741 12.1814 22.4133 13.8798 21.7218C13.8798 21.7218 9.26975 19.5259 8.04443 17.3179C8.04443 17.3179 15.0445 21.0181 16.8522 20.9696Z" fill="#4E534A"/>
<path d="M18.223 35.358C18.223 35.358 16.1727 34.1448 13.7221 35.358C11.2715 36.5712 6.83122 39.2038 7.52273 40.1864C8.20212 41.1691 7.52274 45.5123 8.14146 46.8832C8.76019 48.2541 13.6857 47.599 15.1901 48.8122C16.6944 50.0254 22.7967 52.9855 27.0429 44.4326C27.0429 44.4326 23.9129 48.1207 21.2317 47.6961C21.2317 47.6961 23.3184 44.2992 22.9302 43.1952C22.9302 43.1952 19.8244 47.3442 18.5263 47.3685C18.5263 47.3685 19.2421 43.7411 21.1104 42.3095C21.1104 42.3095 15.9786 44.2628 14.7776 46.2281C14.7776 46.2281 18.0774 41.7515 20.0307 40.5504C20.0307 40.5504 12.7516 43.6562 12.3633 44.3962C12.3633 44.3962 12.5938 42.2731 18.9267 39.6648C18.9267 39.6648 13.9647 39.6648 12.7273 40.7081C12.7273 40.7081 14.911 38.4273 20.6858 37.5417C20.6858 37.5417 14.7776 36.8623 12.5575 38.0027C12.5332 38.0027 14.0133 35.4914 18.223 35.358Z" fill="#4E534A"/>
<path d="M33.0482 14.9643C33.0482 14.9643 35.2926 7.41832 31.2769 6.7632C27.2613 6.10808 29.0932 3.93647 24.0827 5.0526C19.0723 6.16873 16.5367 4.87062 14.6442 8.0613C12.7516 11.252 13.6979 11.3612 12.8729 12.3681C12.048 13.3751 14.5835 17.5848 18.8297 18.7858C18.8297 18.7858 14.2317 15.6194 14.6442 12.7321C14.6442 12.7321 17.6529 16.3838 19.5333 16.9176C19.5333 16.9176 16.3426 12.6714 15.9908 10.7788C15.9908 10.7788 20.237 15.7893 21.5351 16.1411C21.5351 16.1411 17.4709 9.54138 18.5264 9.48072C18.5264 9.48072 23.1243 14.7945 24.01 14.843C24.01 14.843 21.2439 7.58816 22.0689 7.58816C22.0689 7.58816 26.315 12.7806 26.6668 14.0787C26.6668 14.0787 25.7205 8.5951 24.8956 7.35765C24.8956 7.35765 27.783 11.07 28.4987 14.018C28.4987 14.018 28.3774 8.53444 27.7951 7.52749C27.7951 7.52749 30.1001 10.3542 30.5126 13.9574C30.5126 13.9574 31.3983 11.0093 31.2769 9.77189L33.0482 14.9643Z" fill="#4E534A"/>
</svg>
