<svg width="46" height="65" viewBox="0 0 46 65" fill="none" xmlns="http://www.w3.org/2000/svg">
<path d="M38 15.0661C34.976 10.6807 26.193 -0.511912 25.6629 0.0181993C25.1328 0.548311 25.6629 7.70482 25.6629 7.70482C25.6629 7.70482 34.3133 15.0661 37.2169 23.1985C40.1205 31.3309 34.5061 31.1382 26.952 27.6563C26.952 27.6563 25.0123 29.837 25.0123 32.4996C25.0123 35.1622 26.952 37.3429 26.952 37.3429C34.5061 33.861 40.1205 33.6682 37.2169 41.8006C34.3133 49.933 25.6629 57.2944 25.6629 57.2944C25.6629 57.2944 25.1207 64.4388 25.6629 64.981C26.205 65.5231 34.9639 54.3305 38 49.933C41.024 45.5476 45.9396 36.8248 45.9396 32.4996C45.9396 28.1744 41.0361 19.4516 38 15.0661ZM27.711 28.2105C30.0845 29.2948 32.8916 30.4514 35.5663 30.2225C40.8915 29.7647 37.4819 21.9576 36.1446 19.4516C33.735 14.9457 30.3013 10.9698 26.5785 7.48797C26.458 7.36749 27.2412 7.04219 27.4098 7.18677C29.5664 9.19878 31.5784 11.3795 33.3856 13.7047C35.5061 16.4276 37.4097 19.4034 38.5542 22.6805C39.2048 24.56 39.9518 27.2708 38.5663 29.0298C37.5904 30.2828 35.8073 30.6081 34.3013 30.584C31.723 30.5358 29.1809 29.5599 26.8677 28.4996C26.7954 28.4756 27.4821 28.1141 27.711 28.2105ZM37.9518 43.5235C35.6266 48.8848 31.6146 53.5354 27.3857 57.4992C27.2291 57.6437 26.4219 57.7401 26.5906 57.5715C28.4941 55.7883 30.2772 53.8848 31.9278 51.8607C33.7832 49.5716 35.482 47.1017 36.747 44.4271C37.747 42.3187 38.8675 39.62 38.3253 37.2465C37.253 32.4996 30.2291 35.3429 27.5424 36.5598C27.3375 36.6561 26.5183 36.6923 27.0363 36.4513C29.5303 35.3188 32.3013 34.2465 35.0723 34.2706C36.6627 34.2827 38.3253 34.7767 39 36.3549C39.9397 38.5959 38.8434 41.4753 37.9518 43.5235Z" fill="#4E534A"/>
<path d="M0.904297 32.4996C0.904297 36.8248 5.80782 45.5355 8.84392 49.933C11.868 54.3185 20.6389 65.5232 21.1811 64.981C21.7232 64.4388 21.1811 57.2944 21.1811 57.2944C21.1811 57.2944 12.5306 49.933 9.62703 41.8007C6.72346 33.6683 12.3378 33.861 19.8919 37.3429C19.8919 37.3429 21.8317 35.1622 21.8317 32.4996C21.8317 29.837 19.8919 27.6563 19.8919 27.6563C12.3378 31.1382 6.72346 31.3309 9.62703 23.1986C12.5306 15.0662 21.1811 7.70484 21.1811 7.70484C21.1811 7.70484 21.7112 0.560378 21.1811 0.018218C20.651 -0.511894 11.88 10.6686 8.84392 15.0662C5.80782 19.4516 0.904297 28.1744 0.904297 32.4996ZM19.9642 28.5117C17.651 29.5719 15.1089 30.5478 12.5306 30.596C11.0366 30.6201 9.25356 30.2948 8.26562 29.0418C6.8801 27.2828 7.61502 24.572 8.27766 22.6925C9.42222 19.4155 11.3258 16.4396 13.4463 13.7168C15.2655 11.3915 17.2775 9.21084 19.4221 7.19883C19.5907 7.0422 20.3738 7.37955 20.2534 7.50003C16.5426 10.9819 13.0969 14.9577 10.6873 19.4637C9.34993 21.9697 5.94035 29.7768 11.2656 30.2346C13.9402 30.4635 16.7474 29.3069 19.1209 28.2226C19.3618 28.1141 20.0485 28.4756 19.9642 28.5117ZM7.84393 36.3791C8.50657 34.8008 10.1812 34.3068 11.7716 34.2948C14.5547 34.2707 17.3257 35.3429 19.8076 36.4754C20.3257 36.7164 19.5064 36.6682 19.3016 36.5839C16.6028 35.355 9.59089 32.5117 8.51862 37.2706C7.97646 39.6561 9.09692 42.3428 10.0969 44.4512C11.3619 47.1259 13.0607 49.5837 14.9161 51.8848C16.5546 53.9089 18.3498 55.8125 20.2534 57.5956C20.422 57.7522 19.6148 57.6679 19.4582 57.5233C15.2294 53.5595 11.2174 48.8969 8.8921 43.5476C8.00055 41.4754 6.90419 38.5959 7.84393 36.3791Z" fill="#4E534A"/>
</svg>
