<svg width="66" height="66" viewBox="0 0 66 66" fill="none" xmlns="http://www.w3.org/2000/svg">
<path d="M10.5451 19.9314C15.3851 29.1539 17.2633 41.7355 16.5409 48.4296C15.975 53.7633 10.4247 66.1643 4.39273 65.0566C-1.63921 63.9489 1.14199 53.2937 1.91253 50.4403C4.74189 39.9897 11.8454 35.0053 10.5451 19.9314Z" fill="#4E534A"/>
<path d="M15.4694 14.9951L52.7687 52.2824C64.9891 40.074 25.9681 20.6659 15.4694 14.9951Z" fill="#4E534A"/>
<path d="M52.7687 52.2944L15.4814 14.9951C21.1402 25.4938 40.5483 64.5148 52.7687 52.2944Z" fill="#4E534A"/>
<path d="M20.4056 10.0708C29.6281 14.9108 42.2097 16.789 48.9039 16.0666C54.2375 15.5008 66.6385 9.95043 65.5308 3.91849C64.4232 -2.11345 53.7679 0.667743 50.9145 1.43829C40.4639 4.26764 35.4795 11.3591 20.4056 10.0708Z" fill="#4E534A"/>
</svg>
