<svg width="66" height="49" viewBox="0 0 66 49" fill="none" xmlns="http://www.w3.org/2000/svg">
<g clip-path="url(#clip0)">
<path fill-rule="evenodd" clip-rule="evenodd" d="M33.604 43.9318C27.2312 50.7043 22.276 48.9718 19.2835 45.5673C17.4177 43.435 16.7634 40.8302 17.9023 38.3344C18.5948 36.8158 19.6494 35.4581 20.7295 34.0675C21.2178 33.4388 21.7114 32.8034 22.1791 32.1433C20.6089 30.5952 18.9378 28.9564 17.2211 27.2727C17.0568 27.1116 16.8921 26.9501 16.7271 26.7882C16.401 27.0968 16.0799 27.4115 15.759 27.7261C14.971 28.4984 14.1835 29.2703 13.3226 29.9504C9.9666 32.6037 5.33846 32.1191 2.62457 28.9206C0.0803033 25.928 0.322614 21.2635 3.15766 18.5618C6.13808 15.7146 10.5845 15.6661 13.7103 18.5496C14.3807 19.1635 14.9487 19.8957 15.5975 20.7321C15.922 21.1503 16.2666 21.5946 16.6544 22.0632C18.4475 20.1004 19.8529 18.5618 21.2462 17.0231C21.4079 16.844 21.5036 16.7393 21.6645 16.5631C21.841 16.3699 22.0961 16.0907 22.6031 15.5329C22.6031 15.5329 20.8343 14.0548 20.0589 13.2673C16.7877 9.98394 16.5575 5.56176 19.4046 2.32691C22.1912 -0.847372 27.2919 -1.36834 33.3496 4.8106L33.3879 10.7007L33.387 10.6998L33.3857 10.6985L33.3852 10.698C31.7012 12.37 29.8838 14.1752 28.0544 15.9925L28.0612 15.9993C28.0592 16.0013 28.0572 16.0033 28.0551 16.0054L28.3595 16.3076C29.9674 17.9041 31.665 19.5896 33.0094 20.9111M33.4516 20.4869L33.4516 20.4882C33.3044 20.6296 33.1573 20.771 33.0104 20.9122C33.0102 20.9119 33.0099 20.9117 33.0097 20.9114M33.4588 20.4812L33.5014 27.3647C34.8688 28.7785 36.5434 30.5104 38.1354 32.1602C38.2042 32.2315 38.2728 32.3026 38.3413 32.3735C37.9859 32.7179 37.6135 33.0779 37.228 33.4503C36.0892 34.5529 34.835 35.7654 33.561 36.9922L33.6025 43.691L33.5589 36.9942C33.451 37.0981 33.3429 37.2022 33.2347 37.3063C33.1519 37.3864 33.069 37.4666 32.9862 37.5468C32.9859 37.5466 32.9857 37.5464 32.9854 37.5461C32.8054 37.3676 32.6196 37.1831 32.4289 36.9935C31.4897 36.0599 30.4325 35.0037 29.3756 33.9433C28.9281 33.4943 28.4807 33.0445 28.0423 32.603C28.4673 32.1917 28.8911 31.7824 29.3126 31.3755C30.6605 30.0718 31.9852 28.7911 33.2541 27.5664C33.3303 27.4924 33.4063 27.4185 33.4822 27.3448C33.4824 27.3451 33.4826 27.3453 33.4829 27.3456C33.4829 27.3456 33.4829 27.3456 33.4829 27.3455C33.485 27.3478 33.4872 27.35 33.4893 27.3522C33.4916 27.3546 33.494 27.357 33.4963 27.3594L33.4516 20.4882C33.454 20.4859 33.4564 20.4835 33.4588 20.4812ZM33.4516 20.4869C33.454 20.4846 33.4564 20.4823 33.4588 20.48ZM33.4588 20.48L33.4588 20.4812C33.5335 20.4094 33.6082 20.3376 33.683 20.2658C33.913 20.0447 34.143 19.8236 34.3725 19.6031C34.4624 19.5168 34.5523 19.4306 34.642 19.3445L34.656 19.3311L34.6583 19.3289C35.3889 18.628 36.1114 17.9348 36.8074 17.2649C37.3629 16.7322 37.9015 16.2164 38.4139 15.7267L38.4135 15.7263C38.4114 15.7242 38.4092 15.722 38.4071 15.7198C38.4091 15.7178 38.4112 15.7159 38.4132 15.7139C36.7098 14.0226 34.9101 12.2228 33.3983 10.7111L33.3618 4.8106C33.5783 4.64078 33.8028 4.46278 34.034 4.27941C36.5575 2.27796 39.8867 -0.36249 42.6059 0.0370643C44.2173 0.26726 46.2406 1.32131 47.4279 2.62979C50.6264 6.14331 49.7178 9.66894 44.5444 15.5934C45.4102 16.4261 46.2785 17.2563 47.131 18.0715C48.1515 19.0472 49.1494 20.0012 50.0933 20.9122C50.6226 20.5424 51.1606 20.1249 51.7141 19.6954C53.0103 18.6894 54.3914 17.6175 55.9452 16.9383C59.18 15.5329 62.9358 17.1079 64.6926 20.0399C66.5947 23.2262 66.1344 26.9942 63.5174 29.5385C60.9974 31.9858 56.8902 32.422 53.9946 30.3623C52.9719 29.638 52.0452 28.7697 51.1764 27.9558C50.8101 27.6126 50.454 27.279 50.1055 26.97C48.167 28.7873 46.3012 30.5441 43.8659 32.846C44.2098 33.0968 44.5536 33.3247 44.888 33.5462C45.5551 33.9883 46.1845 34.4053 46.701 34.9299C49.9116 38.1647 50.1539 42.5506 47.3916 45.6279C44.5444 48.8022 40.2919 49.093 36.6935 46.3912C36.5606 46.2915 36.1653 45.9741 35.6914 45.5936C34.9561 45.0031 34.0314 44.2607 33.6041 43.9439L33.604 43.9318M47.1229 24.2898C47.1277 24.2947 47.1324 24.2996 47.1371 24.3045L46.9868 24.4458C45.2311 26.0955 43.4648 27.7551 41.7215 29.3688C41.7214 29.3687 41.7213 29.3686 41.7212 29.3685C41.717 29.3724 41.7128 29.3763 41.7086 29.3802C40.0488 27.6235 38.2557 25.7335 36.4262 23.8071C37.0098 23.2412 37.6256 22.643 38.262 22.025C39.3695 20.9493 40.539 19.8133 41.7086 18.6822C41.7088 18.6824 41.709 18.6826 41.7092 18.6828C41.7133 18.6788 41.7174 18.6748 41.7215 18.6708C42.241 19.2131 42.7725 19.7673 43.318 20.3356C44.5192 21.5757 45.7785 22.8873 47.1229 24.2898ZM28.4894 5.27917C29.1123 5.85706 29.7864 6.5674 30.5267 7.41544C28.6252 9.40177 26.8568 11.2549 25.0885 13.108L25.0868 13.1098C20.9949 9.51628 20.0639 7.0208 22.0072 4.86989C22.0947 4.77247 22.1881 4.67575 22.2873 4.57968C24.1238 2.81895 25.7827 2.86293 28.2466 5.05836C28.3267 5.12969 28.4076 5.20329 28.4894 5.27917ZM36.8529 8.14161C36.6199 7.90526 36.3851 7.66732 36.1483 7.42756C36.1481 7.42731 36.1478 7.42708 36.1476 7.42684C36.3415 7.19316 36.5306 6.97062 36.715 6.75896C40.1195 2.84164 41.9421 2.64394 44.0036 4.27656C44.1459 4.38923 44.2894 4.51067 44.4346 4.64026C44.4535 4.65715 44.4722 4.67409 44.4907 4.69106C44.5565 4.75141 44.6197 4.81222 44.6802 4.87349C46.7499 6.96897 45.7258 9.60375 41.673 13.0492L41.6723 13.0485L41.5828 12.9572L41.5824 12.9568L41.5824 12.9567C40.0295 11.3726 38.4839 9.79589 36.8529 8.14161ZM30.4496 40.9092C30.4551 40.9152 30.4606 40.9211 30.4661 40.9271C30.1008 41.2766 29.7532 41.678 29.4012 42.0844C28.1306 43.5516 26.8034 45.0841 24.3841 44.4769C23.6917 44.3021 22.9024 43.8325 22.2843 43.25C21.8312 42.8233 21.47 42.3358 21.306 41.8593C20.4027 39.2538 22.0218 37.7977 23.6917 36.296C24.1494 35.8843 24.611 35.4692 25.0255 35.0261C25.0257 35.0263 25.026 35.0266 25.0262 35.0269C25.0262 35.0268 25.0262 35.0268 25.0262 35.0268C25.031 35.032 25.0357 35.0371 25.0405 35.0423C26.8113 36.9577 28.523 38.8141 30.4496 40.9092ZM44.8109 43.2076C46.6224 41.1021 45.6402 38.5662 42.0358 35.4501C41.1814 36.2636 40.3572 37.0468 39.5515 37.8126L39.5494 37.8146L39.5424 37.8212L39.541 37.8225C38.4423 38.8666 37.3778 39.8783 36.3172 40.89C36.74 41.3946 37.1509 41.8492 37.5505 42.2539C37.7003 42.4056 37.8486 42.5502 37.9953 42.6879C40.587 45.1202 42.7025 45.3676 44.5686 43.4714C44.6543 43.3842 44.7351 43.2963 44.8109 43.2076ZM14.4295 24.3211C14.4321 24.3237 14.4347 24.3262 14.4372 24.3288C14.0952 24.6205 13.769 24.902 13.4534 25.1743C12.657 25.8615 11.9284 26.4902 11.185 27.077C11.1542 27.1017 11.1234 27.1264 11.0926 27.151C9.34793 28.5564 6.93693 28.3989 5.49518 26.8239C4.12612 25.3215 4.114 22.9105 5.45883 21.3961C5.59221 21.2466 5.73104 21.1085 5.87457 20.9821C7.34916 19.6737 9.32557 19.5988 11.0085 20.9606C11.64 21.4701 12.2119 22.0518 12.8779 22.741C12.9774 22.8431 13.079 22.9477 13.1829 23.0548C13.5586 23.4417 13.9664 23.8617 14.4295 24.3211ZM53.5987 25.3484C53.1963 24.9708 52.7804 24.5805 52.3347 24.1834C52.3345 24.1831 52.3342 24.1829 52.334 24.1827C52.7905 23.7456 53.2056 23.3287 53.5991 22.9334L53.5994 22.9331L53.5995 22.933C54.4274 22.1013 55.1596 21.3659 55.9807 20.7418C57.7012 19.4455 59.9425 19.7847 61.2995 21.4567C61.9258 22.2326 62.2529 23.0339 62.2994 23.8373C62.3583 24.7944 62.0188 25.7548 61.3124 26.6792C60.0887 28.2784 57.6292 28.6298 55.9694 27.4061C55.1469 26.8013 54.3995 26.1 53.5987 25.3484ZM30.7198 24.3523C28.8661 26.0242 27.0003 27.6962 25.1587 29.3439C24.3388 28.5182 23.491 27.6562 22.6233 26.7739L22.6224 26.773C21.6825 25.8174 20.7193 24.8381 19.7431 23.8555C20.3355 23.3026 20.9614 22.7194 21.6085 22.1164L21.6091 22.1159C22.7483 21.0543 23.9535 19.9313 25.1587 18.8033L25.1604 18.805L25.1604 18.8051C26.8682 20.5129 28.6971 22.3418 30.7198 24.3523Z" fill="#4E534A"/>
</g>
<defs>
<clipPath id="clip0">
<rect width="65" height="48.5713" fill="white" transform="translate(0.867065)"/>
</clipPath>
</defs>
</svg>
